<?xml version="1.0" encoding="UTF-8"?>
<svg width="300px" height="67px" viewBox="0 0 300 67" version="1.1" xmlns="http://www.w3.org/2000/svg" xmlns:xlink="http://www.w3.org/1999/xlink">
    <!-- Generator: Sketch 55.2 (78181) - https://sketchapp.com -->
    <title>diamond-154012</title>
    <desc>Created with Sketch.</desc>
    <g id="Home,-Beer,-Footer-Rvs" stroke="none" stroke-width="1" fill="none" fill-rule="evenodd">
        <g id="Home-Large-Screens" fill-rule="nonzero" stroke="#EEA500">
            <g id="Menu">
                <g id="diamond-154012">
                    <g id="Path">
                        <polygon points="25.0039583 58.4444444 12.5019792 65.6944444 0 72.9444444 12.5019792 80.1944444 25.0039583 87.4444444 37.4980208 80.1944444 50 72.9444444 37.4980208 65.6944444"></polygon>
                        <polygon points="75.0039583 58.4444444 62.5019792 65.6944444 50 72.9444444 62.5019792 80.1944444 75.0039583 87.4444444 87.4980208 80.1944444 100 72.9444444 87.4980208 65.6944444"></polygon>
                        <polygon points="125.003958 58.4444444 112.501979 65.6944444 100 72.9444444 112.501979 80.1944444 125.003958 87.4444444 137.498021 80.1944444 150 72.9444444 137.498021 65.6944444"></polygon>
                        <polygon points="175.003958 58.4444444 162.501979 65.6944444 150 72.9444444 162.501979 80.1944444 175.003958 87.4444444 187.498021 80.1944444 200 72.9444444 187.498021 65.6944444"></polygon>
                        <polygon points="225.003958 58.4444444 212.501979 65.6944444 200 72.9444444 212.501979 80.1944444 225.003958 87.4444444 237.498021 80.1944444 250 72.9444444 237.498021 65.6944444"></polygon>
                        <polygon points="275.003958 58.4444444 262.501979 65.6944444 250 72.9444444 262.501979 80.1944444 275.003958 87.4444444 287.498021 80.1944444 300 72.9444444 287.498021 65.6944444"></polygon>
                        <polygon points="25.0039583 29.4444444 12.5019792 36.6944444 0 43.9444444 12.5019792 51.1944444 25.0039583 58.4444444 37.4980208 51.1944444 50 43.9444444 37.4980208 36.6944444"></polygon>
                        <polygon points="25.0039583 0.444444444 12.5019792 7.69444444 0 14.9444444 12.5019792 22.1944444 25.0039583 29.4444444 37.4980208 22.1944444 50 14.9444444 37.4980208 7.69444444"></polygon>
                        <polygon points="75.0039583 0.444444444 62.5019792 7.69444444 50 14.9444444 62.5019792 22.1944444 75.0039583 29.4444444 87.4980208 22.1944444 100 14.9444444 87.4980208 7.69444444"></polygon>
                        <polygon points="75.0039583 29.4444444 62.5019792 36.6944444 50 43.9444444 62.5019792 51.1944444 75.0039583 58.4444444 87.4980208 51.1944444 100 43.9444444 87.4980208 36.6944444"></polygon>
                        <polygon points="125.003958 29.4444444 112.501979 36.6944444 100 43.9444444 112.501979 51.1944444 125.003958 58.4444444 137.498021 51.1944444 150 43.9444444 137.498021 36.6944444"></polygon>
                        <polygon points="125.003958 0.444444444 112.501979 7.69444444 100 14.9444444 112.501979 22.1944444 125.003958 29.4444444 137.498021 22.1944444 150 14.9444444 137.498021 7.69444444"></polygon>
                        <polygon points="175.003958 0.444444444 162.501979 7.69444444 150 14.9444444 162.501979 22.1944444 175.003958 29.4444444 187.498021 22.1944444 200 14.9444444 187.498021 7.69444444"></polygon>
                        <polygon points="175.003958 29.4444444 162.501979 36.6944444 150 43.9444444 162.501979 51.1944444 175.003958 58.4444444 187.498021 51.1944444 200 43.9444444 187.498021 36.6944444"></polygon>
                        <polygon points="225.003958 29.4444444 212.501979 36.6944444 200 43.9444444 212.501979 51.1944444 225.003958 58.4444444 237.498021 51.1944444 250 43.9444444 237.498021 36.6944444"></polygon>
                        <polygon points="225.003958 0.444444444 212.501979 7.69444444 200 14.9444444 212.501979 22.1944444 225.003958 29.4444444 237.498021 22.1944444 250 14.9444444 237.498021 7.69444444"></polygon>
                        <polygon points="275.003958 0.444444444 262.501979 7.69444444 250 14.9444444 262.501979 22.1944444 275.003958 29.4444444 287.498021 22.1944444 300 14.9444444 287.498021 7.69444444"></polygon>
                        <polygon points="275.003958 29.4444444 262.501979 36.6944444 250 43.9444444 262.501979 51.1944444 275.003958 58.4444444 287.498021 51.1944444 300 43.9444444 287.498021 36.6944444"></polygon>
                    </g>
                </g>
            </g>
        </g>
    </g>
</svg>