<?xml version="1.0" encoding="UTF-8"?>
<svg id="Layer_1" xmlns="http://www.w3.org/2000/svg" version="1.1" viewBox="0 0 218 117.1">
  <!-- Generator: Adobe Illustrator 30.0.0, SVG Export Plug-In . SVG Version: 2.1.1 Build 123)  -->
  <defs>
    <style>
      .st0 {
        fill: #fffffe;
      }

      .st0, .st1, .st2 {
        fill-rule: evenodd;
      }

      .st1 {
        fill: #c11e43;
      }

      .st2 {
        fill: #d40032;
      }
    </style>
  </defs>
  <g id="Home_x2C_-Beer_x2C_-Footer-Rvs">
    <g id="Home-Large-Screens">
      <g id="Menu">
        <g id="GB_Friendly_Logo-2">
          <g id="GB_Friendly_Logo">
            <path id="Fill-1" class="st0" d="M164.8,44.7v23.7c0,2.9,1.4,3.6,3.4,4.6l3.1-3.8c-.6-.6-1-1-1.1-2v-24.3c0-2.2-2.1-3.8-3.3-4.2l-4.3,3c1,.5,2.2,1.5,2.2,3.1"/>
            <path id="Fill-2" class="st0" d="M82.4,60.5c.4-.2.7,0,.9.3v6.2c-.3.4-1.9,2-2.3,1.9-3.1-2.5-1.9-6.7,1.4-8.3M79.4,73c1.5-1.2,2.6-2.2,4.1-3.6.3,2,1.7,2.6,3.4,3.5l3.2-3.8c-.6-.6-1.1-1-1.2-2v-13.1c0-2.1-1.9-3.6-3.2-4.1h0s0,0,0,0c0,0-.1,0-.2,0,0,0,0,0,0,0-.9-.2-1.6,0-2,0,0,0,0,0-.1,0-1.2.6-4.5,2.5-4.5,2.5,0,0-2.6,1.5-2.9,1.7-.3.1-.7.5-.7,1.2s.6,1.4,1.4,1.4,1.1-.6,1.2-.7c.5-.7,2.1-2.8,3.4-3,.2,0,.3,0,.5,0,.9.6,1.6,1.4,1.6,2.7v3.1c-2.3.3-6.5,1.6-8.2,3.8-3,3.8-.6,9.2,4.2,10.2"/>
            <path id="Fill-3" class="st0" d="M116.1,73l3.2-3.8c-.6-.6-1.1-1-1.2-2,0,0,0-10.5,0-13.2s-2.9-4.1-3.3-4.3c0,0-5.7,4-5.7,4,0-2.1-2.1-3.5-3.3-3.9l-4.3,3c1,.5,2.2,1.5,2.2,3.1v12.5c0,2.9,1.5,3.6,3.5,4.6l3.2-3.8c-.6-.6-1.1-1-1.2-2v-11.3s0,0,0,0l1.4-.9c1,.5,2.1,1.7,2.1,3.2v10.2c0,2.9,1.5,3.6,3.5,4.6"/>
            <path id="Fill-4" class="st0" d="M97,73l3.1-3.8c-.6-.6-1-1-1.2-2v-13.2c0-2.2-2.1-3.8-3.3-4.2l-4.3,3c1,.5,2.2,1.5,2.2,3.1v12.6c0,2.9,1.4,3.6,3.4,4.6"/>
            <path id="Fill-5" class="st0" d="M95,47.4l3.8-3.2s-.4-1.1-1.4-2.2c-.8-.9-1.9-1.7-1.9-1.7l-3.8,3.4s1.1,1,1.8,1.9c1,1.1,1.4,1.8,1.4,1.8"/>
            <path id="Fill-6" class="st0" d="M154.4,53.6s.6-.6.9-.4c1.2,1.4,2,3.2,2,4.6,0,1.6-1.2,2.7-2.5,3.4-.2-.1-.5-.2-.5-.2v-7.3ZM154.6,63.7c2.4-1.6,7.1-3.4,7.6-6.5.3-2.4-.6-5.7-3.9-8.5l-10.1,5.6c.4.6.6,1.2.7,2.5,0,3.8-.1,8-.1,11s4.4,3.8,8.9,5.1c0,0,4.6-5.4,4.6-5.4l-1.3-1.1s-1.8,2.1-2,2.1c-1.3,0-3.3-1.2-4.4-2.2,0,0-.2-.3-.2-.5,0-.5,0-1.5,0-1.9,0,0,.2-.2.3-.3h0Z"/>
            <path id="Fill-7" class="st0" d="M70.6,56.8l3.3-2.4-3.3-3.4-3.8,2.7c0-1.8-1.9-3.5-3.3-4l-4.3,3c1,.5,2.2,1.5,2.2,3.1v12.6c0,2.9,1.5,3.6,3.5,4.6l3.2-3.8c-.7-.6-1.1-1-1.2-2v-11.4s1.7-1.1,1.7-1.1l2.1,2.1"/>
            <path id="Fill-8" class="st0" d="M56.5,51.6h-6.4s-2.2,3.2-2.2,3.2h2.2v18.7s-3.2-2.3-3.2-2.3c-.5-.5-.6-1.2-.6-1.5v-1.6h0v-7.7s0,0,0,0h0v-17.2c.7-.4,1.4-.9,2-1.3,1.2,1.5,4.9,5.9,4.9,5.9l4.6-3.6s-3.8-4.7-6.2-7.6c-3.1,1.7-11.5,6.8-11.5,6.8h0c0,0,0,0,0,0v26.2c0,1.1.7,2.8,1.2,3.6,1.2,1.5,7.1,4.8,7.1,4.8l8.3-5.7v-20.8"/>
            <path id="Fill-9" class="st0" d="M180.2,44.3l-5.6,3.8v3.5h-2v2.1h2v14.6c0,2.9,1.5,3.6,3.5,4.6l3.2-3.8c-.7-.6-1.1-1-1.2-2v-13.4s4.2,0,4.2,0v-2.1h-4.2v-7.3"/>
            <path id="Fill-10" class="st0" d="M138.6,72.2c-.4.2-1.9-1.2-2.9-2.1-.3-.4-.6-.8-.6-1.5v-9.3c.3-.3.8-.7.8-.7.2,0,.4,0,.6.1,4.9,2.8,6.4,8.1,2.1,13.4h0ZM135,54.1h0s0-10.9,0-10.9l1.3-.9c1.5,2.1,3.4,4.2,3.4,6.2,0,2.4-2.3,4.9-4,6,0,0,0,0,0,0,0,0-.1,0-.2,0-.2,0-.4-.2-.4-.4h0ZM145.2,45.6c0-5.1-5-9.1-5-9.1l-12.5,7.2c.8,1.2.9,2.2.9,5.5v19c0,.1,0,.2,0,.4v1.1c0,1.1.7,2.8,1.3,3.6,1.2,1.5,5.8,4.8,5.8,4.8,0,0,11.1-6,10.8-14.1,0-6.9-5.1-9.9-5.1-9.9l-.3-.2.3-.3s3.9-2.8,3.9-7.9h0Z"/>
            <path id="Fill-11" class="st1" d="M157.2,57.4c0-1.3-.7-3.2-1.8-4.6-.3-.2-.8.4-.8.4v7.4c-.1,0,0,.1.3.2,1.2-.7,2.2-1.8,2.3-3.4"/>
            <path id="Fill-12" class="st1" d="M136.8,59c-.2-.1-.4-.2-.6-.1,0,0-.5.3-.9.7v9.2c0,.6.3,1.1.7,1.5.9.9,2.5,2.3,2.8,2.1,4.3-5.2,2.9-10.5-2.1-13.3"/>
            <path id="Fill-13" class="st1" d="M135.1,54.4c0,0,.1,0,.2,0,0,0,0,0,0,0,1.7-1,4-3.5,4.1-5.9,0-2-1.9-4.1-3.4-6.2l-1.3.8v10.8s0,0,0,0c0,.2.2.4.4.4"/>
            <path id="Fill-14" class="st1" d="M81.2,68.9c.4,0,2.1-1.5,2.5-1.9v-6.1c-.3-.3-.5-.5-1-.3-3.4,1.6-4.8,5.8-1.4,8.3"/>
            <path id="Fill-15" class="st2" d="M75,62.5c1.7-2.2,6-3.5,8.2-3.8v-3.1c0-1.3-.8-2.2-1.7-2.7-.1,0-.3,0-.5,0-1.3.1-2.9,2.3-3.4,3,0,0-.5.7-1.2.7s-1.4-.6-1.4-1.4.4-1.1.7-1.2c.3-.1,2.9-1.7,2.9-1.7,0,0,3.3-1.9,4.5-2.5,0,0,0,0,.1,0,.4-.1,1.1-.3,2,0,0,0,0,0,0,0,0,0,.1,0,.2,0,0,0,0,0,0,0h0c1.3.5,3.3,2,3.2,4.1v13.2c.1.9.5,1.4,1.2,2l-3.2,3.8c-1.8-.9-3.2-1.5-3.5-3.6-1.5,1.4-2.6,2.5-4.1,3.6-4.8-1-7.2-6.5-4.2-10.3h0ZM66.7,67c.1.9.5,1.4,1.2,2l-3.2,3.8c-2-1-3.6-1.7-3.5-4.6v-12.6c0-1.6-1.2-2.5-2.2-3.1l4.4-3c1.4.4,3.4,2.1,3.4,4l3.8-2.7,3.4,3.4-3.3,2.4-2.1-2.1s-1.7,1.1-1.7,1.1v11.4ZM91.2,43.5l3.8-3.3s1.1.7,1.9,1.7c.9,1.1,1.4,2.2,1.4,2.2l-3.8,3.2s-.5-.7-1.5-1.8c-.8-.9-1.9-1.9-1.9-1.9h0ZM91.1,52.5l4.4-3c1.3.4,3.5,2,3.4,4.2v13.2c.1.9.5,1.4,1.2,2l-3.2,3.8c-2-1-3.6-1.7-3.5-4.6v-12.6c0-1.6-1.2-2.5-2.2-3.1h0ZM110.4,54.7l-1.4.9h0s0,11.4,0,11.4c.1.9.5,1.4,1.2,2l-3.2,3.8c-2-1-3.6-1.7-3.5-4.6v-12.6c0-1.6-1.2-2.5-2.2-3.1l4.4-3c1.2.4,3.3,1.9,3.4,3.9,0,0,5.7-4,5.8-4,.4.2,3.3,1.5,3.3,4.3s0,13.2,0,13.2c.1.9.5,1.4,1.2,2l-3.2,3.8c-2-1-3.6-1.7-3.5-4.6v-10.3c0-1.6-1.1-2.7-2.2-3.2h0ZM170.4,42.7v24.3c.1.9.5,1.4,1.2,2l-3.2,3.8c-2-1-3.6-1.7-3.5-4.6v-23.6c0-1.6-1.2-2.5-2.2-3.1l4.4-3c1.3.4,3.5,2,3.4,4.2h0ZM154.4,65.7c0,.2.2.4.2.5,1.1,1,3.1,2.3,4.4,2.2.2,0,2-2.1,2-2.1l1.3,1.1s-4.6,5.4-4.6,5.5c-4.4-1.4-8.9-2.2-8.9-5.2s0-7.3.1-11.2c0-1.2-.2-1.8-.7-2.5l10.1-5.7c3.3,2.8,4.2,6.1,3.9,8.6-.4,3.1-5.2,5-7.5,6.6,0,0-.2.2-.3.3-.1.4-.1,1.4,0,1.9h0ZM141.1,53.9s5.1,3,5.1,9.8c.3,8.1-10.8,14-10.8,14,0,0-4.6-3.3-5.8-4.8-.6-.7-1.2-2.5-1.2-3.5v-1.1c0-.1,0-.2,0-.4v-15.5s0-3.4,0-3.4c0-3.2-.1-4.3-.9-5.4l12.5-7.1s5,4,5,9-3.9,7.8-3.9,7.8l-.3.3.3.2ZM184.1,53.5h-4.2v13.4c.1.9.5,1.4,1.2,2l-3.2,3.8c-2-1-3.6-1.7-3.5-4.6v-14.6s-2,0-2,0v-2.1h2v-3.5l5.5-3.8v7.3h4.2v2.1ZM41,73c-.6-.7-1.2-2.5-1.2-3.5v-26h0c0,0,8.6-5.1,11.7-6.8,2.5,2.9,6.3,7.6,6.3,7.6l-4.7,3.6s-3.7-4.4-5-5.9c-.6.4-1.3.9-2,1.3v17.1s0,0,0,0h0s0,3.7,0,3.7v4h0v1.4s0,.2,0,.2c0,.3,0,1,.6,1.4l3.3,2.3v-18.6s-2.3,0-2.3,0l2.3-3.2h6.5s0,20.7,0,20.7l-8.4,5.7s-6-3.3-7.2-4.8h0ZM218,58L109.1.9,0,58l109.1,57.1,108.9-57.1h0Z"/>
          </g>
        </g>
      </g>
    </g>
  </g>
</svg>