<?xml version="1.0" encoding="UTF-8"?>
<svg width="218px" height="156px" viewBox="0 0 218 156" version="1.1" xmlns="http://www.w3.org/2000/svg" xmlns:xlink="http://www.w3.org/1999/xlink">
    <!-- Generator: Sketch 55.2 (78181) - https://sketchapp.com -->
    <title>GB_Friendly_Logo 2</title>
    <desc>Created with Sketch.</desc>
    <g id="Home,-Beer,-Footer-Rvs" stroke="none" stroke-width="1" fill="none" fill-rule="evenodd">
        <g id="Home-Large-Screens" transform="translate(-41.000000, -9.000000)">
            <g id="Menu">
                <g id="GB_Friendly_Logo-2" transform="translate(41.000000, 9.000000)">
                    <g id="GB_Friendly_Logo" transform="translate(0.000000, 0.870536)">
                        <path d="M164.757514,43.8356904 L164.757514,67.5070046 C164.667719,70.4087315 166.196025,71.0739693 168.181259,72.1086957 L171.309707,68.2771688 C170.66729,67.7144785 170.261418,67.2337206 170.160591,66.2970488 L170.153664,41.9528321 C170.228322,39.749909 168.100443,38.1461492 166.860763,37.7391304 L162.576271,40.739969 C163.60224,41.2799296 164.757514,42.2271733 164.757514,43.8356904" id="Fill-1" fill="#FFFFFE"></path>
                        <path d="M82.4270328,59.6772925 C82.8591323,59.4652463 83.0788263,59.7060889 83.3747884,59.9772986 L83.3734869,66.1274229 C83.0291088,66.4824039 81.4256553,68.0976198 81.0604531,68.0169899 C77.9371027,65.479504 79.1821219,61.2859638 82.4270328,59.6772925 M79.3664149,72.1086957 C80.8173321,70.9516042 81.9241315,69.8929441 83.4245058,68.5135968 C83.7061514,70.5379833 85.1042275,71.153179 86.8492847,72.0429875 L90.0215716,68.2481464 C89.3723812,67.6905435 88.9616264,67.2148794 88.8525603,66.287112 L88.8486558,53.1399876 C88.9233622,51.0525108 86.956008,49.5119038 85.6826161,49.027339 L85.6810543,49.027339 C85.6768895,49.0252447 85.6716834,49.0252447 85.6682995,49.0241976 C85.6146775,49.0032547 85.5594938,48.9825737 85.5087351,48.9652959 C85.5019673,48.9684373 85.4954597,48.9734112 85.4889522,48.9770762 C84.6250136,48.7380661 83.899555,48.9121534 83.5226393,49.0522086 C83.484375,49.0629418 83.4455902,49.0697482 83.407326,49.0885968 C82.1930223,49.6956771 78.9283285,51.6187526 78.9283285,51.6187526 C78.9283285,51.6187526 76.2992895,53.1593597 76.047058,53.3015092 C75.7958676,53.4433969 75.3653299,53.7541361 75.3653299,54.4921092 C75.3653299,55.2434332 75.9710501,55.8539168 76.7199358,55.8539168 C77.3850045,55.8539168 77.8457371,55.2426479 77.8816586,55.1837462 C78.3642565,54.5041513 79.9791632,52.3711239 81.2738999,52.2305451 C81.4334643,52.214838 81.5839182,52.2305451 81.7312485,52.2724308 C82.5868576,52.8389344 83.3747884,53.6999466 83.3747884,55.0025907 L83.3747884,58.0950616 C81.1156369,58.3796223 76.9175041,59.6851461 75.2107112,61.8689599 C72.2552549,65.6428581 74.5708916,71.1141729 79.3664149,72.1086957" id="Fill-2" fill="#FFFFFE"></path>
                        <path d="M116.082419,72.1086957 L119.244992,68.2953854 C118.595095,67.7353704 118.186218,67.2571612 118.083479,66.3249427 C118.083479,66.3249427 118.078291,55.8674713 118.078291,53.1150067 C118.078291,50.3612269 115.142467,49.0212944 114.794299,48.8586957 C114.762647,48.8442676 109.098034,52.8419698 109.095699,52.8456524 C108.99789,50.7915626 106.972701,49.3087986 105.772273,48.9200235 L101.442219,51.9052796 C102.479979,52.4447774 103.645902,53.3890958 103.645902,54.9860198 L103.645902,67.5288829 C103.557433,70.4168138 105.104993,71.0788888 107.106054,72.1086957 L110.270184,68.2953854 C109.623141,67.7353704 109.212966,67.2571612 109.106855,66.3249427 L109.103223,54.9870719 L109.105817,54.9886502 L110.48059,54.0674794 C111.504081,54.6103967 112.622008,55.7233246 112.622008,57.2873684 L112.619154,67.5288829 C112.530425,70.4168138 114.07565,71.0788888 116.082419,72.1086957" id="Fill-3" fill="#FFFFFE"></path>
                        <path d="M96.9669551,72.1086957 L100.098613,68.2853002 C99.4570904,67.7238041 99.0511347,67.2443302 98.9461815,66.3096462 L98.9420758,53.0647735 C99.0190585,50.8665255 96.8894591,49.263532 95.6490105,48.8586957 L91.3651772,51.851847 C92.389561,52.3927716 93.5471249,53.3395875 93.5471249,54.9407349 L93.5422493,67.5167705 C93.4555154,70.4123392 94.9846494,71.0761653 96.9669551,72.1086957" id="Fill-4" fill="#FFFFFE"></path>
                        <path d="M94.9735466,46.5 L98.7550077,43.3025232 C98.7550077,43.3025232 98.3223895,42.1659731 97.3973477,41.0875782 C96.6079684,40.1653261 95.481763,39.423913 95.481763,39.423913 L91.7010786,42.7775327 C91.7010786,42.7775327 92.7625595,43.7534256 93.5387351,44.6573548 C94.493809,45.7739888 94.9735466,46.5 94.9735466,46.5" id="Fill-5" fill="#FFFFFE"></path>
                        <path d="M154.410719,52.72476 C154.410719,52.72476 155.008668,52.1122763 155.287024,52.2986277 C156.439306,53.6776282 157.302659,55.5411424 157.248733,56.869841 C157.194806,58.4417087 156.018997,59.5770189 154.72529,60.2418895 C154.476541,60.1402433 154.270615,60.0151402 154.270615,60.0151402 L154.410719,52.72476 Z M154.615322,62.853155 C156.988088,61.2838936 161.727804,59.4063054 162.172962,56.309223 C162.514232,53.9035956 161.607262,50.608694 158.254039,47.8478261 L148.132512,53.4712082 C148.57344,54.0990691 148.733105,54.6912235 148.791789,55.9224461 C148.729139,59.7031645 148.683408,63.9092333 148.683408,66.9656571 C148.683408,69.9272112 153.126264,70.7740025 157.596083,72.1086957 C157.567005,72.0677765 162.24037,66.7076321 162.24037,66.7076321 L160.95565,65.5819653 C160.95565,65.5819653 159.127701,67.6933399 158.946095,67.7042864 C157.654239,67.7720506 155.626973,66.504079 154.526238,65.4954357 C154.464909,65.4375755 154.295728,65.1766835 154.282247,65.00597 C154.246824,64.5378761 154.257134,63.4945688 154.359964,63.1320306 C154.38402,63.0483679 154.553994,62.8919891 154.615322,62.853155 L154.615322,62.853155 Z" id="Fill-6" fill="#FFFFFE"></path>
                        <path d="M70.6034082,55.9474995 L73.8983051,53.5833341 L70.5750354,50.1533953 L66.8053485,52.826664 C66.8053485,51.0073855 64.8770347,49.2936029 63.4662004,48.8586957 L59.1186441,51.8521447 C60.1593296,52.3920205 61.3327689,53.3393746 61.3327689,54.9410676 L61.3296453,67.5169822 C61.2408825,70.4128474 62.7922797,71.0761535 64.80389,72.1086957 L67.979829,68.2852568 C67.3259516,67.7237544 66.9162369,67.2445388 66.8121163,66.3098442 L66.8079515,54.9160123 C66.8469967,54.9218146 68.5189135,53.829931 68.5189135,53.829931 L70.6034082,55.9474995" id="Fill-7" fill="#FFFFFE"></path>
                        <path d="M56.5053906,50.6824316 L50.1499017,50.673141 L47.9275,53.8608801 L50.1522318,53.8608801 L50.1499017,72.5469403 L46.9240017,70.2508337 C46.4377866,69.7523264 46.3549385,69.0990642 46.3440647,68.7916779 L46.3440647,68.6154219 L46.3466537,67.2051081 L46.3507961,67.2051081 L46.3507961,63.2170498 L46.3570097,59.5377049 L46.3650356,59.4878011 L46.3570097,59.4878011 L46.3834175,42.3190294 C47.00918,41.9012177 47.7542956,41.4165136 48.3083426,41.0202029 C49.553395,42.5284662 53.1831797,46.9595537 53.1831797,46.9595537 L57.7750385,43.3378106 C57.7750385,43.3378106 54.0189104,38.6001332 51.5293234,35.7173913 C48.4597994,37.4181028 40.0077344,42.4796242 40.0077344,42.4796242 L40.0077344,42.5520909 L39.972265,42.556338 L39.972265,68.7866345 C39.972265,69.8715116 40.6246942,71.609651 41.2012656,72.3438742 C42.3588096,73.8224075 48.2601871,77.1630435 48.2601871,77.1630435 L56.5292094,71.4689647 L56.5053906,50.6824316" id="Fill-8" fill="#FFFFFE"></path>
                        <path d="M180.235125,43.4673913 L174.682717,47.247224 L174.682717,50.7682037 L172.653313,50.7682037 L172.653313,52.9011733 L174.682717,52.9011733 L174.679548,67.5236011 C174.58633,70.4149598 176.163113,71.0777604 178.202552,72.1086957 L181.425304,68.2912068 C180.76512,67.7305782 180.348412,67.2515817 180.241462,66.3183417 L180.235125,52.9011733 L184.409861,52.9011733 L184.409861,50.7682037 L180.235125,50.7682037 L180.235125,43.4673913" id="Fill-9" fill="#FFFFFE"></path>
                        <path d="M138.609277,71.3569287 C138.229884,71.5664715 136.69832,70.1905004 135.745745,69.2742487 C135.396714,68.883049 135.172828,68.4512156 135.100487,67.8026687 L135.090982,58.5084233 C135.445558,58.1841499 135.946134,57.8343807 135.946134,57.8343807 C136.115897,57.7998553 136.306518,57.8306626 136.537533,57.9621248 C141.477296,60.7948034 142.938368,66.0981748 138.609277,71.3569287 L138.609277,71.3569287 Z M134.964518,53.2579024 L134.964518,53.2568401 L134.967686,42.3109514 L136.238929,41.4565798 C137.735379,43.5801593 139.677754,45.6601835 139.610166,47.7040889 C139.536769,50.127774 137.282854,52.6409596 135.602912,53.666896 C135.601064,53.666896 135.599744,53.6647713 135.599744,53.6647713 C135.540604,53.693454 135.477504,53.7085921 135.407011,53.7085921 C135.163323,53.7085921 134.964518,53.5104692 134.964518,53.2677289 L134.964518,53.2579024 Z M145.224757,44.7773949 C145.224757,39.719154 140.177011,35.7173913 140.177011,35.7173913 L127.642527,42.9093036 C128.439595,44.0712171 128.560515,45.1372561 128.57398,48.393004 L128.57398,51.7717155 L128.568964,67.3588841 C128.567908,67.4932677 128.567908,67.6079984 128.57398,67.7115747 L128.57398,68.7829253 C128.57398,69.8670237 129.239303,71.6063086 129.828854,72.3430281 C131.010331,73.8223099 135.655715,77.1630435 135.655715,77.1630435 C135.655715,77.1630435 146.708799,71.1710226 146.448477,63.047986 C146.448477,56.1431659 141.314926,53.1338765 141.314926,53.1338765 L140.990184,52.9346913 L141.314926,52.6505205 C141.314926,52.6505205 145.224757,49.839885 145.224757,44.7773949 L145.224757,44.7773949 Z" id="Fill-10" fill="#FFFFFE"></path>
                        <path d="M157.199691,56.5603553 C157.248306,55.2133233 156.469982,53.324731 155.430945,51.9269772 C155.180241,51.7383558 154.641181,52.3591687 154.641181,52.3591687 L154.514638,59.7481638 C154.514638,59.7481638 154.700521,59.8752323 154.924772,59.9782609 C156.091067,59.3046128 157.151075,58.1533349 157.199691,56.5603553" id="Fill-11" fill="#C11E43"></path>
                        <path d="M136.806344,58.0963945 C136.576723,57.9659593 136.387253,57.9353308 136.218514,57.9693918 C136.218514,57.9693918 135.720957,58.317395 135.368259,58.6397863 L135.377969,67.8798233 C135.449873,68.524606 135.672409,68.953933 136.019334,69.3431262 C136.966161,70.25406 138.488222,71.6220449 138.865588,71.4134543 C143.168823,66.1852224 141.716304,60.9126321 136.806344,58.0963945" id="Fill-12" fill="#C11E43"></path>
                        <path d="M135.14421,53.576087 C135.215541,53.576087 135.279391,53.5608362 135.339234,53.5327011 C135.339234,53.5327011 135.340303,53.5348046 135.34244,53.5348046 C137.042089,52.5190487 139.323069,50.0310645 139.397339,47.6314298 C139.465731,45.6075433 137.500262,43.5481592 135.98602,41.4456522 L134.699662,42.2915458 L134.696456,53.1288178 L134.696456,53.1395985 C134.696456,53.3799301 134.897625,53.576087 135.14421,53.576087" id="Fill-13" fill="#C11E43"></path>
                        <path d="M81.1848129,68.0623197 C81.572154,68.1426895 83.2728103,66.5274398 83.6380649,66.1721896 L83.6394453,60.0221982 C83.3255417,59.7512446 83.0925297,59.510397 82.6342359,59.7221858 C79.1926155,61.330629 77.8721222,65.5245189 81.1848129,68.0623197" id="Fill-14" fill="#C11E43"></path>
                        <path d="M74.973026,61.633838 C76.6976018,59.4350115 80.9388275,58.1200916 83.2206426,57.8335403 L83.2206426,54.7194367 C83.2206426,53.4076802 82.4246239,52.5406451 81.5602322,51.9701786 C81.4116526,51.9279999 81.2593913,51.9121829 81.098452,51.9279999 C79.7901622,52.0698257 78.1589417,54.2175106 77.6711272,54.9018594 C77.6350999,54.9611732 77.169638,55.5767181 76.4977424,55.5767181 C75.7411696,55.5767181 75.1289689,54.961964 75.1289689,54.2056479 C75.1289689,53.4622489 75.5641889,53.1493359 75.8179577,53.0064557 C76.0730413,52.8630482 78.7285409,51.3121914 78.7285409,51.3121914 C78.7285409,51.3121914 82.027009,49.3753999 83.2535142,48.7643364 C83.2924342,48.7450924 83.3318801,48.7382384 83.3705372,48.7274301 C83.7510588,48.5863952 84.4839641,48.4110901 85.3567709,48.6517721 C85.3633452,48.6483451 85.3699195,48.6433364 85.3767568,48.6399094 C85.4280365,48.6573081 85.4837868,48.6781338 85.5376962,48.6992231 C85.5413778,48.700014 85.5466373,48.700014 85.5511078,48.7026501 L85.5521597,48.7026501 C86.8391487,49.190341 88.8266973,50.741725 88.7512241,52.8440678 L88.7551687,66.0828963 C88.8653543,67.0171538 89.2797995,67.4964089 89.9356537,68.0576487 L86.7308039,71.8792994 C84.9680971,70.9830028 83.55567,70.3637672 83.2713964,68.324956 C81.7553581,69.7139522 80.6374606,70.7800179 79.1713871,71.9454672 C74.3266388,70.9437239 71.9872325,65.4341357 74.973026,61.633838 L74.973026,61.633838 Z M66.7027937,66.0828963 C66.8085087,67.0171538 67.221902,67.4964089 67.8830157,68.0576487 L64.6739583,71.8792994 C62.6417044,70.8472402 61.0743863,70.1839807 61.164323,67.2894698 L61.1672157,54.7194367 C61.1672157,53.1187564 59.9819972,52.1715817 58.9308948,51.6319584 L63.322541,48.6399094 C64.7481167,49.0746132 66.6959564,50.7875943 66.6959564,52.606022 L70.5043288,49.9340035 L73.8619658,53.3623382 L70.5332558,55.7253979 L68.4271065,53.6088197 C68.4271065,53.6088197 66.738558,54.7004563 66.6988491,54.6943931 L66.7027937,66.0828963 Z M91.2452583,42.6621381 L95.0854505,39.3329233 C95.0854505,39.3329233 96.2293823,40.068941 97.0309234,40.984218 C97.9705253,42.0547653 98.4099529,43.1830446 98.4099529,43.1830446 L94.5689719,46.3572527 C94.5689719,46.3572527 94.0819462,45.6362612 93.1115765,44.5280168 C92.3234469,43.6306657 91.2452583,42.6621381 91.2452583,42.6621381 L91.2452583,42.6621381 Z M91.1250798,51.6319584 L95.5151481,48.6399094 C96.7863587,49.0445609 98.9687702,50.646823 98.8898783,52.8440678 L98.8940859,66.0828963 C99.0016418,67.0171538 99.4176648,67.4964089 100.075097,68.0576487 L96.8657765,71.8792994 C94.8343114,70.8472402 93.2672564,70.1839807 93.3561412,67.2894698 L93.3611377,54.7194367 C93.3611377,53.1187564 92.1748673,52.172109 91.1250798,51.6319584 L91.1250798,51.6319584 Z M110.368642,53.7983601 L108.975149,54.7218093 L108.972519,54.7202276 L108.976201,66.0828963 C109.083757,67.0171538 109.499517,67.4964089 110.155371,68.0576487 L106.948155,71.8792994 C104.919845,70.8472402 103.351212,70.1839807 103.440623,67.2894698 L103.440623,54.7194367 C103.440623,53.1187564 102.258823,52.172109 101.207195,51.6319584 L105.595948,48.6399094 C106.812987,49.0295348 108.865752,50.5155419 108.964893,52.5738608 C108.96726,52.5704337 114.709009,48.5639878 114.741091,48.5787096 C115.094264,48.7416654 118.069801,50.0845287 118.069801,52.8440678 C118.069801,55.6025525 118.075061,66.0828963 118.075061,66.0828963 C118.179198,67.0171538 118.593906,67.4964089 119.25239,68.0576487 L116.047014,71.8792994 C114.012656,70.8472402 112.44639,70.1839807 112.536327,67.2894698 L112.53922,57.0258189 C112.53922,55.4580906 111.40607,54.3424649 110.368642,53.7983601 L110.368642,53.7983601 Z M170.360369,41.8014297 L170.367733,66.0828963 C170.470555,67.0171538 170.886841,67.4964089 171.545062,68.0576487 L168.338634,71.8792994 C166.30375,70.8472402 164.737221,70.1839807 164.829262,67.2894698 L164.829262,43.6794347 C164.829262,42.0750638 163.645095,41.1302617 162.59373,40.5916928 L166.985113,37.5983257 C168.255798,38.0042954 170.436894,39.6041848 170.360369,41.8014297 L170.360369,41.8014297 Z M154.372148,64.823336 C154.385296,64.9960049 154.553862,65.2596215 154.614871,65.318408 C155.70989,66.3386045 157.726629,67.6210995 159.011777,67.5522956 C159.192439,67.5412237 161.010896,65.4059288 161.010896,65.4059288 L162.288944,66.5444891 C162.288944,66.5444891 157.639585,71.965502 157.668775,72.0074171 C153.222167,70.6571726 148.802383,69.8009457 148.802383,66.805206 C148.802383,63.7140371 148.847877,59.4597914 148.910202,55.6355046 C148.851822,54.3904431 148.692986,53.7915061 148.254348,53.1561899 L158.323314,47.4686606 C161.659124,50.2608882 162.561384,53.5937936 162.221886,56.0269753 C161.77904,59.1590048 157.063937,61.0580992 154.70323,62.6455987 C154.642484,62.684614 154.473129,62.8430476 154.449462,62.9276686 C154.347165,63.2943593 154.336909,64.3498804 154.372148,64.823336 L154.372148,64.823336 Z M141.083079,53.0502161 C141.083079,53.0502161 146.196322,56.0372564 146.196322,62.8910259 C146.455614,70.9537413 135.446256,76.9017239 135.446256,76.9017239 C135.446256,76.9017239 130.81925,73.5854264 129.642446,72.1173452 C129.055228,71.385809 128.392536,69.6591199 128.392536,68.5830367 L128.392536,67.5201344 C128.386488,67.4173239 128.386488,67.3031778 128.38754,67.1700514 L128.392536,51.6981262 L128.392536,48.3441315 C128.378862,45.1127185 128.25842,44.0545612 127.464768,42.9012384 L139.949666,35.7619721 C139.949666,35.7619721 144.977443,39.7346751 144.977443,44.7555179 C144.977443,49.780315 141.083079,52.5704337 141.083079,52.5704337 L140.759622,52.8525036 L141.083079,53.0502161 Z M184.053101,52.6508368 L179.895501,52.6508368 L179.901812,66.0828963 C180.008316,67.0171538 180.423287,67.4964089 181.080719,68.0576487 L177.871399,71.8792994 C175.84046,70.8472402 174.270249,70.1839807 174.363079,67.2894698 L174.366234,52.6508368 L172.345288,52.6508368 L172.345288,50.5155419 L174.366234,50.5155419 L174.366234,46.9907236 L179.895501,43.2070337 L179.895501,50.5155419 L184.053101,50.5155419 L184.053101,52.6508368 Z M40.9735326,72.1207723 C40.3876292,71.3916086 39.7249377,69.6651831 39.7249377,68.5877818 L39.7249377,42.5379746 L39.7614909,42.5340204 L39.7614909,42.4617894 C39.7614909,42.4617894 48.3465017,37.4354106 51.4640445,35.7464187 C53.9927912,38.6095592 57.8080009,43.3143257 57.8080009,43.3143257 L53.1441779,46.9108477 C53.1441779,46.9108477 49.4567729,42.5105585 48.1926626,41.012425 C47.6293748,41.4062683 46.872802,41.8878959 46.2371967,42.3025649 L46.2103734,59.3532903 L46.2185256,59.3532903 L46.2103734,59.4028503 L46.2043251,63.0563135 L46.2043251,67.0171538 L46.1998545,67.0171538 L46.1974878,68.4174855 L46.1974878,68.5927905 C46.2082697,68.8983222 46.292421,69.5470828 46.7862839,70.0418913 L50.0629253,72.3221754 L50.065555,53.7648808 L47.8053036,53.7648808 L50.0629253,50.599372 L56.5183822,50.608335 L56.5425757,71.2513645 L48.1437496,76.906469 C48.1437496,76.906469 42.1495471,73.589117 40.9735326,72.1207723 L40.9735326,72.1207723 Z M218,57.0983134 L109.086913,0 L0,57.0983134 L109.086913,114.228261 L218,57.0983134 L218,57.0983134 Z" id="Fill-15" fill="#D40032"></path>
                        <g id="Group-5" transform="translate(2.015408, 119.956522)" fill="#000000">
                            <path d="M23.2030926,5.33071363 C23.4090545,5.19427429 23.5130971,5.05835871 23.5130971,4.95596374 C23.5130971,4.78443252 23.304481,4.7173913 22.9270611,4.7173913 C19.6343248,4.7173913 15.2029589,10.7634086 12.5387249,15.0317864 C10.1157529,18.9594585 7.45019181,23.8830593 3.81241621,25.897962 C1.2540827,27.332801 5.40623224,27.7387146 9.25023516,24.3232792 C11.8125499,22.0357597 14.0271712,19.0995642 15.8617185,15.9892186 C18.5272796,11.4806972 20.5370006,6.527504 23.2030926,5.33071363" id="Fill-16"></path>
                            <path d="M37.889027,1.49760768 C38.7462199,1.5335185 40.3216794,1.60035981 40.3216794,2.62735686 C40.3216794,3.13954477 39.8416094,3.89026442 37.9242182,3.89026442 C36.1068853,3.89026442 34.2927038,3.61608399 32.5436523,3.20743457 C34.1910698,2.14872066 36.004726,1.49760768 37.889027,1.49760768 M38.1805356,15.592736 C37.9491671,15.592736 37.5686302,15.5227492 37.3419888,15.5804162 C37.1127213,15.642015 36.8968473,15.9175061 37.2161937,16.2357231 C37.5305502,16.5494841 38.0791642,16.6050541 38.6311922,16.5969283 C41.7093654,16.5597069 44.3389831,13.9445079 44.3389831,12.5411025 C44.3389831,11.2087325 43.138808,10.5264269 41.666033,10.5264269 C38.9240139,10.5264269 35.3980729,13.43232 33.6138302,16.4753034 C33.3921786,16.8556435 33.1978396,17.2412261 33.0339645,17.6236633 C31.6184407,19.4021663 29.815552,21.3623205 28.9483795,21.3623205 C28.4010787,21.3623205 28.1269031,21.0556368 28.1269031,20.509373 C28.1269031,18.662718 31.8243351,14.9030909 31.8243351,12.3722955 C31.8243351,11.2779329 31.0388376,10.4577507 29.5978397,10.4577507 C27.8175363,10.4577507 26.1388669,11.6194788 24.8693601,12.8158072 L25.1458994,12.2682327 C26.5498678,9.32931211 28.4688348,6.59248816 30.7281577,4.61188843 C33.2296166,5.12302785 36.0325637,5.53062878 37.9460157,5.52564845 C40.6013701,5.52040599 43.1648074,4.5183106 43.1648074,2.86588859 C43.1648074,0.745315295 40.687247,0.20665298 38.9518516,0.165499704 C36.1825199,0.0965614126 33.1608101,1.19092402 30.7982773,2.79878516 C26.2783184,1.56628384 22.1086949,0.18489679 18.652611,0.0347004363 C4.94041419,-0.557959171 1.0658141e-13,6.55736371 1.0658141e-13,12.4753097 C1.0658141e-13,14.9363805 1.57624739,16.6464695 3.76860215,16.6464695 C4.7276917,16.6464695 5.6177121,16.1646879 5.6177121,15.584348 C5.6177121,14.7314005 3.46133633,15.0393948 3.46133633,11.7211825 C3.83819655,7.07191073 7.81426878,2.06955958 16.444499,1.85776438 C20.004318,1.77047749 22.8886774,2.57047622 28.913451,4.19694807 C26.036445,6.66142645 23.6715487,9.94399004 22.1323307,13.1581396 L17.4705568,22.8008503 C17.2662381,23.2448863 17.3691853,23.4160525 17.8482048,23.4160525 L19.0473294,23.4160525 C19.5268742,23.4160525 19.8346652,23.2448863 20.0416101,22.8008503 L23.2957389,16.0967981 C24.6309008,14.0483085 26.8600224,12.2682327 28.4331184,12.2682327 C28.913451,12.2682327 29.1526982,12.4753097 29.1526982,12.8158072 C29.1526982,14.6624622 25.4526399,18.2857854 25.4526399,21.4999349 C25.4526399,22.6278493 25.9673758,23.5188046 27.2683971,23.5188046 C28.9032088,23.5188046 30.9498093,21.564155 32.4659166,19.798496 C32.458038,19.8994132 32.4491089,20.0003305 32.4491089,20.0986266 C32.4491089,22.1177583 33.8554409,23.5869565 36.0147055,23.5869565 C38.1805356,23.5869565 40.8201329,22.2202483 42.7703516,20.1730694 C43.2278363,19.6915499 43.229412,19.4745122 43.1427473,19.337422 C43.032972,19.1638967 42.6918282,19.179362 42.0857004,19.5271989 C40.2171565,20.6008538 38.5516182,21.1235266 37.4520268,21.1235266 C36.1851461,21.1235266 35.3636697,20.4404347 35.3636697,19.0732022 C35.3636697,16.2684885 38.9240139,11.6194788 41.3241013,11.6194788 C41.7689802,11.6194788 42.3853502,11.7898587 42.3853502,12.5411025 C42.3853502,13.3290436 41.0239263,15.592736 38.1805356,15.592736" id="Fill-17"></path>
                            <path d="M170.521054,13.6807949 C170.074518,13.7035231 169.524692,13.6784163 169.487634,13.4426764 C169.448473,13.2042937 169.943632,12.8776406 170.276629,12.7988845 C171.021469,12.6183796 171.425953,12.6963429 172.164223,13.0956736 C171.838585,13.3430419 171.066937,13.6535738 170.521054,13.6807949 M179.707242,7.40408779 C179.707242,4.68594327 178.034374,2.9929502 173.91515,3.29898922 C171.510582,3.47870125 169.741258,4.73906403 168.709941,5.48777608 C168.568542,5.59375333 168.433451,5.70158055 168.311501,5.81125774 L169.665302,3.55137892 C169.945734,2.98581457 169.821682,2.76064597 169.20799,2.74108907 L167.755631,2.69668962 C167.139574,2.6789827 166.740608,2.88618011 166.45676,3.45359443 L164.46903,7.2056117 L164.46903,7.20693311 C163.646657,8.75139948 161.764056,9.90684214 160.248881,10.1061111 C158.221465,10.2057455 157.519202,8.70356436 157.567562,7.67233442 C157.641152,6.26159496 158.402287,5.35748486 159.130307,5.08527398 C159.770018,4.82416297 160.364523,4.77421359 160.364523,4.3986683 C160.364523,4.2559558 160.30644,4.11271474 160.206304,3.98585919 C159.899064,3.60106401 159.196538,3.33043883 158.479557,3.33043883 C156.318364,3.33043883 154.976127,5.01814625 154.976127,7.43157316 C154.976127,11.7721473 160.47964,12.2988622 162.229515,11.0205282 C161.813466,11.6537488 160.935901,13.015596 160.578724,13.5999244 C158.180202,17.5644248 155.53778,22.5287054 151.938157,24.5620942 C149.402703,26.0100975 153.51562,26.4247566 157.321296,22.9766641 C159.860955,20.6668359 162.05211,17.7013231 163.869268,14.5658766 C164.90847,12.7719277 165.846222,10.9153438 166.764,9.24111477 C168.135147,7.29916767 168.876833,6.57080537 170.688209,5.65189545 C172.735863,4.61537987 175.395631,4.2469702 176.445346,5.19336548 C177.16259,5.83451459 177.331585,6.43284995 177.298469,7.47491547 C177.23145,9.37061315 175.72048,11.550943 173.288054,12.4957526 C172.065139,11.9420809 171.442511,11.6870484 170.125242,11.7903828 C169.241895,11.858832 167.778233,12.5332807 167.910171,13.5499751 C168.029755,14.4778706 169.027168,14.8214377 170.293186,14.8032022 C171.345267,14.7886667 172.098517,14.3695148 173.028911,13.8560141 C174.120151,14.5500197 175.144635,15.8204252 175.144635,17.3862984 C175.144635,18.9503217 174.835293,20.90839 172.955846,22.6888606 C171.927157,23.6593055 169.737316,24.7053353 167.552206,24.6553859 C165.884068,24.6387361 164.316329,23.9227951 164.12736,22.1452317 C164.034583,21.2619999 164.289259,20.6306292 164.785731,19.9152167 C165.258024,19.3536166 165.96055,18.8940295 166.786865,18.9408075 C167.744329,18.9957783 168.204269,19.3454239 168.578529,19.9152167 C168.803506,20.2508554 169.473179,20.064272 169.235587,19.4191587 C169.073162,18.9738428 168.826109,18.62869 168.2797,18.2975442 C166.878853,17.4481405 165.255133,17.6640592 163.794363,18.8195019 C162.329388,19.9728303 161.912551,21.6658234 162.229515,23.1265122 C162.660545,25.1242229 165.080619,26.3917213 167.002643,26.5582192 C168.274443,26.6676321 170.109473,26.703046 172.063562,26.0238402 C173.811072,25.3792554 175.224271,24.2246056 176.205126,23.0184207 C177.099775,21.9168917 177.75289,20.4202604 177.835942,18.6014689 C177.923725,16.6782859 176.823286,14.5146058 174.974589,13.3430419 C178.119003,12.1693638 179.707242,9.84870001 179.707242,7.40408779" id="Fill-18"></path>
                            <path d="M82.7309223,2.36780105 C84.341468,2.36780105 85.2663957,2.79999886 85.2968676,3.42024618 C85.3281276,4.10001617 84.7123848,4.46637031 82.9295151,4.46637031 C81.593742,4.46637031 79.6443275,4.10449353 77.9977934,3.59222983 C79.3017812,2.90324172 81.1894637,2.36780105 82.7309223,2.36780105 M72.6163483,13.6863269 L69.4987562,13.9128291 C71.691946,10.1694851 73.9521214,6.87282456 76.5913569,4.77451866 C79.161768,5.42979481 81.1920906,5.94363877 83.2465806,5.94363877 C86.6730948,5.94363877 87.6702619,4.43344848 87.6702619,3.57326685 C87.6702619,1.44361937 84.4812185,1.06541337 83.1443946,1.06541337 C80.3682982,1.10070557 78.4761499,1.75255785 76.4542333,2.85372729 C72.95942,1.5202614 66.863461,-0.271213019 60.5410642,0.540244299 C56.0564391,1.1138743 52.9856056,4.09869929 52.4962162,6.85017433 C52.3719643,7.46225704 52.3060294,8.07196937 52.3060294,8.67167346 C52.3060294,11.0686462 53.8382939,12.735281 55.9637099,12.735281 C56.8952048,12.735281 57.7594513,12.2670009 57.7594513,11.702589 C57.7594513,10.869535 55.6642445,11.1692553 55.6642445,7.93791167 C55.6642445,5.65313652 57.0932722,4.20510265 57.8190817,3.6538595 C58.7487378,2.95091254 59.9718173,2.43496158 61.49121,2.22320836 C66.1633951,1.57003921 71.4938785,3.20533245 74.6133094,4.02811488 C71.2540436,6.50357329 68.299844,10.3414688 66.0706659,13.9128291 L63.4193467,14.1040391 C62.5290939,14.1040391 61.9469753,15.4095873 62.8711149,15.4095873 L65.3172741,15.2194308 C65.2505511,15.3919412 62.9218139,19.2466927 61.6283336,21.0487021 C60.5875602,22.4969993 59.7419645,23.7964899 58.4873623,24.8160132 C57.5571808,25.5692647 56.9721726,25.8774131 55.8780733,25.8774131 C54.9006078,25.8774131 54.0274299,25.3377584 53.8159653,24.3619553 C53.6670207,23.6756009 53.7720963,22.7429913 54.2202435,22.205707 C54.539936,21.8248672 55.0054207,21.4363896 55.6574146,21.192768 C56.3981973,20.9151711 56.1292039,20.2601584 55.3766002,20.3178374 C54.6631371,20.3734095 54.0933648,20.6736566 53.5716646,21.0455416 C52.2745068,21.9802583 51.9498233,23.4335596 52.0977171,24.5976756 C52.2716172,25.9643267 53.5514376,27.6304348 55.8426103,27.6304348 C57.999549,27.6304348 59.471395,27.0557513 61.4804398,25.0978241 C64.0437582,22.6002422 66.7402599,18.5711367 67.5448761,17.1897366 C68.3497549,15.8083365 68.7792513,15.2194308 68.7792513,15.2194308 L72.1366783,14.9918751 C73.0954929,14.9918751 73.5754255,13.6863269 72.6163483,13.6863269" id="Fill-19"></path>
                            <path d="M132.126995,32.8933365 C131.408177,32.8933365 131.163653,32.5811205 131.163653,32.0936486 C131.163653,30.3937468 134.431005,28.7975624 138.554193,26.5091308 C136.869926,29.4235901 134.398068,32.8933365 132.126995,32.8933365 M117.753279,21.4091594 C116.998362,21.4091594 116.515374,20.7514846 116.515374,19.849675 C116.515374,17.3881151 120.227244,11.8698168 122.770246,11.8698168 C123.698016,11.8698168 123.975214,12.6349322 123.975214,13.4657353 C123.975214,16.7267171 119.679172,21.4091594 117.753279,21.4091594 M137.797169,4.7311334 C138.367374,3.89713902 138.930993,3.25089975 139.452452,3.35541499 C140.025292,3.47030197 139.572342,4.61385294 138.542072,6.35710331 C137.359765,8.36363635 136.635941,9.29895466 133.774373,12.7601909 C135.214116,9.84785913 136.555311,6.54751785 137.797169,4.7311334 M148.660852,16.6932084 C147.320711,18.8425523 145.36188,20.5764947 143.196996,22.0686958 L143.98643,20.2653425 L144.742401,18.7037306 L148.350717,11.5222305 C148.557298,11.0714587 148.452954,10.8977985 147.972073,10.8977985 L146.838776,10.8977985 C146.357896,10.8977985 146.048551,11.0714587 145.843551,11.5222305 L143.366687,16.7267171 C142.40519,18.7726096 139.415035,21.4091594 138.383711,21.4091594 C137.591642,21.4091594 137.145016,20.8216933 137.69625,19.6409105 L141.581764,11.5222305 C141.786501,11.0714587 141.684264,10.8977985 141.204174,10.8977985 L140.067715,10.8977985 C139.584727,10.8977985 139.276436,11.0714587 139.07249,11.5222305 L136.489174,16.9362795 C135.506597,18.6555951 132.532252,21.4447957 131.510414,21.4447957 C130.719135,21.4447957 130.445362,20.6804781 130.927033,19.6765467 L132.43792,16.0943068 C135.100285,13.4330244 137.072554,11.22145 138.619804,8.99498286 C139.756263,7.35332236 140.724348,5.71192781 141.256083,3.87506583 C141.766739,2.10867849 140.588911,0.991987677 139.179997,1.0483674 C135.950588,1.17894496 134.2015,6.49299972 131.302779,12.3751068 L129.515484,16.8886758 C128.75846,18.3611972 125.817842,21.4091594 124.79943,21.4091594 C124.317232,21.4091594 123.871923,20.9248789 124.49193,19.6409105 L133.184668,1.63716318 C133.393621,1.1861254 133.291384,1.01086957 132.808396,1.01086957 L131.672727,1.01086957 C131.189739,1.01086957 130.883556,1.1861254 130.678029,1.63716318 L125.281364,12.667909 C125.075574,11.3831428 123.906705,10.6576528 122.669854,10.6576528 C119.013054,10.6576528 114.605026,15.616143 113.769217,19.2880053 C112.722873,20.5823455 111.657558,21.6514327 111.016472,21.6514327 C110.463921,21.6514327 110.190939,21.3402804 110.190939,20.7860571 C110.190939,18.9124951 113.661974,15.0962262 113.661974,12.5304169 C113.661974,11.4198428 112.802449,10.587976 111.326607,10.587976 C109.33036,10.587976 107.543593,12.0097023 106.272223,13.3277113 L107.167056,11.5222305 C107.373901,11.0714587 107.270347,10.8977985 106.788412,10.8977985 L105.756561,10.8977985 C105.276471,10.8977985 104.965019,11.0714587 104.758438,11.5222305 L102.285526,16.67672 C100.181773,20.446715 96.3811042,21.4091594 94.6623187,21.4091594 C93.3906862,21.4091594 92.5662067,20.7161143 92.5662067,19.3289604 C92.5662067,16.4833801 96.1400053,11.7666313 98.5457253,11.7666313 C98.9944593,11.7666313 99.6120943,11.9394936 99.6120943,12.7038112 C99.6120943,13.5011056 98.2469206,15.8892655 95.3945746,15.8892655 C95.161644,15.8892655 94.7801015,15.8195887 94.5505964,15.8791597 C94.3229357,15.9397945 94.1047608,16.2214272 94.4264897,16.5448127 C94.7387326,16.8615498 95.2796903,16.8748469 95.8338227,16.869794 C98.9212073,16.8301686 101.571715,14.1255376 101.571715,12.7038112 C101.571715,11.3499 100.368065,10.6576528 98.8890608,10.6576528 C96.1400053,10.6576528 92.5996707,13.6058867 90.8144842,16.6932084 C90.58129,17.0929194 90.3820869,17.4974173 90.2131859,17.8979261 C88.8891176,19.6276134 87.3352807,21.4091594 86.4736483,21.4091594 C85.6836867,21.4091594 85.2383782,20.8216933 85.7859232,19.6409105 L90.3138414,11.5076037 C90.519105,11.0565659 90.4158145,10.8842354 89.9341435,10.8842354 L88.7094133,10.8842354 C88.2269518,10.8842354 87.9191882,11.0565659 87.7126072,11.5076037 L84.7074334,16.6682099 C84.7005825,16.6788475 84.6924141,16.6852301 84.6871442,16.6932084 C83.2434487,18.669424 80.8725102,21.5838834 79.8056142,21.5838834 C79.2575421,21.5838834 78.9803442,21.2714014 78.9803442,20.7161143 C78.9803442,19.3042278 81.1750038,16.8216584 82.2492777,14.5853514 C82.2492777,14.5845536 82.2503316,14.5845536 82.2503316,14.5845536 C82.9646698,13.2862244 82.9275168,12.5421184 82.9275168,12.5421184 C82.9275168,11.3780899 82.0621954,10.5031404 80.5136284,10.5031404 C80.0812312,10.5031404 79.5779535,10.6536636 79.2119573,10.7307869 C79.0377863,10.7579129 78.783249,10.7927514 78.5339817,10.8044528 C78.5197529,10.8044528 78.5018351,10.8060485 78.4876063,10.8060485 L78.3255562,10.8060485 C78.3163338,10.8060485 78.3076384,10.8060485 78.2992066,10.8044528 C78.1181847,10.7975383 77.957979,10.7682847 77.8607489,10.7028629 C77.5666872,10.5140441 77.4394186,10.1778933 77.5205754,9.75185404 C77.5653697,9.53457935 77.687632,9.38432207 77.8328183,9.31783655 C78.0754983,9.2372561 78.3774649,9.35719598 78.4646822,9.77259752 C78.5395151,10.1255027 78.7289688,10.2821426 78.9012953,10.2613991 C79.1276385,10.2422512 79.3263146,9.92391856 79.2069509,9.33618656 C79.1105113,8.87185167 78.886276,8.5952719 78.6080241,8.36682765 C78.4017066,8.19662472 78.1405819,8.06923846 77.8011988,8.06498339 C77.5988337,8.06205802 77.3690651,8.10381093 77.1058324,8.209124 C76.2333966,8.5567103 75.7185251,9.38219454 75.9063978,10.4927687 C75.9219441,10.5887738 75.9517192,10.6810557 75.9849197,10.7682847 C76.1435444,11.2666602 76.4934673,11.6557334 76.9743478,11.9261965 C76.5198169,12.8186982 75.7064042,14.362492 74.9272461,15.5116277 C73.7744503,17.2152527 71.8477663,19.7135127 71.1297393,20.4416621 C70.4111852,21.1679499 71.3629334,21.7413211 72.1410376,21.1336434 C72.3549965,20.9668977 72.7341674,20.6014933 73.1897523,20.1243932 C74.2368861,19.032435 75.5870405,17.3532767 76.3704146,16.1214329 C77.2992386,14.6638044 78.2262181,13.1152236 78.680749,12.2338915 C78.921321,12.2338915 79.2588596,12.1987872 79.4960062,12.1987872 C80.0759612,12.1987872 80.2140332,12.4030307 80.2182492,12.7099279 C80.2071823,14.5853514 76.2655431,18.5324639 76.2655431,21.7910523 C76.2655431,22.935401 76.7809416,23.8393382 78.0863017,23.8393382 C79.6195859,23.8393382 81.467748,22.15034 82.9196119,20.4783621 C82.3367584,22.1306603 82.7820669,23.8393382 84.6528897,23.8393382 C86.2446701,23.8393382 88.1926973,21.9290762 89.6548375,20.1650823 C89.6498311,20.2318338 89.6458786,20.3025744 89.6458786,20.3693259 C89.6458786,22.4157502 91.0526847,23.9082172 93.2194137,23.9082172 C95.3964191,23.9082172 98.1257124,22.6832879 100.347249,20.7068064 L99.1910274,23.1106569 C98.9852369,23.5606309 99.0874734,23.734823 99.5696714,23.734823 L100.773322,23.734823 C101.253412,23.734823 101.563547,23.5606309 101.768283,23.1106569 L104.793746,16.7966599 C106.138104,14.5406732 108.437899,12.4248379 110.15484,12.4248379 C110.636774,12.4248379 110.87761,12.6349322 110.87761,12.980391 C110.87761,14.8539529 107.407892,18.5300704 107.407892,21.7910523 C107.407892,22.935401 107.922763,23.8393382 109.227333,23.8393382 C110.741382,23.8393382 112.338959,22.563614 113.67831,21.103592 C113.898593,22.632493 114.892764,23.9082172 116.515374,23.9082172 C118.304513,23.9082172 120.056235,22.2763966 121.707302,20.2318338 C120.916814,21.6886645 121.190059,23.9082172 122.770246,23.9082172 C124.518279,23.9082172 126.540085,22.2362393 128.060195,20.506286 C127.478132,22.1564567 127.921859,23.872581 129.792419,23.872581 C131.388415,23.872581 133.244745,22.4178777 134.723749,20.8246187 C134.318229,22.3601683 134.823088,23.8393382 136.561635,23.8393382 C138.312304,23.8393382 140.034515,22.4511205 141.441848,20.8562658 L139.793416,24.1502245 C134.088724,27.3090846 128.898113,29.2850343 128.898113,32.5457502 C128.898113,33.9693382 129.826937,35.0434783 131.646905,35.0434783 C135.910009,35.0434783 139.756263,29.0084545 142.094528,24.3236187 C144.880736,22.5218611 147.5626,20.2318338 149.348577,17.2466339 C149.762266,16.5557164 149.072433,16.0347358 148.660852,16.6932084" id="Fill-20"></path>
                            <path d="M212.742439,16.8412999 C211.227689,18.8935325 208.742067,21.9196346 207.625617,21.9196346 C207.049623,21.9196346 206.761889,21.5953624 206.761889,21.0186737 C206.761889,19.0735668 210.798852,15.1841425 210.798852,12.5175825 C210.798852,11.3655212 209.931175,10.499567 208.382466,10.499567 C207.941256,10.499567 207.422387,10.6567021 207.055414,10.7290843 C206.981441,10.7417183 206.892198,10.7554051 206.797428,10.7664599 C206.789004,10.7664599 206.775578,10.7683023 206.767154,10.7683023 C206.763205,10.7683023 206.761889,10.770408 206.758203,10.770408 C206.385702,10.8117316 205.930014,10.8293666 205.734155,10.6972362 C205.441682,10.5103585 205.312425,10.1776636 205.39298,9.75600445 C205.51276,9.17931577 206.199847,9.07824391 206.348847,9.77653467 C206.518381,10.5735284 207.288129,10.3611196 207.078317,9.34434718 C206.98223,8.88504926 206.758203,8.61131296 206.480999,8.38521731 C206.152461,8.1175348 205.685453,7.95408265 204.991522,8.22913498 C204.120159,8.57314781 203.553905,9.40383218 203.740813,10.500883 C203.861909,10.9459677 204.157277,11.6726849 205.06102,12.0164345 C204.055136,14.1123597 203.141653,15.3139041 202.421659,16.3451529 C199.967628,19.858453 196.924439,21.2934628 195.206196,21.2934628 C193.938376,21.2934628 193.112819,20.6075429 193.112819,19.2346501 C193.112819,16.4180615 196.683827,11.7500681 199.088104,11.7500681 C199.536422,11.7500681 200.151114,11.9190476 200.151114,12.677613 C200.151114,13.4667105 198.788524,15.7397746 195.937509,15.7397746 C195.705321,15.7397746 195.325975,15.669498 195.096683,15.7284566 C194.867128,15.787152 194.648366,16.0658892 194.970586,16.3851605 C195.283855,16.7004837 195.83642,16.7562838 196.3853,16.7481243 C199.474294,16.7107488 202.108127,14.0847228 202.108127,12.677613 C202.108127,11.3376212 200.907699,10.6524908 199.431911,10.6524908 C196.683827,10.6524908 193.145989,13.5704144 191.361406,16.6259958 C191.347454,16.6478421 191.336661,16.6694251 191.325077,16.692061 C188.722309,20.0550693 185.754937,21.3166252 184.04696,21.3166252 C182.775981,21.3166252 181.95253,20.6280731 181.95253,19.2562331 C181.95253,16.4399078 185.521696,11.7705983 187.925446,11.7705983 C188.372184,11.7705983 188.993195,11.9429995 188.993195,12.6970904 C188.993195,13.4875039 187.629025,15.8532172 184.779589,15.8532172 C184.547401,15.8532172 184.166476,15.7810982 183.937447,15.8421625 C183.704733,15.9029635 183.491236,16.1798583 183.809244,16.500972 C184.123566,16.8141895 184.661653,16.8255075 185.214481,16.8202433 C188.301896,16.7833942 190.949154,14.1065691 190.949154,12.6970904 C190.949154,11.3573618 189.749517,10.6711786 188.269779,10.6711786 C185.521696,10.6711786 181.984384,13.5885758 180.200064,16.6454732 C179.479281,17.8825507 179.035439,19.1506867 179.035439,20.2853763 C179.035439,22.3099721 180.440676,23.7873584 182.603552,23.7873584 C185.102073,23.7873584 188.082871,21.8351449 190.267332,19.4567976 C190.218631,19.7315867 190.193885,20.0019013 190.193885,20.2643197 C190.193885,22.289705 191.602018,23.7668282 193.76384,23.7668282 C197.026844,23.7668282 201.028532,20.6404439 203.456765,17.1737316 C204.295748,15.9761353 205.337171,14.4379479 206.538915,12.2104188 L206.557606,12.2125245 C206.792953,12.2125245 207.139392,12.177781 207.381057,12.177781 C207.52058,12.177781 207.632199,12.1888358 207.725126,12.2125245 C207.981534,12.295435 208.057877,12.4688891 208.057877,12.6970904 C208.057877,13.352215 207.587446,14.2550184 206.96275,15.2912682 C206.667908,15.7768869 206.341476,16.2914585 206.016887,16.8255075 C204.973357,18.5303055 203.916665,20.4259294 203.916665,22.1344123 C203.916665,23.3225331 204.456594,24.2608696 205.826556,24.2608696 C208.993999,24.2608696 213.462695,17.4164094 213.462695,17.4164094 C213.965243,16.6259958 213.246039,16.1922291 212.742439,16.8412999" id="Fill-21"></path>
                            <path d="M89.4646149,6.41991671 C89.1482362,7.37228724 89.4958413,8.08695652 90.380104,8.08695652 C91.2638826,8.08695652 92.2754714,7.37228724 92.5903977,6.41991671 C92.9372766,5.46519786 92.4952663,4.7173913 91.6119718,4.7173913 C90.7267408,4.7173913 89.8114938,5.46519786 89.4646149,6.41991671" id="Fill-22"></path>
                        </g>
                    </g>
                </g>
            </g>
        </g>
    </g>
</svg>