<?xml version="1.0" encoding="utf-8"?>
<!-- Generator: Adobe Illustrator 15.0.0, SVG Export Plug-In . SVG Version: 6.00 Build 0)  -->
<!DOCTYPE svg PUBLIC "-//W3C//DTD SVG 1.1//EN" "http://www.w3.org/Graphics/SVG/1.1/DTD/svg11.dtd">
<svg version="1.1" id="Layer_1"
	 xmlns="http://www.w3.org/2000/svg" xmlns:xlink="http://www.w3.org/1999/xlink" x="0px" y="0px" width="612px" height="485px"
	 viewBox="0 0 612 485" enable-background="new 0 0 612 485" xml:space="preserve">
<switch>
	<g>
		<g>
			<defs>
				<rect id="SVGID_1_" y="-119" width="612" height="792"/>
			</defs>
			<clipPath id="SVGID_2_">
				<use xlink:href="#SVGID_1_"  overflow="visible"/>
			</clipPath>
			<path clip-path="url(#SVGID_2_)" fill="#CEA052" d="M303.936,457.195c-0.257-0.646-0.673-1.168-1.458-0.947
				c-0.674,0.189-0.709,0.828-0.64,1.373c0.151,1.19,0.48,2.364,0.564,3.557c0.197,2.766-1.099,4.321-3.874,4.362h-16.94
				c-1.296,0-2.45-0.283-2.585-2.592v-9.981c0.019-1.245,1.187-2.036,2.433-1.877h6.914c2.728,0.029,4.991,0.653,5.607,3.787
				c0.164,0.836,0.657,1.381,1.571,1.115c0.975-0.285,0.871-1.141,0.68-1.846l-2.663-13.05c-0.225-1.012-0.567-1.831-1.753-1.719
				c-1.22,0.115-1.002,1.093-0.997,1.918c0.017,2.517-0.619,3.132-3.186,3.308h-5.8c-1.581,0-2.773-0.472-2.806-2.482v-4.948
				c0.007-1.04,0.012-2.097,0-3.223c-0.013-1.26,0.962-1.877,2.285-1.872c5.382,0.022,10.765,0.006,16.147-0.002
				c1.818-0.003,2.913,1.032,3.63,2.559c0.233,0.494,0.221,1.11,0.476,1.588c0.447,0.836,1.055,1.666,2.172,1.198
				c1-0.418,0.84-1.27,0.553-2.137c-0.874-2.64-1.713-5.291-2.556-7.941c-0.701-2.206-0.963-2.177-3.378-2.194h-37.874
				c-0.773,0-1.371,0.597-1.371,1.422c0,0.826,0.551,1.097,1.371,1.126c3.362,0.122,5.832,1.397,5.902,4.989v33.909
				c-0.243,2.202-1.531,3.321-3.693,3.48h-2.209c-0.735,0-1.371,0.428-1.371,1.361s0.679,1.235,1.371,1.298h41.13
				c1.869-0.062,3.174-0.13,3.836,1.859c0.643,1.933,2.879,2.041,2.211-0.931C306.968,470.691,303.936,457.195,303.936,457.195"/>
			<path clip-path="url(#SVGID_2_)" fill="#CEA052" d="M355.503,457.195c-0.256-0.646-0.673-1.168-1.458-0.947
				c-0.674,0.189-0.709,0.828-0.64,1.373c0.151,1.19,0.479,2.364,0.564,3.557c0.196,2.766-1.1,4.321-3.874,4.362h-16.939
				c-1.297,0-2.451-0.283-2.586-2.592v-9.981c0.02-1.245,1.188-2.036,2.434-1.877h6.913c2.729,0.029,4.991,0.653,5.606,3.787
				c0.165,0.836,0.658,1.381,1.572,1.115c0.975-0.285,0.871-1.141,0.679-1.846l-2.661-13.05c-0.227-1.012-0.568-1.831-1.754-1.719
				c-1.22,0.115-1.003,1.093-0.997,1.918c0.018,2.517-0.619,3.132-3.187,3.308h-5.8c-1.58,0-2.772-0.472-2.806-2.482
				c-0.047-2.875,0.03-5.295,0-8.171c-0.013-1.26,0.962-1.877,2.285-1.872c5.383,0.022,10.765,0.006,16.147-0.002
				c1.817-0.003,2.913,1.032,3.63,2.559c0.232,0.494,0.221,1.11,0.475,1.588c0.447,0.836,1.056,1.666,2.173,1.198
				c1-0.418,0.841-1.27,0.554-2.137c-0.874-2.64-1.713-5.291-2.556-7.941c-0.702-2.206-0.965-2.177-3.38-2.194h-37.874
				c-0.771,0-1.37,0.597-1.37,1.422c0,0.826,0.552,1.097,1.37,1.126c3.362,0.122,5.833,1.397,5.903,4.989v33.909
				c-0.243,2.202-1.531,3.321-3.693,3.48h-2.21c-0.734,0-1.37,0.428-1.37,1.361s0.68,1.235,1.37,1.298h41.132
				c1.868-0.062,3.173-0.13,3.835,1.859c0.643,1.933,2.879,2.041,2.212-0.931C358.535,470.691,355.503,457.195,355.503,457.195"/>
			<path clip-path="url(#SVGID_2_)" fill="#CEA052" d="M248.012,448.658c-0.911-0.249-1.007-1.147,0.012-1.64
				c2.628-1.271,6.554-3.136,6.554-10.548c0-8.235-7.584-11.469-12.49-11.322h-17.162h-4.118h-14.419
				c-0.773,0-1.371,0.597-1.371,1.422c0,0.826,0.551,1.097,1.371,1.126c3.362,0.122,5.833,1.397,5.902,4.989v33.91
				c-0.243,2.201-1.531,3.32-3.693,3.479h-2.209c-0.735,0-1.371,0.428-1.371,1.361s0.679,1.235,1.371,1.298h14.419h4.118h10.005
				c3.238-0.029,6.468-0.123,9.713-0.396c5.485-0.46,10.412-6.433,10.412-12.407C255.056,455.712,254.09,450.321,248.012,448.658
				 M227.163,432.097h7.214c5.348,0.38,7.78,4.981,5.237,9.455c-1.015,1.786-2.659,2.796-4.777,2.834h-7.216
				c-2.307-0.04-2.589-0.284-2.688-2.499l-0.007-8.602C225.087,432.39,225.762,432.136,227.163,432.097 M235.201,465.574h-8.336
				c-1.425,0.028-1.978-0.563-1.932-1.99v-10.006c-0.011-1.205,0.525-1.772,1.713-1.974h10c3.349,0,5.54,2.086,5.54,6.991
				C242.186,464.097,238.517,465.574,235.201,465.574"/>
			<path clip-path="url(#SVGID_2_)" fill="#CEA052" d="M417.535,461.693c-0.92-0.2-0.97,0.616-1.223,1.189
				c-0.261,0.592-0.531,1.185-0.863,1.738c-0.568,0.946-1.401,1.55-2.537,1.276c-1.146-0.276-1.496-1.136-1.567-2.304
				c-0.137-2.214-0.367-4.432-0.723-6.621c-0.415-2.562-1.489-4.712-3.97-6.021c-1.963-1.035-2.076-1.855-0.035-2.808
				c3.354-1.562,5.784-4.353,5.784-10.878c0-6.081-5.396-12.118-11.671-12.118h-11.831h-5.901h-0.532h-12.152h-6.435
				c-0.772,0-1.371,0.597-1.371,1.422c0,0.826,0.552,1.097,1.371,1.126c3.362,0.122,5.833,1.397,5.902,4.989v33.909
				c-0.243,2.202-1.531,3.321-3.693,3.48h-2.209c-0.735,0-1.371,0.428-1.371,1.36c0,0.935,0.68,1.236,1.371,1.299h6.56h11.902h6.559
				c0.692-0.062,1.371-0.364,1.371-1.299c0-0.933-0.636-1.36-1.371-1.36h-2.209c-2.162-0.159-3.45-1.278-3.692-3.48v-11.806h11.059
				c3.109,0.112,4.566,1.29,4.598,4.444c0.021,2.242,0.224,4.45,0.74,6.614c0.531,2.225,1.732,4.039,3.726,5.277
				c4.391,2.728,11.086,1.363,13.811-2.978c0.87-1.386,1.427-3.017,1.586-4.702C418.59,462.67,418.453,461.894,417.535,461.693
				 M392.888,447.457h-8.238c-0.726,0-1.425-0.058-1.651-1.011v-12.624c0.169-1.438,1.142-1.923,2.497-1.89h7.393
				c5.71,0,7.473,4.027,7.473,7.917S397.19,447.457,392.888,447.457"/>
			<path clip-path="url(#SVGID_2_)" fill="#CEA052" d="M301.136,337.989c0.072,0.221,0.133,0.417,0.171,0.551l-0.077,40.364
				l0.024,0.358c1.495,11.105,9.161,15.055,13.652,15.596c1.443,0.153,2.724,0.017,3.879-0.306
				c-4.72-1.174-11.889-5.375-13.223-15.29l-0.024-0.358l0.077-40.364c-0.161-0.565-0.618-1.992-1.443-3.487
				C303.185,335.957,302.142,336.945,301.136,337.989"/>
			<path clip-path="url(#SVGID_2_)" fill="#CEA052" d="M270.392,376.293l0.146-101.676c-2.71,0.153-7.924-4.5-10.648-7.889
				l-3.218,2.749c2.773,3.137,6.322,6.416,8.399,6.298l-0.147,100.518c-0.253,8.697-12.252,15.959-14.74,17.388
				c0,0,1.549,0.688,5.467,0C258.423,392.941,270.138,384.99,270.392,376.293"/>
			<path clip-path="url(#SVGID_2_)" fill="#CEA052" d="M32.245,386.578c1.651-3.061,3.526-5.792,5.543-8.24l-0.988,0.631
				c-0.618,0.402-15.201,10.143-14.169,30.061l0.062,1.207l0.73-0.962c0.111-0.145,11.266-14.749,26.535-16.573
				c0.58-0.102,14.915-2.454,32.648,3.566c19.078,6.476,46.095,8.182,50.847,7.872c5.416-0.354,26.59-5.813,33.037-19.182
				l1.111-2.301l-1.819,1.795c-0.183,0.18-18.448,17.659-51.461,12.804l0.064-0.437l-0.067,0.437
				c-0.552-0.079-13.762-2.011-34.917-7.606c-19.123-5.06-39.832-0.014-48.433,5.19l-0.95,0.574l0.295-1.069
				c0.088-0.317,0.187-0.663,0.293-1.021l-2.961,1.782L32.245,386.578z"/>
			<path clip-path="url(#SVGID_2_)" fill="#CEA052" d="M50.183,333.292l0.027,0.027c13.607,15.104,46.015,17.702,47.388,17.805
				c0.264,0.021,26.49,2.135,45.283,7.372c9.616,2.682,12.788,6.129,13.757,8.547c0.765,1.909,0.302,3.483,0.015,4.167l0.793,0.604
				c2.42-2.715,3.365-5.44,2.81-8.105c-1.172-5.632-8.527-8.889-8.84-9.023c-12.101-6.076-23.717-6.902-36.017-7.779
				c-14.221-1.012-28.919-2.058-47.125-10.703c-11.522-5.472-18.947-12.7-22.068-21.483c-4.025-11.322,0.644-21.231,0.69-21.33
				l1.084-2.275l-1.793,1.771c-5.061,4.997-7.586,10.674-7.508,16.872C38.838,322.594,50.071,333.185,50.183,333.292"/>
			<path clip-path="url(#SVGID_2_)" fill="#CEA052" d="M136.572,302.002c13.275,0,23.759-4.795,31.169-14.254l-0.712-0.649
				c-3.257,2.658-31.888,23.621-84.633-11.285c-1.509,1.904-2.684,3.824-3.596,5.674C84.574,285.27,111.554,302.002,136.572,302.002
				"/>
			<path clip-path="url(#SVGID_2_)" fill="#CEA052" d="M249.185,337.268c0,0-15.844,18.561-31.033-3.429
				c-1.328,2.614-2.302,5.008-3.01,7.096C221.39,347.232,237.878,360.339,249.185,337.268"/>
			<path clip-path="url(#SVGID_2_)" fill="#CEA052" d="M190.861,372.27c-6.335-13.686,0.027-36.655,9.835-45.279
				c10.808-9.503,14.118-18.694,14.118-18.694c-2.711,4.866-16.14,14.685-16.14,14.685s-16.009,12.697-16.355,35.668
				c-0.346,22.971,15.404,40.579,36.348,42.231c20.944,1.651,28.646-13.022,28.646-13.022
				C214.139,407.762,197.599,386.824,190.861,372.27"/>
			<path clip-path="url(#SVGID_2_)" fill="#CEA052" d="M288.472,390.271c-3.578-0.229-9.234,3.735-13.159,6.852
				c-3.924,3.117-14.506,1.887-14.506,1.887c1.193,4.617,16.353,5.963,20.855-0.155s15.81-5.509,15.81-5.509
				C294.548,390.113,288.472,390.271,288.472,390.271"/>
			<path clip-path="url(#SVGID_2_)" fill="#CEA052" d="M396.855,364.995c2.075-2.322,2.309-4.644,2.309-4.644h-32.43
				c0.256,1.417,0.607,3.021,1.115,4.644H396.855z"/>
			<path clip-path="url(#SVGID_2_)" fill="#CEA052" d="M373.267,336.437c2.84,2.287,4.15,6.465,4.15,6.465h4.271
				c0,0-1.543-6.092-7.388-10.852c-1.083-0.882-2.005-2.029-2.782-3.24c-0.928,1.175-1.705,2.331-2.356,3.459
				C370.304,333.693,371.667,335.148,373.267,336.437"/>
			<path clip-path="url(#SVGID_2_)" fill="#CEA052" d="M346.774,373.011c-7.157-22.625-2.631-39.655,11.659-52.093
				c8.018-6.979,13.751-15.205,13.751-15.205c-5.987,6.811-8.838,6.042-19.64,15.469c-16.198,14.138-16.044,31.975-16.044,31.975
				c0.462,31.744,23.779,40.055,23.779,40.055c15.583,5.656,25.973-4.848,25.973-4.848
				C358.664,400.483,346.774,373.011,346.774,373.011"/>
			<path clip-path="url(#SVGID_2_)" fill="#CEA052" d="M540.109,391.549c-9.696-1.961-15.583,5.656-15.583,5.656
				c6.233-2.885,14.313,0.462,25.626,3.658c11.312,3.195,16.623-4.647,16.623-4.647
				C558.694,401.921,549.807,393.511,540.109,391.549"/>
			<path clip-path="url(#SVGID_2_)" fill="#CEA052" d="M509.07,292.283c-12.582,3.694-12.006,14.198-12.006,14.198
				c0.578,11.082,9.812,13.839,9.812,13.839c-0.694,3.972-4.869,7.17-4.869,7.17c7.25,1.154,10.756-8.657,10.756-8.657
				C490.947,311.099,509.07,292.283,509.07,292.283"/>
			<path clip-path="url(#SVGID_2_)" fill="#CEA052" d="M540.108,359.062l21.816,11.89c5.426,1.964,2.538,7.964,2.538,7.964
				c14.084-8.425-16.621-20.199-16.621-20.199c-13.274-5.194-19.507-24.659-12.697-33.938
				c12.199-16.622,15.468-24.126,15.468-24.126c-5.425,7.388-7.041,6.118-14.775,15.354c-7.367,8.797-8.657,16.853-8.657,16.853
				C523.023,348.212,540.108,359.062,540.108,359.062"/>
			<path clip-path="url(#SVGID_2_)" fill="#CEA052" d="M572.07,339.537c0.195-0.018,0.39-0.041,0.582-0.069
				c9.466-1.385,13.271-4.019,15.814-12.929c0,0-15.299,18.741-34.914-0.509c-0.455,2.3-0.243,3.933,0.16,5.038
				c0.785,2.159,2.447,2.882,2.465,2.889c4.634,1.659,8.544,3.536,11.83,5.406C569.382,339.581,570.749,339.66,572.07,339.537"/>
			<path clip-path="url(#SVGID_2_)" fill="#0D223F" d="M531.244,312.228c1.808-5.684,1.138-13.75-2.825-18.004
				c-3.021-3.243-6.706-6.458-8.661-9.444c-0.015,0.033-3.539,4.398-7.464,8.064c-2.465,2.303-7.828,8.253-5.672,15.612
				c1.161,3.962,4.658,6.866,10.415,8.66c-0.884,2.791-2.024,5.238-2.737,5.708l2.418,4.712
				C517.177,327.329,528.025,322.345,531.244,312.228"/>
			<path clip-path="url(#SVGID_2_)" fill="#0D223F" d="M330.362,380.271l-0.002-41.176c0.085-4.636-7.926-15.923-11.373-20.561
				l-0.158-0.193c-0.993-1.104-5.126-5.658-5.942-9.295c-0.884,4.35-7.289,9.731-10.503,12.422
				c-1.678,1.406-3.734,3.796-5.574,6.126v-92.663c-6.024,20.355-25.135,30.899-33.038,30.899c2.429,3.39,8.38,6.636,11.338,6.469
				l-0.146,103.994c-0.254,8.697-11.095,17.118-13.583,18.546c0,0,2.75,0.871,5.09,0.871c2.895,0,6.688-0.334,12.404-5.079
				c4.539-3.768,10.342-4.691,10.43-4.7c4.315-0.506,9.999,2.683,10.04,2.714l-3.669-12.203l0.147-29.564
				c0.279-2.991,2.657-6.132,5.313-8.888c1.006-1.044,2.049-2.032,3.038-2.937c0.884-0.809,1.724-1.552,2.444-2.203
				c1.842,2.052,2.732,4.841,2.974,5.691l-0.077,40.363l0.023,0.358c1.495,11.105,10.32,15.055,14.812,15.596
				c8.373,0.892,11.607-7.469,12.96-10.738C335.717,385.372,330.362,384.729,330.362,380.271"/>
			<path clip-path="url(#SVGID_2_)" fill="#CEA052" d="M411.426,273.51l1.491,98.595c0.204,2.303-0.318,12.72-0.318,12.72
				c4.653-2.144,5.69-14.197,5.69-14.197l-1.797-100.548c-2.538,0.098-8.514-5.101-8.514-5.101
				C405.845,269.567,411.426,273.51,411.426,273.51"/>
			<path clip-path="url(#SVGID_2_)" fill="#CEA052" d="M425.63,395.46c0,0-7.976,5.85-14.274,4.303c0,0,2.23,6.904,14.812,0.644
				c12.581-6.26,10.22-7.902,18.56-7.185C444.727,393.222,436.236,385.925,425.63,395.46"/>
			<path clip-path="url(#SVGID_2_)" fill="#0D223F" d="M414.705,261.933c1.048,2.549,4.738,6.29,7.995,7.034l1.204,103.404
				c-0.466,12.155-12.362,21.921-12.752,22.105c0.702,0.085,4.652-0.017,5.312-0.042c4.457-0.172,7.939-2.684,11.057-4.936
				c2.472-1.782,4.807-3.467,7.525-4.126c6.146-1.489,9.83,1.006,9.959,1.096l4.135,3.028l0.082-5.123
				c0.064-4.022-2.618-6.9-4.273-8.287l0.102-140.958C440.463,250.202,415.518,261.859,414.705,261.933"/>
			<path clip-path="url(#SVGID_2_)" fill="#CEA052" d="M465.312,362.271c0.01-0.088,0.014-0.172,0.014-0.26l-0.625-96.488
				c-2.538,0.098-8.74-4.539-8.74-4.539c-2.134,4.588,2.461,6.978,2.461,6.978l1.065,95.533c0.204,2.303-1.031,21.18-1.031,21.18
				C464.706,384.133,465.114,364.009,465.312,362.271"/>
			<path clip-path="url(#SVGID_2_)" fill="#CEA052" d="M472.496,393.652c0,0-7.977,5.85-14.274,4.304c0,0,2.23,6.904,14.812,0.644
				c12.581-6.262,10.22-7.903,18.559-7.185C491.592,391.415,483.103,384.117,472.496,393.652"/>
			<path clip-path="url(#SVGID_2_)" fill="#0D223F" d="M462.937,257.743c1.083,2.628,4.479,5.555,7.613,5.736l-0.162,107.479
				c-0.466,12.159-12.363,21.924-12.752,22.108c0.703,0.083,4.653-0.018,5.309-0.043c4.458-0.172,7.94-2.683,11.058-4.935
				c2.473-1.783,4.807-3.467,7.528-4.127c6.275-1.524,12.177,2.313,12.229,2.348l4.052,2.726l0.078-4.885
				c0.067-4.369-4.184-7.971-6.448-9.576l1.344-138.913C488.106,251.027,463.217,257.665,462.937,257.743"/>
			<path clip-path="url(#SVGID_2_)" fill="#0D223F" d="M553.713,331.068c-0.403-1.104-0.615-2.738-0.16-5.038
				c0.254-1.285,0.709-2.771,1.47-4.506c3.798,3.085,11.031,8.08,18.066,8.092c1.099-0.014,9.863-0.137,16.332-16.937
				c-0.217,0.261-5.447,3.704-14.648-0.189c-0.074-0.026-10.058-4.589-16.066-15.189c-1.134,3.445-5.378,13.456-11.767,19.201
				c-6.354,5.714-10.793,14.712-9.988,20.821c0.051,2.15,1.213,16.222,22.408,23.545c8.143,2.813,13.157,6.483,14.118,10.332
				c0.609,2.436-0.575,4.407-1.037,4.906l-0.279,0.358c-0.02,0.029-2.057,3.057-5.57,3.746c-2.499,0.488-5.278-0.297-8.254-2.334
				c-8.19-5.607-16.964-7.346-24.077-4.764c-7.241,2.629-12.705,9.347-15.689,19.971c0.204-0.359,10.266-6.739,20.154-6.33
				l0.103,0.003l0.083-0.003c0.052,0.006,5.773-0.082,13.326,4.471c3.582,2.154,8.299,2.579,13.644,1.229
				c7.334-1.854,14.832-6.888,17.774-11.878c3.777-5.865,8.159-19.799-2.199-30.661c-0.689-0.842-4.882-5.677-13.446-10.552
				c-3.287-1.87-7.197-3.747-11.831-5.406C556.16,333.95,554.498,333.228,553.713,331.068"/>
			<path clip-path="url(#SVGID_2_)" fill="#0D223F" d="M391.815,319.339c-4.101-5.608-11.886-13.49-11.886-13.49
				s-5.135,7.085-16.544,14.931c-12.975,8.918-16.701,29.755-16.144,34.16c0.792,12.203,7.684,34.652,28.126,34.65
				c0.381,0,0.773-0.009,1.167-0.023c1.21,0.019,10.58-0.044,17.297-6.454c4.305-4.106,6.54-9.83,6.644-17.016
				c0,0-4.84,9.604-20.681,9.604c-7.025,0-10.305-5.454-11.945-10.706c-0.508-1.623-0.859-3.227-1.115-4.644
				c-0.25-1.384-0.41-2.591-0.538-3.465l37.959-0.609l0.088-2.516c0.024-0.66,0.479-16.335-7.41-27.483
				C395.074,323.798,393.381,321.481,391.815,319.339 M366.195,346.126c-0.377-2.631-0.517-7.827,2.966-13.857
				c0.651-1.128,1.429-2.284,2.356-3.459c1.156-1.466,2.541-2.958,4.204-4.456c1.907,3.896,7.431,11.349,8.342,11.929
				c-0.047-0.031-0.112-0.07-0.185-0.135c0.849,0.756,4.294,5.333,4.748,9.609L366.195,346.126z"/>
			<path clip-path="url(#SVGID_2_)" fill="#0D223F" d="M210.608,323.393c-0.816,0.793-21.32,18.154-18.23,36.936
				c0.043,0.297,4.52,31.704,31.18,31.704c17.319,0,24.438-6.741,28.065-22.929c-0.094,0.123-8.084,11.692-22.256,8.704
				l-0.202-0.067c-0.581-0.17-16.551-5.091-15.926-28.477c0.044-0.616,0.343-3.729,1.902-8.329c0.708-2.088,1.683-4.481,3.01-7.096
				c0.761-1.497,1.624-3.056,2.638-4.676c2.295,4.792,6.819,11.834,14.568,11.834c6.691,0,16.823-6.325,19.618-22.099
				c-0.083,0.079-3.237,3.998-15.376,3.04c-6.872-0.543-12.105-4.94-16.837-14.87C219.497,311.938,217.246,316.936,210.608,323.393"
				/>
			<path clip-path="url(#SVGID_2_)" fill="#0D223F" d="M135.961,269.092c-0.299-0.071-32.699-8.514-45.568-26.402
				c-0.031,0.115-5.133,13.698-12.072,20.778l-0.126,0.139c-2.481,2.917-9.757,11.045-13.603,13.588l-0.157,0.112
				c-0.677,0.521-16.545,12.938-15.961,27.896c-0.021,0.916-0.154,22.523,30.731,30.265c0.988,0.239,24.311,5.893,31.075,6.738
				c14.814,2.305,38.022,6.144,41.243,7.271l0.188,0.059c0.592,0.158,14.475,4.053,12.841,15.443
				c-0.027,0.164-0.674,4.042-4.409,6.592c-3.556,2.436-8.765,2.918-15.558,1.426c-0.101-0.02-10.215-1.966-14.602-3.946
				c-1.216-0.578-30.054-14.076-54.043-11.169c-1.071,0.11-23.466,2.63-38.151,20.457c-2.017,2.448-3.893,5.18-5.544,8.24
				l-4.6,8.528l2.961-1.782l5.342-3.216c0.157-0.097,15.959-9.547,25.164-9.547c0.11,0,11.235,0.1,16.657,2.072
				c5.757,2.091,38.144,10.572,47.68,10.167c2.18,0.115,23.495,1.006,37.342-8.474c1.926-1.075,17.832-10.834,14.552-38.159
				c-0.086-0.665-2.332-16.336-20.326-23.33c-0.999-0.338-24.727-8.285-44.769-9.522c-9.792-0.644-35.462-5.278-36.621-18.75
				c-0.005-0.088-0.284-6.07,3.172-13.077c0.913-1.851,2.088-3.771,3.597-5.674c0.87-1.099,1.845-2.192,2.953-3.261
				c5.824,4.354,24.669,17.202,45.422,18.116c2.09,0.271,23.773,2.764,37.978-8.369c6.785-5.314,10.728-12.837,11.72-22.358
				l0.639-6.132C181.108,253.81,166.488,277.601,135.961,269.092"/>
			<path clip-path="url(#SVGID_2_)" fill="#CEA052" d="M306,9.12c-56.711,0-102.85,46.138-102.85,102.85S249.289,214.82,306,214.82
				c56.712,0,102.85-46.138,102.85-102.85S362.712,9.12,306,9.12"/>
		</g>
		<g>
			<defs>
				<path id="SVGID_3_" d="M211.174,111.97c0,52.371,42.455,94.826,94.826,94.826s94.826-42.455,94.826-94.826
					c0-52.371-42.455-94.826-94.826-94.826S211.174,59.599,211.174,111.97"/>
			</defs>
			<clipPath id="SVGID_4_">
				<use xlink:href="#SVGID_3_"  overflow="visible"/>
			</clipPath>
			<path clip-path="url(#SVGID_4_)" fill="#D9272E" d="M400.826,111.97c0,52.371-42.455,94.826-94.826,94.826
				c-52.371,0-94.826-42.455-94.826-94.826S253.629,17.144,306,17.144C358.371,17.144,400.826,59.599,400.826,111.97"/>
		</g>
		<g>
			<defs>
				<rect id="SVGID_5_" y="-119" width="612" height="792"/>
			</defs>
			<clipPath id="SVGID_6_">
				<use xlink:href="#SVGID_5_"  overflow="visible"/>
			</clipPath>
			<path clip-path="url(#SVGID_6_)" fill="#D9272E" d="M336.294,252.976l-0.018,0.005
				C336.282,252.979,336.288,252.977,336.294,252.976"/>
		</g>
		<g>
			<defs>
				<path id="SVGID_7_" d="M211.489,113.11c0,52.363,42.449,94.812,94.812,94.812c52.364,0,94.812-42.449,94.812-94.812
					c0-52.364-42.448-94.812-94.812-94.812C253.938,18.298,211.489,60.746,211.489,113.11"/>
			</defs>
			<clipPath id="SVGID_8_">
				<use xlink:href="#SVGID_7_"  overflow="visible"/>
			</clipPath>
			<path clip-path="url(#SVGID_8_)" fill="#D9272E" d="M401.113,113.11c0,52.363-42.448,94.813-94.812,94.813
				s-94.813-42.45-94.813-94.813c0-52.363,42.45-94.813,94.813-94.813S401.113,60.747,401.113,113.11"/>
			<path clip-path="url(#SVGID_8_)" fill="#D9272E" d="M348.912,125.001c0.468,0.35,4.437,2.276,6.596,1.634
				c2.159-0.642,4.319-2.743,4.319-2.743l2.042-0.525l2.16,0.467l0.759-0.467c0,0,1.284,0.233,2.393,1.693
				c1.109,1.459,1.926,1.459,3.793,1.05c1.868-0.409,2.803-1.226,2.978-1.634c0.175-0.409,1.926-1.985,2.276-1.985
				c-0.233-0.933-0.416-3.613-1.051-4.392c-0.963-1.181-3.847-1.149-7.267-0.393c-3.37,0.744-4.757,1.751-3.939,3.384
				c0.817,1.635,0.7,1.985,0.7,1.985s-3.151,0.058-3.326,0.058c-0.176,0-2.978,0.292-2.978,0.292s0.816-1.926-0.992-2.626
				c-1.809-0.701-3.866-0.248-4.917-0.073s-2.554,0.073-3.37,0.131c-0.817,0.059-1.576,0.233-1.576,1.167
				c0,0.935,0.292,2.277,0.467,2.685C348.153,125.119,348.445,124.651,348.912,125.001"/>
			<path clip-path="url(#SVGID_8_)" fill="#FFFFFF" d="M338.757,190.757c0-0.233-1.284-6.245-1.284-6.245l-2.51-7.879l-0.934-4.319
				c0,0,0.817-2.101,0.117-3.735c3.443-0.292,5.019-4.903,5.311-5.487c0.292-0.583,0.541-1.264,0.95-2.256
				c0.408-0.993-0.657-2.79-1.358-3.141c-0.7-0.35-0.962-1.16-1.697-2.63c-0.509-1.019-1.454-1.836-1.921-1.894
				c-0.468-0.059-0.701-0.526-0.701-0.526l0.117-5.311l1.167-7.529l0.934-1.751l-0.291-2.919l-0.876-2.334
				c0,0,0.759-5.603,0.759-5.837c0-0.233,0.642-3.852,0.642-3.852s0.584-2.685,3.152-3.56c2.567-0.876,8.93-6.011,9.571-6.537
				c0.643-0.525,1.168-1.634,1.168-1.634s4.787-6.654,5.311-8.58c0.525-1.926,2.977-4.669,4.203-5.895
				c1.226-1.225,4.202-4.494,4.669-5.369c0.467-0.876-0.233-1.576-0.233-1.576l-1.751-0.175l-7.471,3.152l-5.137,1.459l-5.895,2.393
				l-7.879,4.552l-3.735,2.626c0,0-2.276,3.736-2.452,3.152c-0.175-0.583-3.034-0.525-3.501-0.7s0.699-1.401,0.699-1.401
				l4.553-7.062c0,0,0.028-2.134,1.095-2.276c1.313-0.176,4.306-3.367,5.165-3.94c1.183-0.788,2.758-3.283,2.758-3.283
				s4.349-2.582,4.523-2.641c0.175-0.058,1.459-0.058,1.984-0.058s2.393-0.467,3.151-0.934c0.759-0.467,2.219-0.409,4.027-0.7
				c1.81-0.292,8.93-0.934,9.923-0.934c0.992,0,2.393-0.351,3.852-0.584s2.51-0.584,4.202-0.875c1.692-0.292,2.51-1.518,2.802-1.635
				c0.292-0.116,0.875-3.21,0.875-3.21l0.468-1.576c0.058,0.292,1.459,0.584,1.926,0.642c0.467,0.059,1.342-1.283,1.81-1.984
				c0.467-0.7,1.108-1.168,1.108-1.168s-0.116-2.859-0.116-3.21c0-0.35-2.335-4.377-2.568-4.727c-0.233-0.35-2.451-2.51-2.685-2.86
				s-2.043-2.918-2.043-2.918l-0.992-4.377l-3.91-4.378c0,0-2.394-2.802-2.627-3.035s-5.136-3.852-5.136-3.852
				s0.175,0.875,1.051,2.276c0.875,1.401,2.567,3.502,4.026,5.078c1.459,1.576,1.81,3.677,1.81,4.436c0,0.758,0,1.05,0.408,2.685
				c0.409,1.634-0.467,3.151-1.283,3.852c-0.817,0.7-2.568,2.509-3.444,3.21c-0.875,0.7-4.202,0.584-4.318,1.108
				c-0.117,0.526-1.519,0.409-1.81,0.409c-0.293,0-2.159,0-2.568,0.117c-0.408,0.117-2.51,0.335-4.202,0.394
				c-1.692,0.058-4.902-0.642-5.603-1.401c-0.701-0.759-0.759-1.444-0.992-2.203c-0.233-0.759-1.051-2.335-1.46-4.728
				c-0.408-2.393-3.326-8.755-3.56-9.163c-0.233-0.408-1.43-0.89-1.562,0.686c-0.049,0.584,0.744,2.174,1.386,3.516
				c0.643,1.343,1.576,4.903,2.16,8.113c0.583,3.21-0.233,2.685-0.817,2.626c-0.584-0.058-1.108-1.225-1.692-1.459
				c-0.584-0.233-2.977-1.692-3.677-2.334c-0.701-0.642-2.394-2.743-3.269-3.561c-0.876-0.817-1.401,0.234-0.992,0.759
				c0.408,0.525,4.436,5.195,5.953,6.362s3.735,3.444,4.202,5.019c0.467,1.576-0.525,8.463-1.167,10.273
				c-0.643,1.809-2.51,3.385-3.386,3.91c-0.875,0.525-6.653,4.261-9.805,4.961c-3.152,0.701-5.253-2.801-5.72-4.202
				c-0.468-1.401-0.817-7.062-0.759-8.054c0.058-0.993-2.219-5.312-3.035-5.195c-0.817,0.117-0.525,1.342-0.117,2.043
				c0.409,0.7,0.292,1.284,0.351,2.451s0.408,4.202,0.35,5.311c-0.058,1.109,0.525,5.195,1.051,6.888
				c0.525,1.692,1.649,2.319,3.05,2.275c1.044-0.032-0.015,1.985-0.189,2.919c-0.176,0.933-1.518,4.202-2.16,5.603
				c-0.642,1.401-3.502,5.37-4.318,6.012c-0.817,0.641-5.604,0.641-6.888,0.525c-1.283-0.117-8.988-0.175-9.105-1.051
				c-0.116-0.875-2.276-3.968-2.743-4.903c-0.467-0.933-0.467-3.502-0.175-4.494c0.292-0.992-0.059-1.575-0.059-2.801
				s0.701-2.043,1.168-2.743c0.467-0.701,0.759-0.992,0.817-1.576c0.058-0.584,0.584-10.798,0.759-13.482
				c0.175-2.685-1.518-3.269-1.868-2.977s-0.992,3.21-1.109,4.611c-0.117,1.4-0.35,5.544-0.7,6.42
				c-0.35,0.875-2.627,4.027-3.677,5.428c-1.051,1.401-4.903,1.284-7.296,1.109c-2.393-0.175-7.179-2.977-7.996-3.385
				c-0.817-0.409-4.844-2.335-5.661-2.685c-0.817-0.35-5.078-4.436-5.662-5.837c-0.583-1.401-5.603-2.217-6.303-2.101
				c-0.701,0.117-2.51,2.101-2.976,2.568c-0.468,0.467-2.394,0.584-3.444,0.467c-1.051-0.117-4.144-1.634-4.202-2.101
				c-0.059-0.467-1.576-4.436,0.758-5.136c2.335-0.701,6.771-0.175,8.23,0.233c1.459,0.409,8.287,5.954,8.229,5.662
				c-0.058-0.292,0-1.751,0-3.152c0-1.401,1.809-2.101,2.802-1.926c0.992,0.175,2.859,0.817,4.377,0.992
				c1.518,0.175,4.771-0.657,6.056-1.065c1.283-0.408,4.99-2.232,6.901-3.662c1.038-0.777,5.312-4.845,5.662-5.253
				c0.35-0.409-0.876-1.167-1.401-0.642c-0.526,0.525-4.903,4.027-5.545,4.669s-8.871,4.261-10.214,4.261
				c-1.342,0-5.836-1.46-6.303-1.576c-0.467-0.117-3.035-2.043-3.035-3.152c0-1.109,0.408-1.809,0.525-2.393
				c0.117-0.583,0.817-3.326,1.109-4.844s2.86-4.669,3.502-5.72c0.642-1.051,0-2.218-0.234-2.101
				c-0.233,0.117-1.05,1.342-1.751,1.751c-0.7,0.408-3.91,4.552-4.785,5.661c-0.876,1.109-0.059,4.202-0.117,5.37
				c-0.058,1.167-0.117,2.393-0.117,2.393s-1.226-0.642-1.576-1.81c-0.35-1.167-0.759-4.377-0.759-5.253
				c0-0.875,0.935-9.105,1.226-10.097c0.292-0.992,1.226-3.385,1.984-4.611c0.759-1.225-0.16-1.575-0.568-1.225
				c-0.409,0.35-0.774,0.992-1.241,1.693c-0.466,0.7-2.043,3.034-2.801,4.143c-0.759,1.109-2.51,7.121-2.51,8.58
				s-0.758,6.537-1.342,7.646c-0.584,1.109-1.459,1.342-2.393,2.043c-0.934,0.7-4.961,1.751-7.063,1.634
				c-2.101-0.117-5.719,3.852-6.361,4.902c-0.642,1.051-0.876,4.436-0.117,6.538c0.759,2.101,6.012,4.027,6.537,4.085
				c0.525,0.059,7.587,1.926,8.988,2.393c1.401,0.467,7.529,1.868,9.397,2.101c1.867,0.234,7.412,2.16,9.163,2.919
				c1.751,0.758,7.821,4.318,9.163,5.135c1.343,0.818,3.444,3.444,4.378,4.67c0.934,1.225,0.409,4.844,0.409,4.844
				s-0.292,2.043-0.292,2.218c0,0.175-2.919,1.984-3.269,1.517c-0.35-0.466-3.035-4.902-3.852-6.128s-12.14-5.253-13.424-5.37
				c-1.284-0.116-8.054-3.093-9.28-3.793c-1.226-0.701-1.284,0.233-1.342,0.642c-0.058,0.408-0.234,3.502-0.234,5.486
				c0,1.985,0.817,4.377,1.226,6.829c0.408,2.451,2.918,6.42,4.144,8.346c1.225,1.926,5.194,3.852,6.712,5.194
				c1.517,1.343,4.669,2.86,6.07,3.561c1.4,0.7,4.727,2.451,5.661,2.86c0.934,0.408,2.86,4.669,2.451,5.778
				c-0.408,1.109,0.234,3.502,0.876,5.603s-0.058,7.762-0.467,10.798c-0.409,3.034-0.233,5.194-0.525,7.878
				c-0.292,2.686-0.292,7.296-0.175,8.814c0.117,1.518,0.408,7.996,0.175,9.98c-0.234,1.985-0.409,6.246-0.817,8.697
				c-0.409,2.451-2.569,7.237-3.502,7.704c-0.934,0.467-1.576,2.276-2.86,3.677c-1.284,1.4-2.918,3.852-4.319,4.902
				c-1.401,1.051-4.261-0.35-5.895-0.758c-1.414-0.354-7.505-2.395-9.124-2.94c14.577,8.754,31.638,13.796,49.879,13.796
				c12.174,0,23.814-2.263,34.551-6.355l-1.649-10.571C338.698,194.493,338.757,190.991,338.757,190.757 M349.088,70.817
				c0.816-0.058,2.319,0.044,3.37-0.131c1.051-0.175,3.108-0.628,4.917,0.073c1.81,0.7,0.992,2.626,0.992,2.626
				s2.802-0.292,2.978-0.292c0.175,0,3.326-0.058,3.326-0.058s0.117-0.35-0.7-1.984c-0.817-1.634,0.569-2.641,3.939-3.385
				c3.42-0.756,6.304-0.788,7.267,0.394c0.635,0.778,0.817,3.458,1.051,4.391c-0.351,0-2.102,1.576-2.276,1.985
				c-0.176,0.408-1.109,1.226-2.977,1.634c-1.868,0.409-2.685,0.409-3.794-1.05c-1.108-1.46-2.393-1.693-2.393-1.693l-0.759,0.467
				l-2.16-0.467l-2.042,0.525c0,0-2.16,2.101-4.319,2.743c-2.159,0.642-6.128-1.284-6.596-1.634
				c-0.467-0.35-0.759,0.117-0.934-0.291c-0.175-0.409-0.467-1.751-0.467-2.686C347.512,71.051,348.271,70.876,349.088,70.817"/>
			<path clip-path="url(#SVGID_8_)" fill="#FFFFFF" d="M352.239,46.304c0,0,3.151,8.58,3.677,11.031
				c0.525,2.451,1.226,5.078,1.751,5.778c0.525,0.701,2.627,0.876,2.451-0.35c-0.175-1.226-2.801-8.755-3.326-9.28
				C356.267,52.958,352.239,46.304,352.239,46.304"/>
			<path clip-path="url(#SVGID_8_)" fill="#FFFFFF" d="M243.33,52.433c0,0-1.576,5.078-1.576,6.479c0,1.4-0.7,7.704-0.175,8.579
				c0.525,0.876,3.152,1.401,3.152,0.525c0-0.875-0.175-7.529-0.175-8.579c0-1.051,0.7-4.203,0.7-4.203l0.015-4.801L243.33,52.433z"
				/>
			<path clip-path="url(#SVGID_8_)" fill="#231F20" d="M366.597,88.094c-0.204-1.343-2.13-0.935-2.947-0.38
				c-0.816,0.554-3.618,1.985-6.099,2.977c-2.48,0.992-8.113,3.414-9.922,4.202c-1.81,0.788-5.837,2.948-9.047,4.173
				c-3.21,1.226-6.137,4.645-7.208,5.895c-0.176,0.204-0.7,0.671-0.729,1.401c-0.029,0.729-0.176,1.43-0.613,1.721
				c-0.438,0.292-0.729,1.08-0.817,1.927c-0.087,0.846,0.964,1.488,1.284,2.363c0.321,0.876,0.233,2.539,0.963,3.532
				c0.729,0.992,1.751,1.575,3.035,2.421c1.284,0.847-0.467,2.16-1.488,2.335c-1.021,0.175-2.16,1.08-3.326,2.364
				c-1.168,1.284-1.518,2.539-1.547,3.59c-0.029,1.05-0.62,1.157-1.383,1.468c-0.65,0.264-0.562,0.972-0.054,1.265
				c0.722,0.415,0.835,0.828,1.155,1.499c0.321,0.671,0.135,3.296-0.099,4.114c-0.233,0.817,0.176,1.663,0.672,1.634
				s1.167,0.145,2.101,0.408c0.934,0.263,0.643-0.671,0.38-0.846s-0.672-0.437-1.109-0.934c-0.438-0.496,0.233-1.254,0.934-0.846
				c0.7,0.408,1.575,0.613,2.568,0.73c0.992,0.116,1.43-0.438,2.364-0.818c0.934-0.379,0.612,0.993,0.291,1.314
				c-0.32,0.321-0.135,0.825-0.076,2.284s-1.298,1.263-2.258,1.101c-1.569-0.264-1.088,1.241-1.579,1.355
				c-0.291,0.066-0.596-0.144-0.914-0.726c-0.307-0.559-1.462-1.4-2.147-1.184c-0.554,0.176-0.35,1.313,0.146,2.189
				c0.496,0.875,2.276,5.72,3.006,6.858c0.729,1.138,1.188,3.929,2.188,6.041c0.53,1.119,1.459,0.321,1.284-0.584
				c-0.176-0.905-0.351-2.947-0.351-4.348s0.847-3.181,0.905-4.757c0.058-1.576,0.116-3.881,0.583-4.698s1.139-1.401,0.963-2.568
				c-0.175-1.168-0.204-2.364-0.263-4.465c-0.058-2.101,1.08-3.531,2.335-3.765c1.255-0.233,0.642-1.809-0.204-1.867
				c-0.847-0.059-1.605-0.263-1.722-1.576c-0.117-1.314,1.196-1.78,2.743-2.247c1.547-0.468,3.473-2.306,5.136-3.152
				c1.663-0.846,4.086-3.269,5.545-5.166c1.459-1.896,1.4-3.122,2.335-5.194c0.934-2.072,3.326-5.048,5.544-6.975
				c2.218-1.926,4.874-5.924,6.566-8.316C367.414,91.449,366.802,89.437,366.597,88.094 M363.536,94.157
				c-0.924,1.548-2.221,2.75-3.242,4.15c-1.021,1.401-2.247,3.123-3.911,4.582c-1.663,1.459-3.53,3.035-4.406,4.844
				c-0.875,1.81-1.217,4.464-2.188,5.603c-2.799,3.281-6.333,5.633-7.208,6.041c-0.876,0.409-1.898,1.022-2.919,0.234
				c-1.021-0.788-0.116-2.421,0.525-3.151c0.617-0.701,2.072-2.336,3.911-4.466c1.838-2.13,4.757-5.194,6.653-6.741
				c1.896-1.547,5.837-5.224,7.033-6.712c1.196-1.488,4.355-4.161,4.795-4.745C363.016,93.213,364.128,93.164,363.536,94.157"/>
			<path clip-path="url(#SVGID_8_)" fill="#231F20" d="M266.384,198.229c2.204-1.87,9.688-7.354,10.739-10.506
				c1.051-3.151,2.218-8.404,1.985-16.576c-0.234-8.17-0.584-10.155,0.116-14.941c0.701-4.786,1.401-10.039,0.934-14.475
				c-0.467-4.435-1.167-5.953-0.934-7.236c0.234-1.285,0.409-3.269-3.326-4.845c-3.736-1.576-7.471-3.035-12.14-6.653
				c-4.669-3.619-9.456-8.814-9.572-14.65c-0.117-5.837-0.409-10.331-0.526-12.432c-0.116-2.101,0.759-4.261,3.386-2.977
				c2.626,1.285,6.653,4.086,9.863,4.495c3.21,0.408,10.448,2.043,12.549,3.676c2.101,1.635,3.968,2.685,4.961,4.495
				c0.992,1.809,1.167,2.568,2.101,2.626c0.934,0.059,1.809-0.642,0.292-2.568c-1.518-1.926-3.035-5.836-8.171-8.229
				c-5.136-2.393-11.965-6.187-19.903-7.354c-7.937-1.168-7.821-1.343-11.79-2.043c-3.968-0.701-6.478-2.276-7.879-5.72
				c-1.401-3.443-1.634-4.261-0.934-6.362c0.701-2.101,2.413-5.457,5.895-6.945c3.061-1.308,4.017-1.386,6.479-2.043
				c2.537-0.677,3.647-1.05,4.202-3.414c0.554-2.364,0.496-5.604,0.7-7.267c0.204-1.663,0.672-3.327,2.014-5.69
				c1.342-2.364,1.864-3.373,2.918-4.816c1.897-2.597,2.743-1.4,1.693,0.234c-0.838,1.302-1.967,2.63-2.802,3.998
				c-0.789,1.294-1.43,2.451-1.868,3.414c-0.538,1.185-0.554,2.306-0.729,5.341c-0.184,3.182-0.292,7.062-2.218,8.112
				c-1.926,1.051-4.611,1.314-7.266,2.247c-2.656,0.935-4.582,1.605-6.041,3.794s-3.21,4.786-1.634,7.675
				c1.575,2.889,3.998,4.582,7.12,5.457c3.123,0.876,8.551,2.043,11.148,2.393c2.597,0.35,7.792,1.372,11.731,3.064
				c3.94,1.693,12.52,5.312,14.738,8.318c2.217,3.006,2.772,4.231,3.122,4.26s1.401-1.284,1.78-0.35
				c0.38,0.934,0.671,1.926,1.517,1.984c0.847,0.059,1.781-0.087,2.043-0.613c0.263-0.524,0.672-2.713-0.438-3.793
				c-1.108-1.08-2.889-2.652-3.383-3.091c-0.924-0.821-0.323-2.454,0.962-1.257c1.284,1.196,2.83,2.684,3.618,4.289
				c0.788,1.605,1.658,3.72,1.094,4.361c-0.778,0.884-2.086,0.776-2.465,1.884c-0.38,1.109-0.48,2.287-0.38,2.773
				c0.241,1.161,0.079,1.605-1.322,1.78c-1.4,0.175-2.5-0.642-2.472,1.021c0.03,1.664,0.263,2.539-0.145,3.152
				c-0.409,0.613-0.784,1.239-0.701,3.298c0.029,0.705,1.697,5.256-0.083,5.49c-1.78,0.233-2.343-2.34-2.663-4.383
				c-0.322-2.042-0.803-5.335-1.518-6.566c-2.515-4.328-0.702-6.344-1.934-7.858c-1.069-1.315-2.075-2.151-3.85-3.337
				c-1.802-1.204-4.104-1.968-5.973-2.49c-4.122-1.152-5.329,0.023-7.539-1.04c-0.937-0.451-1.887-2.083-2.821-2.666
				c-0.934-0.584-1.599-1.494-2.743-1.488c-1.704,0.008-0.345,1.82-0.973,3.022c-0.27,0.518-0.901,1.416-0.522,2.719
				c0.277,0.952,0.604,1.21,0.853,1.788c0.705,1.638-0.954,3.481-0.905,5.497c0.049,1.965,1.747,1.608,1.928,4.388
				c0.071,1.07,0.553,2.021,1.078,3.013c0.525,0.992,3.269,4.903,6.362,6.8c3.093,1.897,6.916,3.852,9.222,4.961
				c2.305,1.109,5.311,2.451,5.545,4.319c0.233,1.868,0.641,2.422,0.787,3.911c0.146,1.488,0.467,3.53,0.642,5.048
				c0.175,1.517,0.73,5.311,0.38,7.12c-0.351,1.81-0.292,6.538-0.817,7.909c-0.526,1.371-0.788,2.831-0.759,5.574
				c0.029,2.743,0.058,4.99,0.029,6.362c-0.029,1.371-0.058,5.223,0.058,7.529c0.117,2.305,0.29,4.78,0.095,6.377
				c-0.237,1.94-0.591,5.325-1.816,7.718c-1.226,2.393-2.919,4.669-4.524,6.478c-1.605,1.81-3.531,5.049-4.348,6.158
				s-2.014,1.955-3.385,0.642C265.479,201.206,264.458,199.862,266.384,198.229"/>
			<path clip-path="url(#SVGID_8_)" fill="#231F20" d="M291.372,183.907c0.525,0.028,1.095,0.328,1.117,0.766
				c0.021,0.438-0.11,1.16-0.526,1.138s-1.138-0.109-1.182-0.744C290.738,184.432,290.956,183.885,291.372,183.907"/>
			<path clip-path="url(#SVGID_8_)" fill="#231F20" d="M283.339,193.56c1.007-1.708,1.357-4.728,1.809-8.959
				c0.426-3.985-0.7-8.755-1.196-10.068c-0.496-1.313-0.38-2.233-0.38-3.721c0-1.488-0.525-1.78-1.094-1.59
				c-0.642,0.213-0.511,0.875-0.219,2.071c0.292,1.197,0.555,5.633,0.847,9.864c0.291,4.232-1.722,8.813-2.218,9.805
				c-0.496,0.993-2.247,3.152-3.239,4.349c-0.993,1.196-3.374,4.051-3.954,4.935c-0.554,0.847-1.588,2.039-2.125,2.553
				c-1.189,1.142,0.154,1.996,1.117,2.317c0.964,0.321,2.134,0.22,2.656-0.379c0.372-0.428,1.809-2.51,2.714-3.648
				C278.962,199.951,282.339,195.254,283.339,193.56"/>
			<path clip-path="url(#SVGID_8_)" fill="#231F20" d="M287.873,197.271c0.356-0.712,0.375-1.364,0.397-2.12
				c0.018-0.612,0.038-1.307,0.23-2.212c0.449-2.105,0.573-8.428,0.486-10.462c-0.089-2.09-0.711-7.067-0.879-7.906
				c-0.058-0.291-0.26-0.504-0.567-0.6c-0.425-0.133-0.991-0.01-1.288,0.279c-0.191,0.186-0.26,0.422-0.192,0.665
				c0.214,0.773,0.345,1.422,0.782,4.791c0.441,3.388,0.083,6.964-0.262,10.421c-0.377,3.762-4.847,8.715-4.892,8.765
				c-0.696,0.766-3.377,4.421-3.404,4.457c-0.215,0.294-0.406,0.59-0.787,1.18l-0.346,0.535c-0.402,0.621-0.304,1.061-0.152,1.32
				c0.305,0.519,1.098,0.804,2.208,0.804c0.15,0,0.306-0.005,0.466-0.015c1.996-0.131,3.263-1.356,4.901-3.573
				c1.132-1.531,2.066-3.613,2.747-5.133C287.537,197.986,287.724,197.571,287.873,197.271"/>
			<path clip-path="url(#SVGID_8_)" fill="#231F20" d="M290.812,201.722c2.015-5.114,2.18-8.532,2.278-10.574
				c0.017-0.348,0.032-0.662,0.054-0.946c0.066-0.855-0.051-1.442-0.356-1.794c-0.322-0.372-0.77-0.401-1.13-0.425l-0.055-0.004
				c-0.201-0.011-0.378,0.05-0.517,0.183c-0.283,0.275-0.404,0.84-0.371,1.727c0.146,3.84-1.273,7.237-2.526,10.235
				c-0.126,0.303-0.232,0.616-0.336,0.918c-0.185,0.541-0.359,1.052-0.606,1.388c-0.098,0.134-0.33,0.49-0.623,0.942
				c-0.441,0.68-1.045,1.61-1.546,2.322c-0.436,0.62-0.581,1.315-0.408,1.958c0.157,0.58,0.57,1.062,1.135,1.322
				c0.186,0.085,0.381,0.128,0.58,0.128c0.289,0,0.59-0.089,0.888-0.268c0.597-0.356,1.09-1.023,1.122-1.518
				c0.041-0.643,0.433-2.563,1.112-3.284c0.694-0.735,1.048-1.648,1.26-2.193L290.812,201.722z"/>
			<path clip-path="url(#SVGID_8_)" fill="#231F20" d="M295.245,200.984c-0.065-0.689,0.03-1.141,0.254-1.833
				c0.143-0.44,0.202-1.177,0.277-2.11c0.056-0.706,0.12-1.507,0.234-2.342c0.153-1.124,0.064-1.912-0.267-2.341
				c-0.165-0.214-0.384-0.34-0.651-0.374c-0.193-0.025-0.373,0.039-0.525,0.18c-0.315,0.293-0.495,0.929-0.459,1.623
				c0.042,0.823-0.084,3.719-0.432,5.024c-0.353,1.324-1.866,4.254-2.501,5.387c-0.807,1.439-1.063,2.267-0.857,2.771
				c0.144,0.349,0.484,0.488,0.764,0.569c0.072,0.021,0.15,0.031,0.231,0.031c0.227,0,0.486-0.08,0.764-0.237
				c0.619-0.35,1.189-1.002,1.324-1.515c0.178-0.674,0.404-1.308,0.924-2.212C294.821,202.743,295.317,201.757,295.245,200.984"/>
			<path clip-path="url(#SVGID_8_)" fill="#231F20" d="M299.029,199.355c-0.092-0.504-0.218-1.194-0.304-2.028
				c-0.079-0.767-0.484-1.001-0.804-0.967c-0.363,0.037-0.718,0.423-0.661,0.981c0.088,0.852,0.037,3.577-0.304,4.138
				c-0.386,0.638-1.09,2.272-1.431,3.168c-0.062,0.11-0.502,0.918-0.754,1.799c-0.108,0.379-0.011,0.732,0.275,0.993
				c0.269,0.246,0.685,0.384,1.086,0.384c0.187,0,0.37-0.03,0.534-0.093c0.695-0.268,1.111-1.724,1.248-2.542
				c0.101-0.611,0.375-1.683,0.734-2.591c0.355-0.899,0.567-2.009,0.492-2.582C299.118,199.843,299.078,199.623,299.029,199.355"/>
			<path clip-path="url(#SVGID_8_)" fill="#231F20" d="M302.6,199.836c-0.012-0.405-0.165-0.69-0.358-1.052
				c-0.189-0.354-0.425-0.796-0.61-1.525c-0.226-0.894-0.665-1.13-1.002-1.051c-0.368,0.085-0.577,0.524-0.478,0.999
				c0.075,0.355,0.109,0.695,0.148,1.09c0.05,0.508,0.107,1.083,0.268,1.843c0.26,1.218-0.299,4.668-0.51,5.966l-0.039,0.245
				c-0.001,0.008-0.111,0.827-0.261,1.667c-0.146,0.812-0.124,1.633,1.02,2.138c0.169,0.075,0.326,0.112,0.471,0.112
				c0.151,0,0.288-0.039,0.41-0.119c0.487-0.318,0.525-1.152,0.525-1.4l-0.001-0.216c-0.004-0.741-0.012-2.121,0.259-3.245
				c0.292-1.21,0.195-4.271,0.163-5.276L302.6,199.836z"/>
			<path clip-path="url(#SVGID_8_)" fill="#231F20" d="M307.725,204.796c-0.204-0.408-0.375-1.056-0.592-1.875
				c-0.19-0.724-0.407-1.543-0.712-2.458c-0.364-1.091-0.678-1.632-1.051-1.809c-0.298-0.14-0.587-0.029-0.819,0.06
				c-0.684,0.263-0.599,0.917-0.429,2.219l0.012,0.09c0.056,0.435,0.176,0.871,0.329,1.422l0.091,0.331
				c0.183,0.67,0.388,1.873,0.366,3.058c-0.005,0.247-0.018,0.463-0.031,0.668c-0.048,0.748-0.089,1.394,0.367,2.867
				c0.213,0.688,0.612,0.842,0.928,0.842c0.018,0,0.034,0,0.051-0.001c0.877-0.045,2.021-1.355,2.162-2.062
				C308.584,207.212,308.126,205.601,307.725,204.796"/>
			<path clip-path="url(#SVGID_8_)" fill="#231F20" d="M285.251,170.009c-0.144-0.552,0.656-1.62,1.124-1.007
				c0.466,0.613,0.977,1.196,0.67,1.59c-0.306,0.395-0.554,0.832-1.108,0.38C285.382,170.52,285.338,170.344,285.251,170.009"/>
			<path clip-path="url(#SVGID_8_)" fill="#231F20" d="M281.442,165.544c-0.161-0.729-0.287-1.485,0.453-1.62
				c0.481-0.087,0.691,0.261,0.729,1.066c0.029,0.613,0.131,1.255-0.102,1.59c-0.234,0.336-0.599,0.628-0.745,0.248
				C281.632,166.449,281.442,165.544,281.442,165.544"/>
			<path clip-path="url(#SVGID_8_)" fill="#231F20" d="M268.894,105.02c1.606,0.402,5.507,2.055,6.771,2.626
				c2.451,1.109,1.809,2.773,0.437,1.956c-1.816-1.082-2.831-1.576-4.757-2.335c-1.992-0.785-3.502-1.109-3.502-1.664
				C267.843,105.048,268.077,104.815,268.894,105.02"/>
			<path clip-path="url(#SVGID_8_)" fill="#231F20" d="M272.133,108.988c0.686,0.288,3.04,1.52,3.648,1.81
				c0.613,0.291,2.23,1.113,3.035,1.692c0.729,0.525,1.459,0.846,1.4,1.547c-0.058,0.7-0.7,0.817-1.225,0.379
				s-1.634-1.226-2.481-1.663c-0.919-0.476-2.305-1.109-3.472-1.664c-1.168-0.554-1.634-0.904-2.102-1.138
				C270.469,109.717,270.674,108.375,272.133,108.988"/>
			<path clip-path="url(#SVGID_8_)" fill="#231F20" d="M275.898,115.554c0.292,0.467,1.372,1.956,1.634,2.422
				c0.262,0.467,1.167,0.672,1.138-0.262c-0.029-0.934,0.205-1.955-0.642-2.335c-0.846-0.379-1.371-0.759-1.722-0.817
				C275.956,114.504,275.314,114.62,275.898,115.554"/>
			<path clip-path="url(#SVGID_8_)" fill="#231F20" d="M280.509,123.609c0.234,0.682,0.554,1.459,0.963,1.897
				c0.409,0.437,1.488,0.554,1.284-0.233c-0.205-0.789-0.321-1.81-0.905-2.131C281.268,122.821,280.188,122.675,280.509,123.609"/>
			<path clip-path="url(#SVGID_8_)" fill="#231F20" d="M276.773,122.85c0.105,0.563,0.496,1.08,0.904,1.138
				c0.409,0.058,0.847-0.321,0.496-0.992C277.823,122.325,276.599,121.916,276.773,122.85"/>
			<path clip-path="url(#SVGID_8_)" fill="#231F20" d="M273.388,123.083c0.355,0.761,0.671,0.992,1.226,1.051
				c0.554,0.058,0.992-0.409,0.583-1.138c-0.408-0.73-0.846-1.051-1.226-0.934C273.592,122.179,273.183,122.646,273.388,123.083"/>
			<path clip-path="url(#SVGID_8_)" fill="#231F20" d="M240.178,72.685c-0.058-1.517-0.613-6.945-0.496-10.243
				c0.117-3.298,0.555-6.157,1.663-8.171c1.123-2.039,2.481-3.998,3.094-4.494c0.613-0.496,2.188-1.897,1.663,1.517
				c-0.525,3.415-1.05,7.384-0.788,11.002c0.263,3.619,1.118,5.722,2.945,5.241c-1.97,0.992-5.125,1.915-5.125,1.915
				c1.099-0.601,0.779-3.012,0.779-4.879c0-1.868,0.023-6.381,0.526-8.697c0.671-3.093,1.255-6.391-0.963-3.006
				c-2.218,3.385-2.218,4.64-2.481,6.771c-0.262,2.13-0.438,6.157-0.204,7.85c0.233,1.693,1.122,2.492,2.028,2.149L240.178,72.685z"
				/>
			<path clip-path="url(#SVGID_8_)" fill="#231F20" d="M264.458,45.137c-1.189,1.382-4.275,6.32-4.1,11.281
				c0.176,4.961,0.44,7.512,1.023,8.679c0.584,1.168,2.902,1.518,2.377-0.174c-0.526-1.693-2.277-4.086,0.583-7.413
				c2.86-3.327,4.67-5.428,6.362-6.186c1.693-0.759,2.802-0.351,1.109,1.575c-1.692,1.926-3.852,2.86-4.786,6.712
				s-0.934,5.319-1.459,6.369c-0.525,1.051-1.926,1.919-0.817,2.561c1.109,0.642,2.086,0.971,2.809,1.138
				c0.615,0.143,1.992,0.197,1.795-0.481c-0.364-1.254-2.593-0.526-2.452-1.861c0.154-1.444,0.008-3.348,1.642-6.734
				c1.634-3.384,3.677-7.12,5.194-8.813c1.518-1.692,2.043-4.027-1.109-2.86c-3.151,1.168-5.289,2.758-7.193,5.1
				c-1.961,2.412-2.102,3.043-2.561,3.94c-0.497,0.969-0.89,0.117-0.879-1.296c0.017-2.46,0.266-5.03,1.338-7.087
				c1.073-2.057,1.572-3.065,1.839-3.611C265.698,44.903,265.538,43.882,264.458,45.137"/>
			<path clip-path="url(#SVGID_8_)" fill="#231F20" d="M273.359,69.854c1.222,0.102,3.633-0.131,5.559-0.875
				c1.926-0.745,4.816-2.496,6.129-3.502c1.313-1.007,1.663-1.313,2.232-1.751s2.364,0.569,0.394,1.882
				c-1.97,1.313-5.653,3.805-7.091,4.421c-1.533,0.657-4.772,1.401-6.172,1.401c-1.401,0-2.671,0.219-2.627-0.788
				S272.834,69.812,273.359,69.854"/>
			<path clip-path="url(#SVGID_8_)" fill="#231F20" d="M295.815,73.575c-0.36,0.9-0.481,2.189-0.394,2.758
				c0.087,0.569,1.007,1.138,1.138,0.219c0.131-0.919,0.569-2.452,0.7-2.889C297.391,73.225,296.252,72.481,295.815,73.575"/>
			<path clip-path="url(#SVGID_8_)" fill="#231F20" d="M243.177,81.98c-0.31,0.232-0.394,0.985,0.175,1.379
				c0.569,0.394,1.313,0.613,1.642,0.065c0.328-0.547-0.11-1.138-0.613-1.313C243.878,81.936,243.527,81.717,243.177,81.98"/>
			<path clip-path="url(#SVGID_8_)" fill="#231F20" d="M259.745,87.714c-0.425-0.391-0.241-1.97,0.81-1.554
				c1.05,0.416,2.014,1.029,2.999,1.247c0.984,0.22,2.17,0.407,2.648,0.482c0.832,0.131,0.963,0.919,0.175,1.313
				s-1.598,0.306-2.277-0.196c-0.678-0.504-1.663-1.029-2.275-0.92C261.211,88.195,260.555,88.458,259.745,87.714"/>
			<path clip-path="url(#SVGID_8_)" fill="#231F20" d="M247.248,85.329c-0.175-0.459-0.701-1.357,0.021-1.51
				c0.723-0.154,0.811-0.11,1.227-0.328c0.415-0.219,0.744-0.022,1.028,0.372c0.285,0.394,0.022,0.612,1.357,0.7
				c1.335,0.087,2.035,0.131,2.035,0.919c0,0.827-1.094,0.504-2.079,0.394c-0.985-0.11-1.247-0.328-1.554-0.11
				c-0.306,0.22-0.481,0.198-0.722,0.198c-0.241,0-0.7-0.044-0.897-0.219C247.467,85.57,247.248,85.329,247.248,85.329"/>
			<path clip-path="url(#SVGID_8_)" fill="#231F20" d="M254.099,86.554c-0.016-0.351,0-1.444,0.722-1.204
				c0.722,0.241,0.963,0.526,0.963,1.095c0,0.568,0.118,0.761-0.263,0.941c-0.372,0.175-0.875,0.087-1.028,0
				C254.34,87.298,254.12,87.035,254.099,86.554"/>
			<path clip-path="url(#SVGID_8_)" fill="#231F20" d="M269.157,89.071c-0.121,0.363,1.313,1.182,2.254,1.466
				c0.941,0.285,2.496,0.766,3.13,1.357c0.635,0.592,1.335,1.16,1.641,1.248c0.307,0.088,1.336-0.525,0.329-1.094
				s-1.904-1.007-2.692-1.467c-0.788-0.459-0.963-0.81-1.291-1.116c-0.329-0.307-0.635-0.657-1.467-0.744
				C270.229,88.633,269.441,88.217,269.157,89.071"/>
			<path clip-path="url(#SVGID_8_)" fill="#231F20" d="M272.33,88.064c0.197-0.635,1.466-0.416,2.495,0
				c1.029,0.416,2.123,0.722,2.692,1.292c0.452,0.451,0.679,1.072,0.263,1.291c-0.631,0.332-1.313,0.197-2.035-0.438
				c-0.723-0.635-0.854-0.766-1.598-0.897c-0.713-0.126-0.942,0.131-1.226-0.132C272.637,88.918,272.206,88.463,272.33,88.064"/>
			<path clip-path="url(#SVGID_8_)" fill="#231F20" d="M280.188,92.989c-0.375,0.346-0.197,1.094,0.569,1.598
				c0.766,0.503,1.365,0.904,1.839,1.313c0.634,0.547,1.464,0.876,2.298,1.51c1.094,0.831,2.692,0.875,1.816-0.416
				c-0.875-1.291-1.969-1.62-2.385-1.97c-0.545-0.459-1.401-1.401-1.97-1.685C281.84,93.083,280.756,92.464,280.188,92.989"/>
			<path clip-path="url(#SVGID_8_)" fill="#231F20" d="M289.687,100.803c-0.187,0.187-0.459,1.138-0.044,1.488
				c0.416,0.35,0.788,0.394,0.854,1.007c0.065,0.613,0.044,1.072,0.35,1.248c0.306,0.174,0.744,0.24,0.766-0.394
				c0.022-0.635-0.241-1.467-0.482-1.839c-0.24-0.372-0.503-0.919-0.656-1.138C290.321,100.956,290.103,100.387,289.687,100.803"/>
			<path clip-path="url(#SVGID_8_)" fill="#231F20" d="M286.535,99.708c-0.201,0.215-0.372,0.941,0.219,1.576
				c0.591,0.634,1.379,0.875,1.357,0.109s-0.088-1.116-0.482-1.444C287.236,99.622,286.864,99.357,286.535,99.708"/>
			<path clip-path="url(#SVGID_8_)" fill="#231F20" d="M293.473,97.804c-0.246,0.21-0.329,0.744,0.372,1.598
				c0.7,0.853,0.854,1.138,1.204,1.444c0.31,0.272,1.072,0.11,0.788-0.503c-0.285-0.613-0.788-1.226-1.051-1.642
				S293.932,97.41,293.473,97.804"/>
			<path clip-path="url(#SVGID_8_)" fill="#231F20" d="M293.188,93.295c-0.438,0.625-0.197,1.379,0.306,1.686
				c0.504,0.306,1.358,0,1.751-0.614c0.394-0.613,1.073-2.057,0.153-2.057C294.48,92.311,293.647,92.639,293.188,93.295"/>
			<path clip-path="url(#SVGID_8_)" fill="#231F20" d="M295.53,88.787c-0.02,0.03-0.042,0.059-0.062,0.09
				c-0.269,0.417-0.42,1.015-0.135,1.158c0.306,0.153,1.16-0.11,1.576-0.876s0.416-1.4,0.022-1.379
				C296.212,87.82,295.837,88.328,295.53,88.787"/>
			<path clip-path="url(#SVGID_8_)" fill="#231F20" d="M356.792,42.671c0.821,1.038,4.596,5.647,6.347,7.835
				c1.751,2.189,3.13,4.115,3.655,5.56c0.502,1.38,0.985,3.195-0.372,5.078c-1.356,1.882-2.32,2.889-4.114,3.633
				c-1.795,0.744-6.348,2.451-8.887,2.626c-2.539,0.175-3.896,0-6.565-0.656c-2.671-0.657-6.522-1.489-9.675-4.202
				c-3.151-2.714-5.296-5.078-6.04-5.56c-0.745-0.481-2.539-0.087-2.146,1.795c0.395,1.882,1.664,3.765,2.758,5.428
				c1.095,1.663,4.465,4.508,5.122,5.034c0.656,0.525,3.545,2.539,5.777,3.37c2.233,0.832,7.004,1.751,10.112,1.62
				c3.107-0.131,8.404-0.744,9.762-0.919c1.356-0.175,5.734-2.32,1.707-1.751s-6.435,1.838-7.267,1.182
				c-0.832-0.657-1.619-1.489-2.188-0.7c-0.569,0.787-1.663,1.444-2.058,0.831c-0.394-0.613-0.788-1.532-2.626-1.138
				c-1.839,0.394-2.627-0.044-3.809-0.044c-1.183,0-2.89,0.088-3.546-0.569c-0.656-0.657-1.356-1.051-2.188-1.357
				c-0.832-0.306-2.188-2.013-3.983-3.326c-1.795-1.314-4.115-4.115-4.859-5.166c-0.744-1.051-1.05-2.889,0.307-1.707
				c1.357,1.182,3.064,3.108,4.421,4.071c1.357,0.963,4.071,2.933,5.778,3.458c1.707,0.525,6.129,2.146,10.243,1.663
				c4.115-0.481,10.506-2.232,12.038-3.37c1.532-1.138,4.535-3.603,3.852-7.136c-0.635-3.282-0.787-3.654-1.342-4.537
				c-0.668-1.063-3.604-4.888-4.633-6.012c-1.022-1.116-2.4-3.093-3.218-4.056c-0.816-0.963-1.488-2.422-1.284-2.948
				c0.205-0.525,0.935-0.613,1.547,0.35c0.613,0.964,3.386,4.028,4.582,4.933c1.196,0.904,4.64,3.822,5.486,4.785
				c0.846,0.964,2.673,3.091,3.137,3.792c0.475,0.715,1.151,2.273,1.093,3.441c-0.059,1.167-0.166,3.223,0.972,3.865
				c1.139,0.642,3.334,2.341,4.166,3.377c0.826,1.028,2.723,3.573,2.823,4.304c0.334,2.426-1.073,3.458-1.276,4.305
				c-0.204,0.846-1.692,1.401-2.422,1.196c-0.729-0.204-2.043,0.351-2.306,1.109c-0.263,0.759,0.088,1.109,0.175,1.809
				c0.088,0.701,0.139,0.993-0.175,1.343c-0.332,0.37-0.496,0.963-0.204,1.167c0.292,0.204,0.793,0.38,1.459-0.7
				c0.45-0.73,1.814-0.78,0.997,0.183s-0.89,1.378-3.857,2.21c-0.955,0.268-1.955,1.05-2.83,1.517
				c-0.876,0.467-1.78,0.438-2.394,0.234c-0.612-0.205-1.226-1.197-1.809-1.284c-0.584-0.088-1.168-0.146-1.488,0.321
				c-0.321,0.466-0.146,0.992-1.139,1.284c-0.992,0.291-1.575,0.992-2.334,0.729c-0.759-0.262-1.488-2.071-2.715-0.963
				c-1.226,1.109-1.779,2.276-2.509,2.101c-0.73-0.175-1.46-0.175-3.152-0.087c-1.692,0.087-3.035,0.963-3.881,0.7
				c-0.847-0.262-1.255-1.328-1.08-2.115c0.175-0.789-2.626-1.927-3.634-1.095c-1.006,0.832-0.175,1.532-0.787,2.189
				c-0.613,0.657-2.408,1.663-3.021,2.32c-0.613,0.656-0.132,1.838,0.612,1.138c0.744-0.7,2.671-2.211,3.393-2.517
				c0.723-0.306,2.08-1.117,2.583-0.328c0.503,0.788,0.109,1.094-0.875,1.51c-0.985,0.416-4.027,2.014-4.641,2.517
				c-0.612,0.503-0.963,0.809-2.013,1.116c-1.052,0.306-1.817-0.109-2.059,0.504c-0.24,0.612-0.204,1.134-1.123,1.799
				c-1.226,0.887-2.893,1.512-3.501,1.232c-0.513-0.235,0.263-0.928,0.663-1.258c0.875-0.723,1.445-0.987,1.663-1.511
				c0.219-0.525-0.153-1.904-1.51-0.547c-1.357,1.357-3.502,3.239-3.896,3.699c-0.394,0.46-0.787,0.963-1.05,1.532
				c-0.263,0.569-0.118,1.118,0.24,1.269c0.569,0.241,2.429-0.561,1.641,0.402c-0.788,0.964-2.758,2.977-3.326,3.765
				c-0.569,0.788-1.183,1.948-2.058,2.823c-0.688,0.688-1.094,0.912-1.4,1.065c-0.342,0.171-0.854,1.072-0.394,1.663
				c0.459,0.591,2.517,1.138,3.349,0.7c0.832-0.437,0.679-1.4,1.467-2.998c0.787-1.598,3.195-5.275,6.106-7.792
				c2.91-2.517,5.34-4.377,7.397-5.712c2.058-1.336,4.728-3.349,6.741-3.721s4.224-1.138,6.522-0.985
				c2.298,0.153,3.239-0.262,3.939-0.634c0.7-0.373,2.451-0.526,3.721-0.526s3.393-0.985,4.946-0.919
				c1.554,0.066,3.371-0.941,4.902-1.116c1.532-0.175,3.874-0.657,5.122-1.97c1.247-1.314,3.217-3.546,3.939-6.61
				s0.656-6.588-0.46-8.383c-0.95-1.528-2.889-4.224-3.808-5.078c-0.92-0.853-2.08-3.129-2.802-5.23
				c-0.723-2.102-2.823-5.8-5.013-7.573c-2.188-1.773-5.012-4.334-6.521-5.757c-1.511-1.422-3.655-3.698-4.202-4.508
				c-0.548-0.81-0.941-1.948-1.904-1.861c-0.993,0.091-2.386,0.504-2.102,1.905c0.219,1.075,0.744,1.159,0.744,1.751
				C356.332,41.467,356.376,42.146,356.792,42.671"/>
			<path clip-path="url(#SVGID_8_)" fill="#231F20" d="M338.494,63.705c0.504,0.131,1.598,0.569,1.532-1.16
				s-1.291-6.085-2.145-8.252s-2.32-5.449-3.196-7.004c-0.875-1.553-1.598-3.72,0.132-3.326c1.729,0.394,3.37,1.072,4.815,3.348
				c1.444,2.277,2.166,3.678,3.326,7.179c1.16,3.502,2.473,7.902,2.867,9.193c0.364,1.194,0.395,2.779,1.664,3.327
				c-0.351,0.853-3.327-0.504-3.327-0.504l-1.095-0.328c0,0,1.51,0.132,1.947-0.525c0.264-0.394-0.327-1.839-1.203-4.334
				c-0.876-2.497-2.473-8.229-3.742-10.572c-1.27-2.341-2.474-4.004-3.152-4.442c-0.678-0.438-1.861-0.941-0.963,0.766
				c0.897,1.707,2.102,4.027,2.714,5.449c0.613,1.423,1.605,4.611,1.904,6.063c0.307,1.489,1.051,4.509,1.116,5.143
				c0.055,0.527,0.109,1.401,0.329,1.773C342.237,65.872,338.494,63.705,338.494,63.705"/>
			<path clip-path="url(#SVGID_8_)" fill="#231F20" d="M352.918,67.578c0.984-0.197,2.545-1.702,2.145-3.261
				c-0.416-1.619-2.67-9.477-3.939-12.673c-1.27-3.195-3.111-6.435-3.786-7.594c-1.467-2.517,0.7-4.399,1.97-2.955
				c1.883,2.142,3.479,4.049,4.837,6.129c1.356,2.079,2.363,4.026,3.327,6.281c0.963,2.254,2.867,6.785,3.217,8.164
				c0.351,1.379,0.307,2.538,1.007,2.758c0.7,0.218,1.313,0.35,1.313,0.35l-1.95,1.29l-2.706,0.981l-0.218-1.001
				c0,0,2.072-0.548,1.7-2.19c-0.372-1.641-2.648-8.733-4.181-11.512c-1.532-2.78-2.867-5.319-4.289-6.916
				c-1.423-1.598-1.379-1.663-1.971-2.145c-0.591-0.482-1.159,0-0.372,1.247c0.788,1.248,2.715,4.728,3.48,6.873
				c0.742,2.079,1.619,4.727,2.276,6.522c0.624,1.706,1.522,4.229,1.618,5.319c0.11,1.225,0.074,2.004,0.403,2.344
				c0.577,0.597,1.334,0.458,1.334,0.458l0.218,1.001l-2.865,0.53H352.918z"/>
			<path clip-path="url(#SVGID_8_)" fill="#231F20" d="M372.616,70.118c-1.86-0.548-4.137-0.701-5.822,0.065
				c-1.729,0.786-3.217,1.642-3.786,1.97c-0.223,0.128-0.056,0.346,0.267,0.551c-1.43,0.198-6.308,0.876-6.877,0.916
				c-0.636,0.043-0.788,0.043-0.438,0.372c0.351,0.328,0.679,1.575-0.24,2.429c-0.92,0.854-2.058,1.204-3.35,1.073
				c-1.21-0.124-2.933-1.226-3.063-1.905c-0.125-0.644-0.088-1.641,0.503-1.904c0.41-0.182-4.479-0.985-5.255-1.111v-0.008
				l-4.659-1.967c0,0-0.132,0.307-0.044,1.138c0.087,0.832-0.088,2.277-0.219,4.772c-0.132,2.495-1.621,5.756-3.152,6.61
				c-1.137,0.633-2.803,1.663-6.391,3.764c-3.59,2.101-5.472,0.219-6.916-2.057c-1.445-2.277-1.445-6.829-1.708-9.105
				c-0.262-2.277-2.407-5.779-3.983-7.573c-1.575-1.795-2.67-1.094-2.67,0c0,1.094,0.569,4.99,0.876,7.047
				c0.306,2.058,0.7,8.711,1.007,13.176c0.306,4.465,2.101,4.815,2.889,6.348c0.788,1.531-0.569,2.626-1.751,5.69
				s-4.858,3.983-6.347,3.808c-1.489-0.175-5.822-0.481-8.274-0.613c-2.451-0.131-2.888-1.313-3.108-2.319
				c-0.218-1.007-2.626-3.371-2.714-5.209c-0.087-1.839,1.095-3.765,2.189-5.385c1.095-1.619,0.613-3.983,0.745-5.515
				c0.131-1.532-0.176-4.553-0.22-5.953c-0.043-1.401-0.131-5.647,0.132-7.486c0.262-1.838,0.306-2.976-0.219-3.896
				c-0.526-0.919-1.444,0.657-2.32,1.795c-0.875,1.138-0.675,1.717-0.503,1.86c0.262,0.219,0.981,0.104,1.773,0.154
				c0.7,0.043,0.437,1.313,0.174,1.838c-0.262,0.526-0.437,3.152-0.437,4.115s0.219,5.122,0.131,8.142
				c-0.088,3.02-0.657,3.983-0.919,4.99c-0.263,1.007-0.876,2.539-1.795,4.334c-0.919,1.794-0.7,2.276,0.088,3.414
				c0.787,1.138,2.32,3.808,2.626,5.472c0.306,1.663,1.707,1.576,3.94,1.357c2.232-0.219,7.31,0.613,9.893,0.744
				c2.582,0.131,3.633-0.919,5.034-2.32c1.4-1.401,2.232-4.771,3.326-7.398c1.095-2.626,0.744-3.983,0.132-4.246
				c-0.613-0.263-1.691-0.541-2.392-1.022c-0.7-0.482-0.613-1.576-0.876-2.889c-0.263-1.314-0.394-4.028-0.35-5.385
				c0.044-1.357-0.395-6.741-0.963-8.886c-0.569-2.144-0.074-3.701,0.64-2.792c0.744,0.943,1.375,2.308,2.076,3.578
				c0.7,1.269,0.832,5.515,1.138,8.755c0.307,3.239,2.408,4.727,4.115,5.997c1.707,1.269,5.19-0.508,6.897-1.471
				c1.708-0.963,4.641-3.151,6.479-4.071c1.839-0.919,2.189-2.364,2.802-4.245c0.476-1.461,0.592-2.029,0.676-3.739
				c0.048-0.967,1.033-2.292,2.812-1.983c1.779,0.31,3.626,2.263,4.632,3.073c1.008,0.81,2.836,2.203,5.67,1.554
				c1.806-0.414,3.108-1.275,3.908-2.369c0.588-0.804,3.855-1.857,5.338-0.636c1.079,0.89,1.772,1.414,3.37,1.896
				s5.134,0.868,6.666-0.948C375.083,74.984,375.256,70.894,372.616,70.118 M372.616,75.808c-1.072,0.723-2.798,1.05-4.221,0.743
				c-1.423-0.306-3.527-1.312-3.396-2.581c0.033-0.323,0.052-0.579,0.034-0.782c0.01-0.003,0.022-0.003,0.032-0.006
				c0.655-0.219,2.489-1.773,4.202-1.773c1.27,0,3.021-0.197,3.677,0.963C373.671,73.656,373.729,75.059,372.616,75.808"/>
			<path clip-path="url(#SVGID_8_)" fill="#231F20" d="M371.062,56.416c0.048,0.435,0.262,1.182,0.831,1.27
				c0.569,0.087,0.963-0.613,0.832-1.139c-0.132-0.525-0.481-0.963-0.919-0.963C371.368,55.584,371.019,56.022,371.062,56.416"/>
			<path clip-path="url(#SVGID_8_)" fill="#231F20" d="M377.453,69.942c-0.159,0.637,0.219,2.058,1.182,2.189
				s2.232-0.35,2.014-1.051c-0.219-0.7-0.394-1.663-1.226-1.663S377.672,69.067,377.453,69.942"/>
			<path clip-path="url(#SVGID_8_)" fill="#231F20" d="M370.23,81.192c-0.415,0.326-0.7,0.919-0.219,1.182
				c0.481,0.263,1.838-0.044,1.838-0.525C371.85,81.367,370.843,80.711,370.23,81.192"/>
			<path clip-path="url(#SVGID_8_)" fill="#231F20" d="M372.812,78.565c-0.276,0.277-0.524,0.701-0.219,0.919
				c0.307,0.219,1.313,0.482,1.357-0.175C373.995,78.653,373.338,78.041,372.812,78.565"/>
			<path clip-path="url(#SVGID_8_)" fill="#231F20" d="M362.22,81.017c-0.523,0.065-1.242,0.461-1.138,0.963
				c0.131,0.635,0.547,1.225,1.356,1.007c0.398-0.108,1.248-0.832,1.007-1.445C363.23,80.994,362.92,80.929,362.22,81.017"/>
			<path clip-path="url(#SVGID_8_)" fill="#231F20" d="M345.958,76.268c-0.128,0.254-0.153,0.788,0.109,0.832
				c0.263,0.043,0.7,0.131,0.722-0.132c0.022-0.263,0.044-0.569-0.219-0.657C346.308,76.224,346.067,76.049,345.958,76.268"/>
			<path clip-path="url(#SVGID_8_)" fill="#231F20" d="M331.666,90.56c-0.155,0.297-0.416,0.832-0.066,1.138
				c0.351,0.306,0.723,0.416,0.962-0.044c0.242-0.459,0.614-0.766,0.373-1.007C332.694,90.407,331.95,90.013,331.666,90.56"/>
			<path clip-path="url(#SVGID_8_)" fill="#231F20" d="M338.319,87.058c-0.417,0.394-0.723,1.226-0.438,1.488
				c0.284,0.263,0.656,0.613,1.466-0.24c0.811-0.854,1.86-1.576,2.232-1.926c0.372-0.351,0.7-1.248,0.395-1.445
				c-0.307-0.197-0.788-0.219-1.423,0.35S338.713,86.686,338.319,87.058"/>
			<path clip-path="url(#SVGID_8_)" fill="#231F20" d="M350.948,84.322c-0.08,0.186-0.088,0.722,0.263,0.985
				c0.35,0.263,1.729,0.613,2.079,0.285c0.35-0.329,0.831-1.139,1.226-0.898c0.394,0.241,0.787,0.613,1.116,0.285
				c0.328-0.329,1.116-1.27,0.394-1.729c-0.723-0.46-1.599-1.116-2.254-0.876c-0.656,0.241-0.744,0.306-0.963,0.832
				c-0.219,0.525,0.219,0.963-0.525,0.985S351.211,83.709,350.948,84.322"/>
			<path clip-path="url(#SVGID_8_)" fill="#231F20" d="M333.008,104.786c-0.438,0.554-1.021,1.401-0.817,1.664
				c0.205,0.262,0.847,0.116,1.343-0.555c0.496-0.672,1.021-1.168,1.196-1.664c0.175-0.496-0.32-1.283-0.671-0.787
				C333.708,103.94,333.008,104.786,333.008,104.786"/>
			<path clip-path="url(#SVGID_8_)" fill="#FFFFFF" d="M333.358,108.726c0.372-0.659,2.451-4.465,4.932-6.391
				c2.48-1.926,4.29-3.181,6.333-4.406c2.042-1.226,4.932-2.277,5.924-2.714c0.992-0.438,1.977,0.621,3.677,0.35
				c0.694-0.111,1.751-1.488,2.102-0.818c0.35,0.672-3.298,4.757-4.99,5.983c-1.693,1.226-2.686,3.152-3.648,4.057
				c-0.963,0.904-1.663,0.875-2.51,1.546c-0.846,0.671-1.779,2.452-2.159,3.327c-0.379,0.876-1.338,2.872-2.005,1.92
				c-0.352-0.502-0.942,0.21-1.205,1.027c-0.263,0.818-0.589,1.184-1.173,1.768c-0.584,0.583-1.467-0.145-0.797-1.341
				c0.672-1.197,0.89-2.703,2.115-4.075c1.226-1.371,1.897-2.247,2.16-2.83c0.263-0.584,0.467-1.255,0.992-1.751
				c0.525-0.496-0.059-1.43-1.168-0.088c-1.108,1.343-1.779,2.394-2.567,3.386c-0.788,0.992-2.189,3.093-2.657,4.114
				c-0.443,0.974-0.553,1.839-1.078,2.481s-1.664,0.437-1.197-0.73c0.468-1.167,0.847-2.568,1.868-4.027s2.859-3.911,3.618-4.757
				c0.759-0.846,1.751-1.721,2.16-2.188c0.408-0.468,0-1.489-0.963-0.584c-0.963,0.905-2.656,2.48-3.356,3.239
				c-0.67,0.726-2.422,3.21-2.918,3.969c-0.496,0.759-0.963,1.751-1.255,1.897C333.3,111.235,332.074,111.001,333.358,108.726"/>
			<path clip-path="url(#SVGID_8_)" fill="#231F20" d="M329.806,125.36c0.765-0.825,2.626-2.802,3.917-3.174
				c1.395-0.401,2.32-0.284,2.627,0.35c0.307,0.635,0.635,1.927-0.285,2.255c-0.919,0.328-1.356,0.109-2.801,0.35
				c-1.445,0.241-2.211,1.094-2.648,1.598c-0.438,0.503-1.741,0.839-1.554,0C329.192,126.148,329.521,125.666,329.806,125.36"/>
			<path clip-path="url(#SVGID_8_)" fill="#FFFFFF" d="M331.557,127.461c-0.258,0.405-0.592,1.116-0.197,1.335
				c0.394,0.219,1.553,0.329,1.707-0.284c0.153-0.614-0.109-1.182-0.591-1.27C331.993,127.154,331.709,127.22,331.557,127.461"/>
			<path clip-path="url(#SVGID_8_)" fill="#FFFFFF" d="M330.353,131.291c0,0.418,0.263,1.642,0.656,1.904
				c0.395,0.263,1.226,0.46,1.664,0.46c0.438,0,1.138-0.678,0.35-1.313c-0.788-0.635-1.138-0.898-1.466-1.138
				C331.228,130.963,330.353,130.766,330.353,131.291"/>
			<path clip-path="url(#SVGID_8_)" fill="#231F20" d="M322.539,106.208c0.301,0.19,1.226,0.263,1.554-0.284
				c0.328-0.548,1.247-1.642,1.948-2.364c0.7-0.722,1.199-1.671,1.455-1.872c0.405-0.317,0.931-0.732,1.303-0.952
				c0.372-0.218,0.887-1.171,0.656-1.619c-0.199-0.39-0.81-0.613-1.182-0.241s-0.46,0.788-0.701,1.182
				c-0.24,0.394-0.372,0.635-1.203,1.291c-0.832,0.657-1.576,1.642-1.926,2.145c-0.351,0.504-0.723,1.094-1.313,1.336
				C322.539,105.07,321.948,105.836,322.539,106.208"/>
			<path clip-path="url(#SVGID_8_)" fill="#231F20" d="M326.763,97.99c-0.574,0.062-0.525,0.383-0.24,0.755
				c0.284,0.372,0.766,0.394,1.182,0.131c0.416-0.262,0.656-0.678,0.547-0.941c-0.077-0.186-0.591-0.536-0.831-0.317
				C327.179,97.837,327.069,97.957,326.763,97.99"/>
			<path clip-path="url(#SVGID_8_)" fill="#231F20" d="M325.712,95.725c-0.398,0.514-1.007,1.248-0.634,1.576
				c0.372,0.328,1.159,0.262,1.641-0.219c0.481-0.482,1.007-0.898,1.139-1.314c0.131-0.415,0.255-0.927-0.132-1.094
				C327.321,94.499,326.391,94.85,325.712,95.725"/>
			<path clip-path="url(#SVGID_8_)" fill="#231F20" d="M322.583,101.569c-0.71,0.669-0.952,1.16-1.313,1.751
				c-0.361,0.59-0.416,1.204,0.153,1.291c0.568,0.088,0.765-0.372,1.27-1.05c0.503-0.679,1.231-1.419,1.488-1.675
				c0.382-0.383,0.798-0.777,0.196-1.105C324.035,100.594,322.966,101.208,322.583,101.569"/>
			<path clip-path="url(#SVGID_8_)" fill="#231F20" d="M317.461,106.471c-0.396,0.516-0.963,0.93-0.7,1.412s1.028,0.492,1.423,0.011
				c0.394-0.482,0.766-0.886,1.049-1.16c0.25-0.24,0.199-0.928-0.218-0.985C318.38,105.661,317.68,106.187,317.461,106.471"/>
			<path clip-path="url(#SVGID_8_)" fill="#231F20" d="M316.87,110.477c-0.481,0.466-0.646,0.974-0.7,1.401
				c-0.046,0.353,0.154,1.44,1.028,0.853c0.767-0.514,1.291-1.816,1.642-2.341c0.351-0.526,0.525-0.799,0.569-1.051
				c0.046-0.263-0.395-1.116-1.116-0.504C317.57,109.448,317.221,110.138,316.87,110.477"/>
			<path clip-path="url(#SVGID_8_)" fill="#231F20" d="M323.633,119.877c0.393-0.679,0.821-1.915,0.821-2.692
				s0.065-1.806,0.427-2.386c0.361-0.58,0.685-2.001,0.875-2.363c0.23-0.438,0.448-0.784,0.668-0.832
				c0.295-0.066,1.072-0.109,0.35,1.39c-0.722,1.499-0.584,1.788-0.714,2.296c-0.178,0.693,0.392,1.29,0.829,0.305
				c0.438-0.985,0.651-1.408,0.837-1.879c0.187-0.47,0.891-0.665,1.237-0.284c0.339,0.372,0.481,1.127-0.121,1.827
				c-0.602,0.701-1.434,1.938-1.958,2.484c-0.525,0.548-1.5,1.861-1.806,2.309c-0.307,0.449-0.395,0.646-0.624,0.865
				C324.224,121.136,323.021,120.939,323.633,119.877"/>
			<path clip-path="url(#SVGID_8_)" fill="#231F20" d="M324.126,114.072c-0.298,0.569-0.975,1.565-1.051,2.429
				c-0.077,0.865-0.285,1.631-0.536,2.299c-0.252,0.667-0.963,0.705-1.313,0.015c-0.351-0.689-0.109-1.105-0.788-1.127
				s-0.996,0.164-0.733-0.963c0.263-1.127,0.361-1.631,0.821-1.882c0.459-0.252,0.7-0.121,0.908,0.284
				c0.208,0.405,0.361,0.81,0.656,0.252c0.296-0.558,0.263-0.93,0.58-1.291c0.419-0.477,0.388-0.911,0.486-1.272
				s0.412-0.617,0.707-0.611C324.355,112.217,324.52,113.317,324.126,114.072"/>
			<path clip-path="url(#SVGID_8_)" fill="#231F20" d="M318.041,114.274c0.044-0.449,0.766-1.454,1.236-2.145
				c0.492-0.722,0.887-1.499,1.149-1.794c0.263-0.296,0.811-0.142,1.215,0.174c0.404,0.318,0.635,0.526,0.569,1.303
				c-0.066,0.777-0.066,1.268-0.153,1.63c-0.121,0.493-0.46,0.865-0.712,0.745c-0.252-0.121-0.562-0.406-0.328-1.149
				c0.229-0.734-0.099-1.226-0.492-0.624c-0.549,0.838-0.493,1.444-0.777,1.948c-0.284,0.503-0.492,0.777-0.843,0.787
				C318.556,115.161,317.982,114.877,318.041,114.274"/>
			<path clip-path="url(#SVGID_8_)" fill="#231F20" d="M290.475,115.62c0.587,0.377,1.313,0.459,1.86,0.613
				c0.547,0.153,1.839,0.109,1.139-0.548c-0.701-0.656-0.985-0.765-1.401-1.05c-0.416-0.285-0.482-0.613-1.139-0.328
				C290.277,114.591,289.862,115.226,290.475,115.62"/>
			<path clip-path="url(#SVGID_8_)" fill="#231F20" d="M349.342,97.158c-0.851,0.425-1.947,0.919-1.642,1.401
				c0.307,0.481,1.532,0.087,2.43-0.416c0.897-0.504,1.883-0.788,2.079-0.92c0.411-0.273,0.591-1.378-0.568-1.116
				C350.843,96.288,349.692,96.983,349.342,97.158"/>
			<path clip-path="url(#SVGID_8_)" fill="#231F20" d="M306.32,129.576c-0.013-0.266-0.022-0.643-0.032-1.066
				c-0.024-1.058-0.056-2.373-0.167-3.068c-0.053-0.337-0.109-0.824-0.17-1.341c-0.114-0.988-0.243-2.108-0.423-2.874
				c-0.454-1.932-3.284-3.711-4.805-4.666c-0.386-0.243-0.72-0.453-0.818-0.548c-0.199-0.193-0.181-0.517-0.038-0.698
				c0.145-0.184,0.384-0.192,0.655-0.021c0.481,0.305,0.935,0.689,1.461,1.133c0.42,0.355,0.896,0.757,1.488,1.208
				c0.784,0.597,1.128,0.409,1.263,0.243c0.299-0.367-0.025-1.177-0.706-1.77c-0.265-0.229-0.354-0.862-0.286-1.316
				c0.039-0.252,0.114-0.364,0.137-0.375c0,0,0.02,0.003,0.061,0.041c0.171,0.158,0.375,0.361,0.602,0.586
				c0.55,0.546,1.234,1.225,1.892,1.716c0.511,0.381,0.796,0.179,0.894,0.073c0.331-0.353,0.197-1.214-0.275-1.771
				c-0.288-0.34-1.086-1.008-1.858-1.655c-0.38-0.318-0.756-0.633-1.064-0.902c-0.084-0.074-0.35-0.325-0.229-0.47
				c0.156-0.186,0.742-0.211,1.142,0.11c0.552,0.444,2.126,1.78,2.737,2.316c0.369,0.323,0.708,0.255,0.901,0.084
				c0.241-0.213,0.345-0.666,0.06-1.087c-0.42-0.623-2.413-2.348-2.934-2.638c-0.555-0.308-1.647-0.717-2.216-0.863
				c-0.443-0.113-0.875-0.482-1.284-1.095c-0.238-0.357-1.165-0.855-2.447-1.519c-0.48-0.248-0.934-0.483-1.164-0.632
				c-0.355-0.23-0.736-0.228-1.041,0.004c-0.298,0.227-0.443,0.622-0.344,0.94c0.104,0.331,0.566,0.619,1.207,1.017
				c0.425,0.264,0.906,0.563,1.344,0.92c0.32,0.259,0.458,0.486,0.379,0.622c-0.12,0.206-0.65,0.279-0.919,0.173l-0.149-0.058
				c-0.535-0.207-1.431-0.553-1.894-1.129c-0.38-0.472-0.891-0.58-1.242-0.525c-0.307,0.048-0.544,0.219-0.634,0.456
				c-0.315,0.827,0.736,1.434,1.302,1.76c0.373,0.216,0.611,0.486,0.65,0.742c0.021,0.136-0.016,0.26-0.108,0.36
				c-0.18,0.195-0.804-0.107-1.219-0.307c-0.106-0.052-0.208-0.101-0.303-0.143c-0.626-0.28-2.091-0.908-2.62-1.059
				c-0.454-0.13-0.708,0.023-0.842,0.174c-0.299,0.339-0.292,1.034,0.02,1.77c0.995,2.35,2.994,3.18,5.76,4.329l0.728,0.304
				c1.473,0.619,2.946,1.585,3.577,2.083c1.219,0.963,1.19,2.4,1.171,3.351c-0.014,0.687-0.063,4.203,0.335,5.931
				c0.166,0.723,0.131,1.425-0.083,1.632c-0.035,0.036-0.085,0.069-0.188,0.041c-0.504-0.13-0.584-0.284-0.771-1.012
				c-0.198-0.77-0.255-1.676-0.301-2.403c-0.057-0.929-0.368-1.987-0.831-2.831c-0.371-0.677-1.61-2.11-2.648-2.942
				c-0.335-0.267-0.725-0.33-1.073-0.173c-0.351,0.158-0.6,0.522-0.619,0.905c-0.02,0.386,0.19,0.735,0.576,0.957
				c1.024,0.592,1.55,1.882,2.106,3.248l0.095,0.235c0.564,1.379,0.516,2.863,0.425,4.145c-0.04,0.582,0.05,0.958,0.287,1.184
				c0.291,0.28,0.731,0.256,1.156,0.206l0.053-0.005c0.722-0.083,0.965-0.111,1.667,0.23c0.219,0.106,0.401,0.229,0.576,0.347
				c0.339,0.229,0.664,0.446,1.134,0.446c0.114,0,0.238-0.013,0.373-0.042c0.882-0.192,0.729-1.381,0.604-2.336
				C306.36,130.007,306.329,129.771,306.32,129.576"/>
			<path clip-path="url(#SVGID_8_)" fill="#231F20" d="M303.148,108.338c0.405,0.32,0.903,0.556,1.303,0.745
				c0.165,0.078,0.312,0.148,0.427,0.212c0.107,0.059,0.223,0.119,0.348,0.185c0.822,0.431,2.066,1.082,3.608,2.926
				c1.856,2.22,2.745,3.596,2.977,4.058c0.096,0.192,0.287,0.314,0.513,0.328c0.014,0,0.026,0.001,0.04,0.001
				c0.244,0,0.479-0.128,0.617-0.339c0.118-0.181,0.267-0.582-0.069-1.241c-0.629-1.237-2.663-4.257-3.791-5.137l-0.155-0.121
				c-1.184-0.925-3.165-2.471-4.232-2.985c-0.788-0.379-1.552-0.136-1.835,0.318C302.726,107.564,302.701,107.985,303.148,108.338"
				/>
			<path clip-path="url(#SVGID_8_)" fill="#231F20" d="M315.469,117.915c0.355,0.654,0.89,1.397,1.477,1.397
				c0.054,0,0.107-0.006,0.162-0.019c0.205-0.049,0.361-0.18,0.45-0.378c0.198-0.438,0.052-1.182-0.402-2.041
				c-0.541-1.024-2.068-3.129-2.562-3.689c-0.25-0.285-1.533-1.681-2.222-1.211c-0.143,0.097-0.231,0.234-0.257,0.397
				c-0.064,0.427,0.315,0.952,0.678,1.41C313.411,114.564,314.768,116.625,315.469,117.915"/>
			<path clip-path="url(#SVGID_8_)" fill="#231F20" d="M311.078,134.178c-0.005-0.315-0.01-0.614,0.013-0.88l0.014-0.15
				c0.122-1.425,0.178-2.535-0.301-2.798c-0.232-0.128-0.441-0.149-0.622-0.064c-0.256,0.121-0.426,0.445-0.531,1.017
				c-0.028,0.151-0.095,0.226-0.149,0.232c-0.062,0.006-0.152-0.057-0.223-0.214c-0.174-0.385-0.115-1.29-0.026-2.661l0.022-0.356
				c0.147-2.293-0.041-3.798-0.561-4.473c-0.414-0.539-0.767-0.499-0.939-0.427c-0.382,0.159-0.565,0.737-0.468,1.476
				c0.226,1.706,0.458,4.996-0.1,6.504c-0.628,1.694-1.007,2.717-0.24,3.086c0.406,0.195,0.828-0.127,1.2-0.411
				c0.246-0.187,0.522-0.401,0.658-0.335c0.385,0.192,0.461,0.829,0.215,1.792c-0.174,0.681,0.016,1.362,0.44,1.586
				c0.062,0.032,0.162,0.072,0.294,0.072c0.192,0,0.447-0.086,0.727-0.405C311.107,136.076,311.092,135.068,311.078,134.178"/>
			<path clip-path="url(#SVGID_8_)" fill="#231F20" d="M318.881,133.098c-0.028-0.153-0.079-0.406-0.143-0.72
				c-0.225-1.106-0.643-3.165-0.643-3.976c0-0.93-0.45-3.749-1.309-3.998c-0.555-0.161-0.807,0.35-1.01,0.761
				c-0.115,0.232-0.234,0.473-0.385,0.575c-0.348,0.237-1.129-0.281-1.404-0.64c-0.21-0.275-0.336-1.111-0.336-2.235
				c0-0.403-0.095-0.679-0.289-0.843c-0.257-0.216-0.607-0.177-0.944-0.118c-0.147,0.026-0.273,0.111-0.367,0.248
				c-0.336,0.489-0.184,1.481-0.103,1.885l0.018,0.09c0.187,0.927,0.361,1.803-0.121,2.266c-0.516,0.496-0.357,1.205-0.204,1.89
				c0.04,0.18,0.081,0.362,0.108,0.54c0.101,0.632,0.097,1.493,0.09,3.057c-0.002,0.455-0.004,0.969-0.004,1.556
				c0,2.672-0.39,3.741-0.79,4.602c-0.045,0.078-0.369,0.651-0.477,1.278c-0.059,0.335,0.101,0.633,0.404,0.758
				c0.341,0.139,0.852,0.04,1.226-0.497c0.438-0.631,0.752-1.465,0.99-2.626c0.132-0.641,0.26-1.159,0.423-1.815l0.166-0.673
				c0.171-0.698,0.11-2.576,0.062-4.086c-0.021-0.683-0.041-1.274-0.034-1.621c0.021-1.048,0.158-1.521,0.446-1.536
				c0.373-0.018,0.831,0.132,0.893,0.41c0.052,0.231,0.046,0.938,0.039,1.621c-0.004,0.408-0.007,0.818,0.001,1.147
				c0.021,0.888-0.191,4.176-0.608,6.042c-0.369,1.65-0.864,2.984-1.558,4.198c-0.366,0.643-0.066,0.984,0.081,1.101
				c0.391,0.312,1.132,0.264,1.525-0.098c0.422-0.388,0.632-1.072,0.876-1.863c0.1-0.324,0.203-0.659,0.33-1.008
				c0.446-1.227,0.491-2.155,0.514-3.537c0.011-0.662,0.015-1.649,0.021-2.599c0.006-1.026,0.011-2.011,0.022-2.499
				c0.005-0.212,0.056-0.475,0.27-0.524c0.146-0.034,0.294,0.048,0.315,0.089c0.093,0.213,0.143,2.024,0.159,2.647
				c0.007,0.268,0.045,0.67,0.088,1.136c0.091,0.978,0.204,2.196,0.132,3.068c-0.103,1.223-0.697,3.62-1.342,4.996
				c-0.435,0.93-0.915,1.815-1.338,2.596c-0.193,0.357-0.377,0.695-0.541,1.009c-0.328,0.63-0.06,1.169,0.353,1.424
				c0.17,0.105,0.35,0.158,0.515,0.158c0.205,0,0.388-0.081,0.502-0.238c0.195-0.268,0.351-0.655,0.53-1.104
				c0.159-0.397,0.34-0.846,0.576-1.279c0.465-0.849,1.836-3.813,2.163-5.456C319.104,136.993,319.019,133.859,318.881,133.098"/>
			<path clip-path="url(#SVGID_8_)" fill="#231F20" d="M318.972,142.461c-0.178-0.027-0.516-0.001-0.787,0.474
				c-0.426,0.745-0.632,1.661-0.765,2.375c-0.061,0.33-0.194,0.643-0.323,0.945c-0.155,0.362-0.302,0.705-0.314,1.05
				c-0.021,0.544,0.012,1.047,0.606,1.225c0.074,0.023,0.148,0.034,0.221,0.034c0.154,0,0.302-0.05,0.429-0.147
				c0.276-0.212,0.421-0.613,0.407-1.131c-0.021-0.795,0.16-1.385,0.625-2.04c0.518-0.729,0.758-1.485,0.641-2.02
				C319.628,142.842,319.31,142.514,318.972,142.461"/>
			<path clip-path="url(#SVGID_8_)" fill="#231F20" d="M320.826,129.432c-0.331-1.301-0.452-2.079-0.433-2.775
				c0.017-0.578-0.325-0.994-0.651-1.048c-0.204-0.034-0.454,0.06-0.566,0.422c-0.161,0.521-0.348,2.099-0.112,3.132
				c0.083,0.369,0.269,0.803,0.465,1.264c0.315,0.738,0.672,1.576,0.583,2.151c-0.023,0.151-0.049,0.304-0.074,0.456
				c-0.137,0.83-0.279,1.69-0.144,2.405c0.038,0.203,0.085,0.421,0.133,0.643c0.143,0.662,0.29,1.345,0.258,1.83
				c-0.029,0.466,0.246,0.911,0.589,0.951c0.013,0.002,0.027,0.003,0.045,0.003c0.139,0,0.43-0.07,0.523-0.629
				c0.075-0.438,0.046-0.825,0.015-1.234c-0.035-0.474-0.072-0.964,0.03-1.636c0.052-0.342,0.123-0.669,0.191-0.986
				c0.195-0.896,0.363-1.671,0.035-2.396C321.293,131.057,321.126,130.608,320.826,129.432"/>
			<path clip-path="url(#SVGID_8_)" fill="#231F20" d="M322.384,126.212c-0.206-1.533-0.278-2.273-0.196-2.886
				c0.031-0.241-0.075-0.468-0.29-0.622c-0.276-0.198-0.68-0.242-0.958-0.104c-0.218,0.108-0.341,0.309-0.349,0.566v0.001
				c-0.017,0.582,0.007,0.971,0.181,1.605c0.032,0.116,0.062,0.217,0.09,0.307c0.12,0.404,0.175,0.587,0.124,1.163
				c-0.069,0.781-0.043,1.733,0.471,1.829c0.044,0.008,0.088,0.012,0.131,0.012c0.181,0,0.354-0.069,0.492-0.199
				C322.391,127.587,322.493,127.025,322.384,126.212"/>
			<path clip-path="url(#SVGID_8_)" fill="#231F20" d="M326.146,126.686c0.205-0.287,0.367-0.514,0.48-1.025
				c0.187-0.836,0.814-2.744,1.71-4.307c0.609-1.062,0.812-1.739,0.657-2.196c-0.085-0.253-0.277-0.439-0.588-0.569
				c-0.884-0.371-1.428,0.743-1.866,1.639c-0.229,0.468-0.831,2.873-1.341,4.132c-0.854,2.113-0.834,2.545-1.002,4.306
				c-0.054,0.569-0.542,0.731-0.788-0.248c-0.066-0.261-0.345-0.34-0.55-0.306c-0.288,0.048-0.517,0.361-0.644,0.884
				c-0.149,0.614-0.119,1.104-0.082,1.672c0.013,0.208,0.027,0.429,0.034,0.671c0.007,0.347,0.028,0.848,0.052,1.391
				c0.036,0.859,0.078,1.833,0.078,2.435c0,0.541,0.085,1.263,0.167,1.959c0.069,0.593,0.142,1.206,0.16,1.704
				c0.032,0.773,0.03,1,0.026,1.412c-0.002,0.171-0.003,0.374-0.003,0.66c0,0.595,0.043,2.094,0.449,3.149
				c0.183,0.474,0.467,0.45,0.583,0.418c0.407-0.115,0.691-0.842,0.605-1.301c-0.103-0.556-0.115-0.952-0.106-1.629
				c0.013-0.856-0.157-1.603-0.308-2.263c-0.114-0.498-0.221-0.967-0.239-1.423c-0.046-1.143-0.013-1.865,0.294-2.643
				c0.134-0.337,0.228-0.367,0.243-0.354c0.084,0.057,0.184,0.332,0.29,0.623c0.037,0.105,0.079,0.219,0.126,0.342
				c0.829,2.177,0.642,3.695,0.425,5.452c-0.184,1.491-0.393,3.181-0.001,5.563c0.229,1.392,0.956,2.953,1.855,3.103
				c0.092,0.015,0.18,0.023,0.263,0.023c0.238,0,0.443-0.062,0.612-0.185c0.299-0.219,0.406-0.578,0.443-0.84
				c0.047-0.331-0.108-0.671-0.272-1.031c-0.102-0.223-0.206-0.453-0.279-0.706c-0.184-0.633-0.847-4.221-0.869-5.295
				c-0.026-1.266-0.19-2.217-0.35-3.136c-0.249-1.441-0.506-2.93-0.264-5.731c0.095-1.089-0.231-1.902-0.47-2.496
				c-0.049-0.12-0.094-0.232-0.131-0.336c-0.218-0.611-0.271-2.003,0.144-2.792C325.868,127.076,326.017,126.869,326.146,126.686"/>
			<path clip-path="url(#SVGID_8_)" fill="#231F20" d="M288.271,127.082c0.866-0.365,3.356-1.226,4.436-0.7
				c1.08,0.525,1.496,1.072,2.003,0.847c0.721-0.318,0.577-2.127-1.162-2.965c-1.508-0.725-1.083-2.425,0.376-1.725
				c1.46,0.7,1.876,1.274,2.518,2.296c0.642,1.021,0.963,2.072,0.993,2.743c0.029,0.671,0.087,0.963,0.816,0.934
				c0.73-0.029,1.722,0.496,1.372,1.109c-0.35,0.613-1.722,0.934-1.372,1.751c0.351,0.817,0.759,2.335,1.343,2.889
				c0.584,0.554,1.343,0.613,1.985,1.167c0.641,0.555,0.933,1.138,0.933,2.101c0,0.963,0.117,1.839,0.35,2.16
				c0.234,0.321,0.818,0.496,1.109,0.817c0.292,0.321,0.073,1.634-0.7,0.977c-0.773-0.656-1.11,0.846-0.204,1.927
				c0.354,0.422,0.802,0.817,0.846,1.006c0.044,0.19-0.379,1.124-0.963,0.467c-0.216-0.242-1.313-1.235-1.73-1.544
				c-0.697-0.518-0.641,0.307-0.391,0.63c1.332,1.722,2.623,1.986,2.997,2.052c1.144,0.203,1.252,0.664,1.269,0.891
				c0.012,0.165,0.16,1.429-1.604,0.452c-1.766-0.978-2.568-1.43-3.079-1.926c-0.511-0.496-0.627-1.138-1.079-1.503
				c-0.453-0.365-1.183-0.598-1.255-0.117c-0.074,0.482,0.262,0.876,0.466,1.372c0.205,0.496-0.16,1.43-0.729,0.788
				s-0.701-1.445-0.934-2.145c-0.234-0.701-0.934-2.393-0.598-3.385c0.335-0.992,0.729-2.131,0.977-2.773
				c0.248-0.642,0.219-2.115-0.933-1.415c-1.153,0.7-1.805,1.299-2.247,1.488c-0.511,0.219-1.614,0.74-3.145,0.044
				c-1.204-0.547-2.145-1.62-2.56-2.517c-0.394-0.848-0.872-3.09-0.389-4.169c0.38-0.846,0.491-0.829-0.37-1.106
				c-0.939-0.302-1.444-0.627-1.854-0.802c-0.856-0.367-0.744-1.115-0.029-1.232C286.447,127.85,287.717,127.314,288.271,127.082"/>
			<path clip-path="url(#SVGID_8_)" fill="#FFFFFF" d="M292.479,128.58c-0.971-0.088-1.854,0.5-1.383,1.677
				c0.471,1.177,0.838,1.792,1.736,1.972c0.588,0.118,1.854-0.206,1.736-1.472c-0.117-1.265-0.235-1.677-0.735-1.942
				C293.333,128.55,292.479,128.58,292.479,128.58"/>
			<path clip-path="url(#SVGID_8_)" fill="#FFFFFF" d="M292.094,135.712c-0.438,0.175-0.744,0.722-0.438,1.05
				c0.307,0.329,1.05,0.503,1.423,0.372c0.437-0.152,0.656-0.568,0.613-1.006c-0.044-0.438-0.46-0.657-0.766-0.657
				C292.619,135.472,292.094,135.712,292.094,135.712"/>
			<path clip-path="url(#SVGID_8_)" fill="#231F20" d="M303.884,137.033c-0.12,0.395,0.146,1.167,0.583,1.255
				c0.438,0.087,1.46-0.788,0.905-1.196C304.818,136.683,304.088,136.362,303.884,137.033"/>
			<path clip-path="url(#SVGID_8_)" fill="#231F20" d="M280.625,128.862c-0.941-1.026-1.686-1.751-1.576-2.495
				c0.109-0.744,0.875-1.029,1.357-0.175c0.482,0.853,1.379,2.167,1.663,2.561c0.285,0.393,0.679,1.159,0.657,1.553
				c-0.022,0.394-0.285,0.942-0.81,0.766c-0.525-0.175-0.854-0.525-0.875-1.138C281.02,129.321,280.867,129.125,280.625,128.862"/>
			<path clip-path="url(#SVGID_8_)" fill="#231F20" d="M286.754,137.901c0.416,0.744,1.247,2.232,1.598,2.933
				c0.35,0.7,1.488,2.276,1.531,3.042c0.044,0.766,0.154,1.532,0.679,1.532s0.7-1.007,1.292-0.941
				c0.59,0.066,0.853,0.963,1.137,1.685c0.285,0.723,0.635,1.511,1.007,1.751c0.372,0.241,1.292-0.634,0.657-1.356
				c-0.635-0.723-1.007-1.489-1.466-2.627c-0.46-1.138-0.832-1.335-1.467-1.335c-0.635,0-1.269,0.153-1.291-0.701
				c-0.022-0.853-0.176-1.357-0.832-1.357c-0.657,0-1.204-0.306-1.182-1.291s-0.306-3.086-0.897-3.458
				c-0.591-0.372-1.442,0.02-1.204,0.853C286.535,137.398,286.754,137.901,286.754,137.901"/>
			<path clip-path="url(#SVGID_8_)" fill="#231F20" d="M310.944,152.621c0.313,0.186,0.812,0.516,1.341,0.865
				c0.537,0.356,1.093,0.723,1.546,1.001c0.171,0.105,0.346,0.156,0.509,0.156c0.249,0,0.475-0.117,0.634-0.344
				c0.281-0.4,0.28-1.075-0.212-1.47c-0.408-0.326-2.335-1.747-3.102-2.094c-0.664-0.301-1.09-0.046-1.267,0.293
				C310.15,151.496,310.313,152.248,310.944,152.621"/>
			<path clip-path="url(#SVGID_8_)" fill="#231F20" d="M313.3,156.708c0.208-0.337,0.129-0.915-0.364-1.298
				c-0.253-0.196-1.059-0.679-1.383-0.848c-0.188-0.098-1.193-0.709-2.081-1.248c-0.689-0.419-1.284-0.78-1.459-0.879
				c-0.634-0.36-0.914-0.032-0.985,0.076c-0.246,0.376-0.066,1.041,0.37,1.368c0.385,0.289,1.057,0.657,1.706,1.013
				c0.176,0.097,0.352,0.192,0.517,0.284c0.31,0.173,0.632,0.412,0.974,0.665c0.472,0.35,1.006,0.747,1.604,1.033
				c0.2,0.096,0.377,0.136,0.528,0.136C313.004,157.011,313.195,156.875,313.3,156.708"/>
			<path clip-path="url(#SVGID_8_)" fill="#231F20" d="M306.4,154.627c-0.577-0.228-1.137-0.085-1.729,0.066
				c-0.361,0.092-0.734,0.187-1.148,0.214c-0.779,0.054-1.01-0.571-1.213-1.118c-0.051-0.139-0.099-0.267-0.151-0.374
				c-0.288-0.593-0.959-1.237-1.561-1.499c-0.322-0.141-0.618-0.106-0.793,0.093c-0.17,0.191-0.18,0.494-0.026,0.754
				c0.148,0.251,0.385,0.732,0.593,1.156c0.117,0.237,0.229,0.465,0.321,0.645c0.065,0.125,0.074,0.222,0.03,0.288
				c-0.067,0.096-0.259,0.151-0.453,0.129c-0.229-0.026-1.037-0.837-1.425-1.227c-0.187-0.188-0.346-0.348-0.448-0.438
				c-0.239-0.211-0.587-0.216-0.847-0.012c-0.217,0.171-0.354,0.501-0.168,0.853c0.297,0.563,2.169,2.719,2.95,3.486
				c0.795,0.78,3.016,2.8,3.961,3.64c0.897,0.797,2.283,1.435,3.298,1.517c0.051,0.004,0.101,0.006,0.147,0.006
				c0.515,0,0.789-0.234,0.875-0.467c0.11-0.295-0.03-0.63-0.365-0.876c-0.19-0.139-0.582-0.318-1.036-0.526
				c-0.431-0.197-0.92-0.42-1.205-0.604c-0.678-0.435-1.416-1.135-2.192-2.08c-0.19-0.23-0.228-0.383-0.182-0.432
				c0.116-0.121,0.628-0.083,0.993,0.188c0.526,0.392,1.556,1.191,2.236,1.786c0.484,0.424,1.21,0.918,1.908,0.306
				c0.196-0.171,0.277-0.41,0.229-0.673c-0.073-0.4-0.452-0.822-0.882-0.979c-0.548-0.202-1.272-0.656-1.659-1.325
				c-0.079-0.134-0.149-0.319-0.043-0.438c0.132-0.148,0.519-0.198,0.974,0.001c0.307,0.133,0.588,0.332,0.887,0.542
				c0.322,0.227,0.655,0.461,1.029,0.612c0.331,0.134,0.631,0.086,0.819-0.133c0.213-0.247,0.236-0.667,0.054-0.978
				C309.879,156.222,307.225,154.955,306.4,154.627"/>
			<path clip-path="url(#SVGID_8_)" fill="#231F20" d="M305.419,162.702c-0.714-0.134-1.946-0.792-3.139-1.675
				c-1.286-0.953-2.67-2.291-3.525-3.409c-0.421-0.552-1.229-1.543-2.084-2.593c-1.048-1.287-2.133-2.619-2.464-3.092
				c-0.262-0.376-0.726-0.383-1.049-0.195c-0.335,0.194-0.582,0.645-0.333,1.172c0.295,0.622,2.299,2.893,3.19,3.73
				c0.576,0.541,1.106,1.331,1.617,2.094c0.326,0.486,0.663,0.988,1.008,1.419c0.98,1.225,4.336,3.21,5.717,3.927
				c0.53,0.276,0.982,0.414,1.352,0.414c0.176,0,0.333-0.032,0.471-0.095c0.239-0.111,0.412-0.322,0.471-0.581
				c0.04-0.173,0.006-0.348-0.098-0.508C306.364,163.021,305.961,162.805,305.419,162.702"/>
			<path clip-path="url(#SVGID_8_)" fill="#231F20" d="M305.933,165.675c-0.521-0.02-2.616-0.724-3.257-1.033
				c-0.414-0.2-1.875-1.206-2.843-1.871c-0.505-0.349-0.872-0.601-0.975-0.661c-0.166-0.097-0.346-0.178-0.552-0.117
				c-0.197,0.057-0.363,0.227-0.524,0.537c-0.428,0.825,0.852,1.509,1.54,1.877c0.842,0.451,1.486,1.352,1.872,1.891l0.081,0.114
				c0.369,0.513,1.094,0.282,1.732,0.079c0.204-0.065,0.396-0.126,0.57-0.163c0.342-0.073,0.673,0.092,1.057,0.282
				c0.329,0.163,0.702,0.348,1.155,0.42c0.072,0.011,0.137,0.017,0.197,0.017c0.288,0,0.443-0.12,0.526-0.23
				c0.137-0.184,0.147-0.453,0.027-0.703C306.416,165.854,306.184,165.686,305.933,165.675"/>
			<path clip-path="url(#SVGID_8_)" fill="#231F20" d="M297.041,158.951l-0.187-0.15c-1.122-0.899-3.211-2.572-4.393-4.426
				c-1.206-1.891-2.764-4.733-3.336-6.081c-0.243-0.574-0.53-1.516-0.808-2.427c-0.347-1.137-0.706-2.313-1.014-2.904
				c-0.575-1.103-2.089-4.615-2.236-5.805c-0.151-1.23,0.366-3.098,0.619-3.624c0.227-0.471,0.27-0.95,0.118-1.316
				c-0.127-0.307-0.377-0.526-0.743-0.655c-0.655-0.229-2.101-0.413-2.639,0.176c-0.17,0.187-0.317,0.532-0.051,1.113
				c0.336,0.735,0.643,1.197,0.867,1.534c0.25,0.375,0.4,0.601,0.43,0.927c0.053,0.555,0.159,1.19,0.245,1.701l0.064,0.389
				c0.025,0.157,0.039,0.385,0.055,0.649c0.039,0.637,0.071,1.437,0.333,1.919c0.682,1.258,0.398,1.607,1.247,3.273
				c0.231,0.452,0.307,1.257-0.203,1.057c-0.355-0.14-0.777-1.031-1.301-0.975c-0.138,0.015-0.329,0.091-0.448,0.373
				c-0.302,0.712,0.818,1.957,1.755,2.536c0.861,0.534,1.742,1.768,2.096,2.653l0.282,0.71c0.374,0.943,0.839,2.116,1.078,2.645
				c0.321,0.711,1.636,2.628,2.01,3.139c0.378,0.519,2.139,2.744,2.929,3.301c0.33,0.233,0.63,0.462,0.934,0.694
				c0.379,0.289,0.771,0.588,1.235,0.906c0.238,0.162,0.494,0.233,0.729,0.233c0.313,0,0.59-0.126,0.739-0.327
				C297.651,159.913,297.652,159.443,297.041,158.951"/>
			<path clip-path="url(#SVGID_8_)" fill="#231F20" d="M319.935,164.231c-1.058-0.253-1.073-1.554-1.313-2.386
				c-0.241-0.831-1.313-0.175-1.926,0.438c-0.613,0.613-2.658,0.482-3.371,0.482c-0.503,0-0.766,0.437-0.766,1.072
				c0,0.635,1.007,0.875,1.772,1.094c0.767,0.219,1.444,0.854,2.583,1.073c1.102,0.212,2.101,0.394,3.721,0.394
				C321.816,166.398,321.488,164.603,319.935,164.231"/>
			<path clip-path="url(#SVGID_8_)" fill="#231F20" d="M320.46,167.886c-0.354,0.325-0.351,1.335,0.131,1.576
				c0.481,0.24,1.335,0.087,1.379-0.416c0.044-0.504-0.065-0.985-0.504-1.117C321.028,167.798,320.744,167.623,320.46,167.886"/>
			<path clip-path="url(#SVGID_8_)" fill="#231F20" d="M324.268,155.432c0.273-0.32,0.897-0.175,1.357-0.284
				c0.459-0.11,0.547-0.788,0.679-1.182c0.131-0.394,0.919-0.613,1.116,0.416c0.196,1.029,0.372,1.663,0.481,1.991
				c0.109,0.329,0.394,0.832-0.635,0.679c-1.029-0.153-1.467-0.175-2.058-0.175S323.633,156.177,324.268,155.432"/>
			<path clip-path="url(#SVGID_8_)" fill="#231F20" d="M329.521,155.082c-0.376-0.688-0.612-1.904,0.065-2.145
				c0.919-0.326,1.508,0.459,2.026,1.054c0.622,0.715,1.424,1.275,2.312,1.606c0.264,0.099,0.554,0.191,0.72,0.418
				c0.229,0.315,0.125,0.779-0.126,1.077c-0.251,0.298-0.612,0.475-0.954,0.662c-0.571,0.315-1.117,0.606-1.721,0.853
				c-0.428,0.175-1.133,0.386-1.514-0.023c-0.591-0.635-0.043-0.876-0.043-1.707C330.287,156.045,329.652,155.323,329.521,155.082"
				/>
			<path clip-path="url(#SVGID_8_)" fill="#231F20" d="M324.093,157.927c1.403,1.091,4.158,3.239,6.216,3.064
				s4.115-2.232,5.078-2.582c0.963-0.351,3.37-1.27,4.421,2.495c1.051,3.764,0.569,5.34-1.007,7.223
				c-1.576,1.882-3.809,2.32-4.071,4.377c-0.263,2.057,1.576,6.172,2.364,8.623c0.788,2.452,1.356,6.567,1.926,9.675
				c0.569,3.107,1.97,6.478,1.97,9.104c0,2.627-0.131,4.947-2.188,4.991c-2.058,0.043-3.853,0.7-5.472,1.575
				c-1.62,0.876-4.771,1.664-6.916,1.051c-2.146-0.613-3.99-2.114-3.356-5.093c0.671-3.151,2.188-4.785,4.494-5.107
				c1.959-0.272,3.667-0.504,4.021-1.727c0.355-1.221,0.608-2.451,1.558-2.214c0.601,0.149,0.792,0.889,0.562,1.735
				c-0.229,0.846-0.801,3.607-0.67,4.702c0.132,1.094,1.401,1.182,1.444,0.044c0.044-1.139,0.717-3.515,0.664-5.619
				c-0.036-1.448-0.306-3.197-0.597-4.026c-0.235-0.673,0.048-1.321,0.304-1.491c0.255-0.169,1.013-0.327,1.436,0.549
				c0.424,0.875,0.758,3.855,0.758,6.234c0,2.038-0.297,2.725-0.034,3.119s0.979-0.166,0.979-1.698c0-1.532,0.037-2.496-0.094-3.766
				c-0.132-1.269-1.095-5.297-1.488-7.354c-0.395-2.057-2.408-7.266-2.758-9.061c-0.351-1.795-0.963-2.889-2.188-2.233
				c-1.227,0.657-3.021,1.299-3.634,1.62c-0.518,0.271-0.699,1.051-1.4,1.226c-0.701,0.175-0.92-0.701-1.664-0.745
				c-0.744-0.043-1.663,0.832-2.319,1.445c-0.657,0.613-0.876,1.576-1.488,1.839c-0.613,0.262-1.664-0.307-1.051-1.139
				c0.612-0.831,0.612-1.882,0.175-2.013c-0.438-0.132-0.481-0.262-0.481-0.744s-0.612-1.007-1.313-0.613
				c-0.7,0.394-2.188,0.788-2.626,1.795c-0.438,1.007-0.832,2.276-1.62,1.751c-0.786-0.526-0.219-1.927,0.395-2.495
				c0.612-0.57,1.488-2.101,0.263-2.101s-4.334-0.088-5.385-0.745c-1.05-0.656-1.27-1.006-1.97-1.357
				c-0.7-0.35,0.044-1.532,0.92-1.006c0.875,0.525,1.706,0.249,1.006-0.364c-0.7-0.613-3.455-1.524-4.398-1.276
				c-0.245,0.065-0.185,0.474,0.03,0.804c0.425,0.651,0.038,1.037-0.49,0.836c-0.92-0.35-2.145-1.314-2.714-1.577
				c-0.569-0.262-0.744-1.181,0.263-1.488c1.006-0.306,2.094-0.236,3.02-0.306c0.963-0.073,2.233,0.029,2.889,0.248
				c0.656,0.219,1.444,0.408,2.276,0.978c0.832,0.568,1.795,1.181,2.275,1.313c0.482,0.131,1.008-0.613,0.438-0.919
				c-0.569-0.307-1.882-1.708-1.313-2.145c0.569-0.438,3.064,0.087,4.027,0.919s4.334,2.889,5.647,3.589
				c1.312,0.701,2.452,1.489,4.465,1.62c2.014,0.131,3.107,0.175,4.728-0.307c1.619-0.481,2.889-0.656,3.414-1.181
				c0.525-0.526,0.744-1.445-0.307-1.751c-1.051-0.307-2.276-0.832-3.107-0.044c-0.832,0.788-1.357,1.138-3.064,1.007
				c-1.707-0.132-2.714-0.306-3.546-0.876c-0.831-0.569-0.612-1.532,0.351-1.575c0.963-0.044,1.838-0.132,1.707-0.876
				c-0.132-0.744-0.732-0.992-1.314-1.051c-1.006-0.102-0.83-1.444,0.089-1.401c0.859,0.041,2.188,0.044,2.582-0.787
				c0.395-0.832,1.313-1.97,0.088-2.321c-1.226-0.35-3.399-0.408-4.406-0.408s-2.685-0.759-2.656-1.809
				c0.032-1.136,0.847-2.379,1.985-2.597C323.349,157.271,323.699,157.621,324.093,157.927"/>
			<path clip-path="url(#SVGID_8_)" fill="#FFFFFF" d="M338.101,160.773c0.517,0.563,1.751,3.02,0.875,4.552
				c-0.875,1.532-1.575,2.233-2.319,2.627c-0.744,0.394-1.883,0.35-1.488-0.7c0.394-1.051,1.05-1.927,1.05-2.715
				c0-0.787,0.132-1.006,0.569-1.181c0.438-0.176,0.7-0.613,0.525-1.445C337.138,161.079,337.619,160.248,338.101,160.773"/>
			<path clip-path="url(#SVGID_8_)" fill="#231F20" d="M334.073,185.111c-0.632,0.181-0.876,0.744-0.832,1.095
				c0.044,0.35,0.569,0.613,1.095,0.656c0.525,0.044,1.007-0.481,0.919-0.963C335.168,185.418,334.686,184.936,334.073,185.111"/>
			<path clip-path="url(#SVGID_8_)" fill="#231F20" d="M323.479,179.333c-0.097,0.436-0.043,1.05,0.395,1.05
				s0.875-0.306,0.875-0.787c0-0.482-0.219-0.832-0.568-0.876C323.83,178.676,323.567,178.939,323.479,179.333"/>
			<path clip-path="url(#SVGID_8_)" fill="#231F20" d="M318.752,177.013c-0.403,0-1.182,0.307-1.05,0.788
				c0.131,0.482,0.481,0.92,1.007,0.744c0.541-0.18,0.481-0.525,0.481-0.788C319.19,177.494,319.19,177.013,318.752,177.013"/>
			<path clip-path="url(#SVGID_8_)" fill="#231F20" d="M309.429,176.619c-0.039,0.392,0.131,1.051,0.612,1.226
				s1.357,0.219,1.532-0.438c0.175-0.657-0.044-0.963,0.395-1.094c0.438-0.131,0.963-0.35,0.612-1.007
				c-0.249-0.467-1.182-0.175-1.444,0.219s-0.481,0.744-0.656,0.744C310.304,176.269,309.473,176.182,309.429,176.619"/>
			<path clip-path="url(#SVGID_8_)" fill="#231F20" d="M294.239,143.701c0.15,0.601,0.263,1.4,0.701,1.444
				c0.437,0.044,1.007-0.788,0.744-1.138c-0.263-0.35-0.57-0.744-0.92-0.657C294.414,143.438,294.196,143.526,294.239,143.701"/>
			<path clip-path="url(#SVGID_8_)" fill="#231F20" d="M375.527,69.06c-0.876-0.163-1.751-0.163-1.343,0.598
				c0.407,0.76,1.284,2.336,1.343,3.043c0.058,0.706,0.233,1.032,0.642,1.303c0.408,0.272,0.575,0.346,0.751,0.617
				c0.175,0.272,0.416,0.035,0.475-0.508s-0.408-3.532-0.759-4.075C376.286,69.495,375.527,69.06,375.527,69.06"/>
			<path clip-path="url(#SVGID_8_)" fill="#231F20" d="M294.677,80.579c-0.481,2.495-2.582,6.566-6.828,7.179
				c-4.247,0.613-7.223-1.445-8.668-2.408c-1.444-0.962-5.34-2.67-6.916-3.064s-3.371-2.013-4.727-4.552
				c-1.357-2.539,1.619-1.795,4.158-1.401c2.539,0.394,6.916-1.182,9.367-1.882c2.452-0.701,4.947-3.196,7.748-5.341
				c2.802-2.145,4.509-4.946,4.947-7.178c0.438-2.233-0.876-1.883-2.32-1.357c-1.444,0.524-1.221,1.39-0.482,1.707
				c0.307,0.131,0.789,1.225,0.701,1.707c-0.088,0.481-1.751,1.882-3.765,3.72c-2.013,1.839-6.084,4.29-7.748,4.903
				c-1.663,0.613-5.209,1.182-6.872,1.27c-1.664,0.087-1.62,0.919-2.539,1.007c-0.919,0.087-1.138-1.226-2.627-1.664
				c-1.488-0.438-2.057,1.051-2.976,0.919c-0.92-0.131-3.59-1.969-5.078-2.845c-1.488-0.875-3.589-0.744-4.946-0.438
				c-1.358,0.307-2.758,0.35-3.502-0.437c-0.744-0.788-3.327,0.131-5.472,0.875c-2.145,0.744-4.071,2.845-4.99,4.246
				c-0.919,1.401-0.175,3.764,0.569,3.852c0.744,0.088,0.831-0.219,0.613-0.875c-0.219-0.657-0.219-2.014,0.919-2.889
				c1.138-0.876,1.357-0.263,0.744,0.525c-0.613,0.788-0.569,2.495-0.481,3.02c0.087,0.525,0.7,0.701,1.313,0.657
				c0.613-0.044,0.35-0.526,1.094-0.7c0.744-0.176,1.138,0.087,1.401-0.788c0.263-0.876,0.577-1.957,1.269-2.233
				c0.914-0.363,1.522,0.191,2.048,0.847c0.525,0.657,2.647,1.912,5.171,1.706c2.18-0.177,2.95-1.459,3.475-2.641
				c0.525-1.182,1.383-1.468,2.209-1.223c1.427,0.423,2.594,0.961,3.994,2.274c1.401,1.314,2.232,4.115,3.808,5.428
				c1.576,1.313,4.947,2.014,7.442,3.283c2.495,1.27,4.027,2.495,9.017,3.765c4.991,1.269,7.311-2.233,8.755-3.984
				c1.445-1.751,1.576-3.502,1.751-5.209C296.428,78.653,295.159,78.084,294.677,80.579 M257.455,75.516
				c-0.572,0.71-1.106,1.17-2.506,1.521c-1.401,0.35-2.98-0.003-4.498-1.638c-1.517-1.634,1.634-2.101,3.735-2.335
				c0,0,0.701,0.234,2.335,0.584C258.155,73.998,258.098,74.717,257.455,75.516"/>
		</g>
		<g>
			<defs>
				<rect id="SVGID_9_" y="-119" width="612" height="792"/>
			</defs>
			<clipPath id="SVGID_10_">
				<use xlink:href="#SVGID_9_"  overflow="visible"/>
			</clipPath>
			<path clip-path="url(#SVGID_10_)" fill="#0D223F" d="M116.748,446.903l-0.304-0.171c0.019-0.076,0.038-0.171,0.038-0.266
				c0-0.247-1.786-1.577-4.882-1.577c-2.964,0-4.237,0.912-4.237,2.09c0,3.115,11.19-1.444,11.19,5.434
				c0,2.507-2.432,4.445-7.295,4.445c-4.635,0-5.966-1.482-6.402-1.482c-0.114,0-0.171,0.095-0.266,0.152l-0.247-0.058l1.576-3.229
				l0.305,0.152c0,0.076-0.039,0.152-0.039,0.304c0,1.121,2.451,1.919,4.883,1.919c3.457,0,4.635-0.988,4.635-2.032
				c0-3.724-11.038,0.893-11.038-5.415c0-3.191,3.363-4.521,7.049-4.521c3.305,0,5.623,1.443,5.851,1.443
				c0.247,0,0.285-0.076,0.342-0.133l0.304,0.095L116.748,446.903z"/>
			<path clip-path="url(#SVGID_10_)" fill="#0D223F" d="M126.875,455.832c0,0.418,0.095,0.57,0.703,0.57v0.266h-4.084v-0.266
				c0.608,0,0.683-0.152,0.683-0.57v-12.158c0-0.418-0.075-0.571-0.683-0.571v-0.265h4.084v0.265c-0.608,0-0.703,0.153-0.703,0.571
				V455.832z"/>
			<path clip-path="url(#SVGID_10_)" fill="#0D223F" d="M147.603,455.832c0,0.418,0.133,0.57,0.513,0.57v0.266h-3.515v-0.266
				c0.19,0,0.38-0.038,0.38-0.152c0-0.171-0.114-0.247-0.361-0.513l-8.549-9.177v9.271c0,0.418,0.095,0.57,0.513,0.57v0.266h-3.362
				v-0.266c0.418,0,0.456-0.152,0.456-0.57v-12.158c0-0.418-0.038-0.571-0.456-0.571v-0.265h4.047v0.265
				c-0.362,0-0.514,0.077-0.514,0.248c0,0.058,0.077,0.152,0.209,0.285l8.245,8.758v-8.72c0-0.418-0.038-0.571-0.494-0.571v-0.265
				h3.401v0.265c-0.38,0-0.513,0.153-0.513,0.571V455.832z"/>
			<path clip-path="url(#SVGID_10_)" fill="#0D223F" d="M165.88,447.018l-0.285-0.152c0.019-0.114,0.019-0.209,0.019-0.304
				c0-0.456-2.298-1.672-4.673-1.672c-3.02,0-5.737,1.368-5.737,4.863s2.717,4.863,5.965,4.863c2.641,0,4.901-1.481,4.901-2.337
				c0-0.095-0.038-0.266-0.076-0.342l0.19-0.133l1.957,2.793l-0.152,0.075c-0.057-0.037-0.171-0.057-0.228-0.057
				c-0.57,0-2.033,2.242-6.82,2.242c-4.236,0-8.435-2.109-8.435-7.105c0-4.445,3.914-7.104,8.568-7.104
				c3.343,0,5.585,1.481,5.984,1.481c0.19,0,0.304-0.02,0.437-0.229l0.266,0.096L165.88,447.018z"/>
			<path clip-path="url(#SVGID_10_)" fill="#0D223F" d="M172.058,456.402c0.418,0,0.494-0.152,0.494-0.57v-12.159
				c0-0.417-0.076-0.569-0.494-0.569v-0.266h12.329c0.456,0,0.646-0.151,0.646-0.418h0.266v3.153h-0.266
				c0-0.342-0.19-0.493-0.646-0.493h-9.138v3.381h5.966c0.455,0,0.645-0.151,0.645-0.494h0.266v3.192h-0.266
				c0-0.153-0.037-0.267-0.152-0.343c-0.094-0.075-0.265-0.113-0.493-0.113h-5.966v3.724h9.309c0.456,0,0.646-0.152,0.646-0.456
				h0.266v3.115h-0.266c0-0.266-0.19-0.418-0.646-0.418h-12.5V456.402z"/>
			<path clip-path="url(#SVGID_10_)" fill="#0D223F" d="M441.738,446.333c-1.443,0.038-1.671,0.305-1.747,0.761h-0.267v-3.04h0.267
				c0,0.304,0.209,0.418,0.476,0.418c0.398,0,1.31-0.398,1.31-0.893c0-0.285-0.228-0.476-0.493-0.476v-0.266h3.723v0.266
				c-0.418,0-0.569,0.229-0.569,0.685v11.93c0,0.456,0.151,0.685,0.569,0.685v0.266h-3.837v-0.266c0.418,0,0.569-0.229,0.569-0.685
				V446.333z"/>
			<path clip-path="url(#SVGID_10_)" fill="#0D223F" d="M452.075,449.107c-1.35-0.229-1.995-1.387-1.995-2.584
				c0-2.906,3.42-3.875,6.003-3.875c2.584,0,6.003,0.969,6.003,3.875c0,1.197-0.646,2.355-1.994,2.584v0.038
				c1.614,0.342,2.83,1.596,2.83,3.343c0,3.344-3.856,4.37-6.839,4.37s-6.839-1.026-6.839-4.37c0-1.747,1.216-3.001,2.831-3.343
				V449.107z M456.083,450.323c-2.432,0-4.142,0.836-4.142,2.223s1.71,2.07,4.142,2.07s4.142-0.684,4.142-2.07
				S458.515,450.323,456.083,450.323 M456.083,444.89c-2.146,0-3.381,0.418-3.381,1.672s1.234,1.672,3.381,1.672
				c2.146,0,3.382-0.418,3.382-1.672S458.229,444.89,456.083,444.89"/>
			<path clip-path="url(#SVGID_10_)" fill="#0D223F" d="M477.686,446.789l-0.228-0.113c0.037-0.076,0.037-0.134,0.037-0.209
				c0-0.456-1.12-1.577-3.362-1.577c-2.697,0-4.464,1.425-4.655,4.18c1.426-1.235,3.079-1.634,4.675-1.634
				c2.906,0,5.737,1.52,5.737,4.578c0,3.516-3.229,4.845-6.288,4.845c-4.445,0-6.82-2.604-6.82-6.935s2.888-7.275,7.219-7.275
				c1.368,0,2.413,0.304,3.173,0.607s1.234,0.609,1.425,0.609c0.151,0,0.209-0.077,0.285-0.172l0.246,0.095L477.686,446.789z
				 M473.582,449.677c-2.279,0-3.609,1.292-3.609,2.47c0,1.71,1.33,2.47,3.609,2.47c2.28,0,3.609-0.76,3.609-2.47
				S475.862,449.677,473.582,449.677"/>
			<path clip-path="url(#SVGID_10_)" fill="#0D223F" d="M497.54,449.753c0,4.084-2.735,7.104-6.953,7.104
				c-4.217,0-6.953-3.021-6.953-7.104s2.736-7.104,6.953-7.104C494.805,442.648,497.54,445.669,497.54,449.753 M486.332,449.753
				c0,2.888,1.634,4.863,4.255,4.863c2.622,0,4.256-1.976,4.256-4.863s-1.634-4.863-4.256-4.863
				C487.966,444.89,486.332,446.865,486.332,449.753"/>
		</g>
	</g>
</switch>
</svg>
