<?xml version="1.0" encoding="UTF-8"?>
<svg width="377px" height="338px" viewBox="0 0 377 338" version="1.1" xmlns="http://www.w3.org/2000/svg" xmlns:xlink="http://www.w3.org/1999/xlink">
    <!-- Generator: Sketch 55.2 (78181) - https://sketchapp.com -->
    <title>Group</title>
    <desc>Created with Sketch.</desc>
    <g id="Home,-Beer,-Footer-Rvs" stroke="none" stroke-width="1" fill="none" fill-rule="evenodd" opacity="0.0631510417">
        <g id="Home-Large-Screens" transform="translate(-1543.000000, -5462.000000)" fill="#FFFFFF">
            <g id="Group" transform="translate(1543.000000, 5462.000000)">
                <path d="M318.845941,42.04818 C306.92074,47.8854584 306.418741,69.6695306 304.446857,95.5848779 C304.082095,100.345061 303.757059,114.676212 303.757059,114.676212 C302.886685,121.189386 294.410475,138.708449 290.600334,140.40361 C288.798191,141.198781 286.47238,140.208431 287.079113,134.595246 L295.656446,55.8516265 C295.826186,53.8962286 295.21223,53.4444269 293.410087,54.2468267 L289.155731,56.1299364 C287.357199,56.9287218 286.432653,58.0672622 286.259301,60.0190456 L280.751751,108.387132 C278.263421,104.14381 272.907554,103.485987 268.281212,105.538974 C254.579149,111.618418 244.680005,136.659077 246.449644,151.156491 C244.250235,157.514245 241.689676,163.112972 239.2808,164.182838 C237.218629,165.097285 235.770414,164.439462 235.030055,162.455148 C232.534502,155.768483 240.45454,136.369924 237.034442,127.20377 C235.550112,123.238758 231.223525,121.691789 225.679859,124.14959 C218.21126,127.467622 213.411565,135.509693 210.40679,142.333707 L211.349394,134.407297 C211.519135,132.455514 210.901567,132.003712 209.099424,132.802497 L205.238722,134.515729 C203.432968,135.321744 202.50481,136.449441 202.331458,138.404839 L199.926193,160.911794 C197.073101,177.881467 184.125844,187.633155 177.686525,190.488542 C172.919333,192.610203 168.906948,191.504192 167.054244,186.548831 C163.26216,176.388714 170.369609,153.599834 179.380322,149.602293 C181.056062,148.861338 183.609398,148.44568 184.620621,151.167334 C185.682404,154.019106 183.75747,164.840662 173.074628,169.575544 C172.200643,169.962286 170.676587,170.330956 169.896501,170.92372 C169.116415,171.527327 168.679423,172.889961 170.311824,173.515255 C171.908111,174.122476 173.948613,173.269475 176.018008,172.336956 C187.535108,167.059912 193.855248,152.999842 191.962817,147.914362 C190.157063,143.085505 184.721743,142.604788 179.188912,145.066203 C168.88889,149.638437 159.549529,166.05149 156.974524,180.042886 C156.638654,181.860936 156.429186,183.631999 156.328064,185.345231 C153.669994,193.723443 150.224615,202.672731 147.003149,204.104039 C144.045324,205.416071 141.582275,204.060666 142.069829,198.928199 L146.873135,163.485256 C147.042876,161.533473 146.421697,161.0889 144.623165,161.884071 L140.376032,163.767181 C138.566666,164.573195 137.64212,165.704506 137.468767,167.65629 L134.066726,190.109029 C134.05228,190.145173 134.034223,190.181317 134.016165,190.22469 C131.24975,199.687225 126.251422,214.032834 122.260705,215.807511 C120.194923,216.721958 118.746708,216.06052 118.013572,214.083436 C115.514408,207.389541 124.940445,187.615083 121.513123,178.445315 C120.032405,174.480303 115.832221,172.879118 110.292167,175.333305 C108.237218,176.251366 106.312285,177.534483 106.312285,177.534483 C106.312285,177.534483 102.094043,180.473001 100.41108,180.205535 C98.8364622,179.952526 98.4644768,179.399521 97.8758009,177.36822 C97.2799021,175.336919 99.9813103,173.580314 101.483698,175.861009 C103.191941,178.445315 105.795839,176.399557 103.639768,173.08514 C102.66105,171.585158 101.447583,170.977936 100.10049,170.627338 C98.5150379,170.197223 96.5359313,170.388787 94.3076307,172.532134 C91.5014887,175.221258 90.6780648,179.027236 92.8594158,182.681408 C94.0223215,184.633192 96.2975718,185.453664 98.8220161,185.609083 C98.330851,189.465663 97.3087941,196.643889 95.8786368,202.22093 C93.8273001,210.230471 89.9521516,222.356829 88.2258506,226.148349 C86.5031611,229.939869 90.8225251,230.409743 92.9352575,226.939906 C94.8421339,223.79898 100.616936,210.031678 102.46964,201.852259 C104.008142,195.104149 105.037422,188.182546 105.579148,184.278979 C106.474802,183.877779 107.691881,183.198269 108.583923,182.79707 C110.75444,181.83925 111.548972,182.338039 111.967907,183.436821 C114.430955,190.156016 104.929077,210.801548 109.266498,222.436346 C110.794166,226.520634 113.928956,228.88446 118.82255,226.715812 C124.561236,224.171265 129.234528,215.062942 132.445159,206.688345 C132.466828,213.544888 136.414207,218.912293 143.420533,215.807511 C149.386745,213.16176 154.13949,203.099232 157.259833,194.374037 C157.335675,194.616203 157.411517,194.872826 157.498193,195.118606 C160.228493,202.430566 167.494848,205.412457 175.606296,201.812501 C183.764693,198.190858 192.367306,189.26687 198.044597,178.535676 L196.921418,189.039162 C196.755289,190.990946 197.362022,191.439133 199.171388,190.633119 L203.671327,188.637962 C205.477081,187.839177 206.412462,186.707865 206.582203,184.748853 L209.493079,157.181719 C211.515523,146.898711 217.322829,135.509693 223.754925,132.657921 C225.557068,131.859135 226.741643,132.202505 227.200304,133.43502 C229.695857,140.128914 221.591632,159.028684 225.939888,170.674325 C227.467556,174.765842 230.598734,177.129669 235.499551,174.953791 C241.162396,172.445388 245.456479,165.234633 248.515427,157.796169 C251.386576,162.885264 256.80745,165.794867 262.900065,163.091285 C269.59219,160.123851 273.991007,151.384199 277.439997,141.336128 C276.421552,147.852916 280.405046,155.327524 286.335142,152.692617 C292.879196,149.793857 299.741062,138.719293 303.132268,130.01217 C303.139491,136.886785 307.090481,142.272262 314.10403,139.160251 C320.091911,136.507271 327.733863,126.003785 331.15035,117.867739 C331.67763,124.015857 335.549167,128.457972 342.060717,125.570055 C348.63005,122.660452 353.216666,114.842475 356.369513,106.804018 L354.581816,121.312276 C337.416317,142.073469 320.604745,157.760025 324.94939,169.405666 C326.849043,174.480303 331.757083,176.782685 338.590057,173.753806 C354.556536,166.669555 360.927236,138.715678 363.444458,118.106291 C371.292265,107.273892 378.157743,94.948741 381,81.6621557 L381,78.8537562 C380.295756,77.498351 378.359987,77.6790717 377.857988,79.9380803 C375.705529,89.8451887 370.678309,99.3004953 364.564025,108.220869 L365.116586,100.464337 L365.864168,93.6330944 L369.811547,61.99613 C369.988511,60.0407321 369.367332,59.5889304 367.565189,60.3913303 L363.314443,62.2780543 C361.512301,63.0732253 360.584143,64.2153801 360.407179,66.1635492 L358.077756,88.8584537 C357.210994,97.7679838 349.511258,112.153351 345.650556,113.862969 C342.689119,115.178615 340.22607,113.82321 340.713624,108.687128 L344.444312,73.2514147 C344.617665,71.288788 344.003708,70.8478295 342.194343,71.646615 L337.947209,73.533339 C336.141454,74.3321245 335.213297,75.463436 335.036333,77.4188339 L332.58773,101.035414 C331.200911,108.817247 321.139249,125.935111 317.303827,127.633885 C314.346001,128.949532 312.294665,126.67968 312.760549,122.284553 L313.652592,106.97751 C320.070242,93.0656314 324.512398,81.8790206 327.340209,71.3502331 C329.420437,63.6081586 330.850595,56.1335508 330.391933,48.6842438 C330.07412,43.4867167 326.867101,41 323.143636,41 C321.742371,41 320.268875,41.3542126 318.845941,42.04818 M318.578689,57.4961848 C319.600746,53.5637025 320.846717,50.336031 322.941391,49.830013 C325.245534,49.2878509 325.072181,54.1275511 323.548125,62.0648039 C321.78932,71.1948133 320.315825,75.7381315 314.215987,92.8487666 C315.725598,80.0645848 316.343166,66.0478879 318.578689,57.4961848 M257.490025,148.593871 C254.203552,139.800002 260.754829,113.938871 270.285599,109.706393 C273.75987,108.166652 275.807596,110.43289 276.916329,113.396709 C281.271808,125.045965 271.405167,148.915554 264.203819,152.107082 C263.539302,152.403464 262.878396,152.54804 262.246382,152.54804 C260.191433,152.54804 258.403737,151.058902 257.490025,148.593871 M332.854982,164.023804 C330.586955,157.955203 340.695567,146.822809 353.090263,131.794076 C350.66333,145.001144 346.015318,161.500943 337.528274,165.274391 C336.603728,165.679206 335.838088,165.867155 335.213297,165.867155 C333.996219,165.867155 333.277528,165.165959 332.854982,164.023804 M107.677435,136.066313 C97.2943481,140.819267 91.0572731,146.327634 84.9357664,153.664894 C70.0094023,154.680544 44.6855056,158.388933 22.019679,171.84901 C5.93402074,181.394677 -1.5851397,197.276411 0.278398623,208.018449 C0.639549461,210.436492 1.22100231,212.742488 2.02998018,214.896679 C5.25866867,223.549586 13.2473252,227.004965 21.2323702,223.455611 C24.7319218,221.908642 27.3538769,218.778559 26.5918486,216.74003 C25.472281,213.740066 18.0072932,218.315914 13.6554256,206.65943 C10.582032,198.414952 13.9985189,190.813839 15.9848485,187.618698 C18.5345735,183.527181 22.4350025,179.641686 27.8594881,176.330883 C44.5302107,166.192452 66.7698793,163.206946 79.6051801,160.976853 C70.312769,175.499568 64.3754493,194.26199 60.814502,210.859379 L51.1067675,215.959317 C47.7552877,217.452069 47.3255182,223.126699 50.8034008,221.583344 L59.7382725,216.823161 C59.7129919,217.556887 56.1556562,235.343418 53.717888,243.996325 C51.756839,250.950457 49.9799769,256.88171 46.9896479,262.809349 C45.2958505,266.138224 42.720845,269.170717 38.6109485,270.992382 C34.9452675,272.622482 31.3337591,272.015261 29.2246382,268.84542 C27.7439198,266.62617 26.9168844,263.286451 27.4405531,260.51781 C27.7800349,258.76482 29.2354728,256.296175 31.4782195,254.470896 C33.8220884,252.551642 31.7960322,250.299862 29.2390843,251.785387 C26.6821364,253.267296 24.8908282,255.201008 23.4426133,257.416643 C19.8274935,262.943082 20.5534066,268.733373 22.6769736,272.676699 C25.1761374,277.317606 32.1932981,281.015151 40.7959111,277.19833 C48.9037474,273.601989 53.6998305,269.257463 58.6187049,258.840722 C64.8846719,245.568595 69.5904674,226.535091 70.7642076,220.217096 C71.9271133,213.895486 72.7433142,211.054557 72.7433142,211.054557 L85.0621692,204.635358 C88.6700661,203.034173 88.7097927,197.533035 85.1055073,199.123377 L73.6823063,205.148605 C76.8893258,187.987368 80.9486612,172.326113 88.0416636,160.373246 C98.5836566,158.439535 106.90096,156.914252 114.6332,153.487788 C127.508227,147.773399 129.220082,140.660233 128.060788,137.56268 C126.793149,134.165131 123.643913,133.044663 120.086577,133.044663 C115.604696,133.044663 110.479965,134.822955 107.677435,136.066313 M107.879679,141.448175 C113.928956,138.76628 117.98468,138.780738 118.934506,140.971073 C119.963786,143.367429 118.147197,145.713183 111.455072,148.687846 C106.427853,150.917939 98.6161602,152.862494 91.7434597,153.75164 C95.7016729,149.103504 102.079597,144.021638 107.879679,141.448175 M276.497394,198.378808 C273.958503,200.876368 273.239813,204.371506 275.280315,207.696766 C276.696027,209.988305 279.783866,210.534081 282.842814,210.259386 C282.080786,218.720729 279.635794,229.491682 279.635794,229.491682 C275.038344,244.769809 266.43212,253.632352 260.548973,256.321476 C256.200717,258.313018 252.502532,257.351584 250.747339,252.826338 C247.143054,243.562595 253.398186,222.602609 261.636037,218.832776 C263.167316,218.131579 265.500351,217.723151 266.464623,220.213482 C267.472234,222.812245 265.709818,232.433815 255.951523,236.897616 C255.160602,237.262672 253.762948,237.620499 253.055093,238.177118 C252.340014,238.733738 251.957194,239.991554 253.463193,240.54456 C254.936689,241.079493 256.904961,240.407212 258.782945,239.518066 C269.310492,234.555476 274.976949,221.778523 273.171194,217.14123 C271.459339,212.742488 266.461012,212.362975 261.415735,214.679814 C251.996921,218.984581 243.61461,234.136204 241.41159,246.985445 C241.400755,247.07942 241.386309,247.16978 241.371863,247.26014 C236.76719,262.40092 228.211527,271.205632 222.357272,273.883913 C218.012627,275.875455 214.307219,274.917635 212.552026,270.392389 C208.951353,261.125032 215.210097,240.157817 223.437113,236.391598 C224.968392,235.690402 227.30865,235.292816 228.272922,237.772304 C229.284145,240.378296 227.640908,250.296248 217.87539,254.767278 C217.084469,255.128719 215.694039,255.490161 214.97896,256.04678 C214.271104,256.610629 213.884673,257.857602 215.390672,258.410607 C216.867779,258.956384 218.727706,258.146755 220.612913,257.264838 C231.136848,252.298633 236.774413,239.34096 234.97227,234.707281 C233.264027,230.301311 228.265699,229.921797 223.209588,232.231408 C213.80522,236.547018 205.422909,251.695026 203.216277,264.555111 C202.324235,269.749023 202.428968,274.628482 203.873572,278.358557 C206.466635,285.019922 213.173206,287.676516 220.580409,284.28981 C229.132461,280.3754 236.83942,269.271921 241.277964,258.02025 C241.476597,258.992528 241.733014,259.932275 242.065273,260.79612 C244.658336,267.461099 251.361295,270.114079 258.768499,266.71653 C269.95334,261.605749 278.66791,245.420404 282.683908,230.225408 C282.683908,230.225408 285.627287,218.27977 286.898538,209.052172 L286.949099,209.037714 C287.772523,208.658201 288.906536,208.007606 289.726349,207.631707 C291.18901,206.96304 291.976319,207.031714 292.438592,207.512431 C292.593886,207.682309 292.713066,207.910017 292.810577,208.152183 C295.183338,214.260542 286.66379,233.326575 290.784521,243.949337 C292.236347,247.683027 296.996315,248.955301 301.467363,246.913157 C308.466466,243.707172 310.326393,240.107215 311.720435,234.898845 C312.374118,232.469959 312.970017,228.635066 313.211988,225.898955 C313.475628,223.076097 310.023026,223.235132 309.604091,225.414623 C309.138206,227.857967 308.917904,229.206143 308.289502,231.790449 C307.664711,234.363912 306.32123,237.150625 303.23339,238.574704 C300.398356,239.86505 299.228227,238.53856 298.523983,236.742196 C296.331798,231.157927 303.410354,214.907522 302.102988,205.799199 C301.998254,204.96427 301.82129,204.179942 301.554039,203.489589 C300.141939,199.871561 296.270402,198.451096 291.221513,200.764321 C289.336306,201.628166 287.584724,202.824537 287.584724,202.824537 C287.584724,202.824537 283.742079,205.567877 282.196354,205.343783 C280.740916,205.126918 280.397823,204.624515 279.830816,202.773935 C279.256586,200.916126 281.719635,199.282411 283.124512,201.349856 C284.72441,203.702839 287.100782,201.798043 285.071115,198.783622 C284.157403,197.417374 283.030612,196.878826 281.806311,196.567986 C281.427103,196.474012 281.029837,196.416181 280.610902,196.416181 C279.393823,196.416181 277.999781,196.904127 276.497394,198.378808 M164.136145,230.319383 C156.111373,234.68198 151.647549,241.589125 149.058098,245.669798 C148.70417,246.237261 148.389969,246.797495 148.101048,247.350501 L149.87791,237.822906 C150.11627,235.527753 149.401191,234.981977 147.274012,235.889194 L142.232347,238.021699 C140.101557,238.921688 138.985601,240.237334 138.74363,242.532487 L136.699516,257.96242 L136.703127,257.966034 C135.861646,264.305716 130.870541,271.053827 125.91194,274.08632 C119.093413,277.595916 114.784883,273.77548 113.640035,270.316486 C112.07264,265.581604 113.538913,261.417799 115.691372,259.390113 C117.551299,257.517847 119.530405,256.433523 119.053686,255.204622 C118.306104,253.281754 114.506797,253.151635 111.220324,254.658846 C103.809509,258.05278 101.360907,265.693651 104.4343,273.601989 C109.963519,287.817478 129.516226,280.913948 133.886151,273.974273 C133.26136,276.703156 131.986498,282.544048 131.502555,285.019922 C128.320817,301.783573 125.579682,322.197783 115.824998,334.515705 C114.528466,336.171107 114.001186,337.324105 114.055358,338 L117.229874,338 C121.054462,336.087975 127.555177,330.283226 132.275418,320.867678 C138.035774,309.312397 141.78452,296.148702 144.020043,283.017537 C145.298517,275.50317 146.158056,267.941816 147.176502,261.020214 C149.390356,252.511884 151.022758,248.948072 156.064424,243.092721 C161.759773,236.489187 170.322659,231.389249 175.223476,232.549476 C179.138351,233.474766 179.727027,235.281973 181.056062,238.697594 C183.024334,245.095107 180.828537,254.535956 173.692196,261.4431 C168.798602,261.547918 166.321108,261.696109 161.94396,264.099695 C159.00058,265.722566 154.847346,270.222512 156.591704,273.341751 C158.184379,276.193523 162.045082,275.756179 166.360834,273.710421 C169.950674,272.008032 172.00201,269.452641 174.537289,266.308101 C179.163631,266.87195 184.295585,269.427341 186.289137,274.559808 C188.600503,280.516362 189.268632,289.19457 182.525946,300.023354 C180.398767,303.424517 175.255979,307.758199 169.51007,310.309976 C163.774994,312.868981 157.472912,312.984642 154.562036,307.450974 C153.113822,304.711248 153.186052,302.238989 153.976972,299.11975 C154.883461,296.53183 156.710884,293.914994 159.603702,292.776454 C162.958793,291.457193 164.977627,291.880079 166.992848,293.152353 C168.191869,293.904151 170.246817,292.245135 168.610804,290.502988 C167.487625,289.299388 166.198316,288.558433 163.912232,288.327111 C158.011027,287.741575 152.723779,290.987319 149.180889,297.077606 C145.637999,303.164279 146.356689,309.362999 149.30368,313.649694 C153.326901,319.519502 163.23688,319.873715 170.044573,317.401456 C174.544512,315.764126 180.882709,313.006328 186.722518,307.707598 C192.165062,302.766694 195.267347,296.857127 197.098382,291.355989 C198.759676,286.339183 199.106381,280.404315 197.06949,274.317642 C194.927866,267.873143 188.394647,262.520196 180.554062,261.576834 C189.853696,252.793808 192.197565,242.760195 189.088056,234.743425 C186.975324,229.314576 183.269916,226.079668 177.585402,226.079668 C173.945002,226.076061 169.495624,227.402551 164.136145,230.319383 M161.860895,270.515279 C161.423902,269.796011 162.709599,267.956274 163.746102,267.161103 C166.075525,265.411727 167.556244,265.028599 170.597134,265.17679 C169.795379,266.506894 167.552632,268.72253 165.717986,269.676735 C164.623699,270.233355 163.323556,270.797203 162.525412,270.797203 C162.214823,270.797203 161.980075,270.717686 161.860895,270.515279" id="Fill-158"></path>
                <path d="M180.942727,33.3524445 C170.821372,37.2438681 162.789238,60.861285 158.542239,76.9792637 C154.735455,91.774667 151.091045,109.872875 141.767131,120.30814 C135.210802,127.694941 148.381192,124.017891 157.044783,109.08805 C162.80728,99.1106 166.90273,87.5598665 169.666708,75.9473642 C173.6936,59.0954289 175.274047,41.6803091 182.371624,34.8930268 C182.880398,34.2244722 183.075248,33.6903553 182.974215,33.3815121 C182.89844,33.1271707 182.685549,33 182.346366,33 C181.999967,33 181.534493,33.1271707 180.942727,33.3524445" id="Fill-159"></path>
                <path d="M228.125366,1.59170404 C219.53388,4.67766084 211.231753,11.5678264 205.426695,19.2231648 C190.372839,20.8834457 176.265654,21.677493 165.480749,25.3337202 C122.701934,39.8467405 114.017567,67.1691884 119.447529,84.9955518 C121.708823,92.4198946 128.128324,95.6971446 134.883626,93.0876163 C137.837954,91.9470755 140.134971,89.4458263 139.609837,87.6880942 C138.820349,85.1254868 132.454432,88.6120766 129.410796,78.621517 C126.310001,64.1518084 133.961961,44.3511546 160.354436,33.4474406 C171.235794,28.9574637 180.859688,27.93603 200.911252,25.6838229 C194.313134,36.5297881 190.040611,49.2273273 188.243722,60.7482327 L182.742313,95.3506512 C182.517255,96.9351367 182.988805,97.3213324 184.467755,96.7510621 L188.157986,95.3289954 C189.636936,94.758725 190.429996,93.8780543 190.655054,92.2935689 L194.523902,68.2231058 C196.760189,60.4594882 201.986528,52.4504377 206.841343,50.5735985 C208.316721,50.0069374 209.238385,50.3426029 209.559896,51.3676459 C211.249615,56.9368053 203.183263,72.2583102 206.130446,81.9492973 C207.166426,85.3456545 209.570613,87.4137869 213.57521,85.8653945 C218.615787,83.9235878 223.127657,75.6005277 226.171294,68.4829759 C226.242741,68.7861576 226.314188,69.1001672 226.403496,69.3961303 C228.250398,75.4778113 233.930424,78.2389305 240.578556,75.6727138 C247.255266,73.0992785 253.699774,65.6532798 258.258084,57.3518756 C260.537239,53.1975641 257.04706,52.6092472 254.764332,55.87206 C250.656137,61.7335733 246.140695,65.230991 242.750541,66.5447784 C238.849541,68.0498591 235.680873,66.9706766 234.423408,62.8488489 C231.85132,54.3994631 238.560181,36.1472016 245.944216,33.2922404 C247.315996,32.768891 249.377238,32.5487233 250.0667,34.8153676 C250.784741,37.1830725 248.673486,45.6216304 239.9141,49.0035503 C239.210348,49.2778576 237.970745,49.5196811 237.320578,49.9636258 C236.673984,50.4183983 236.259592,51.5084088 237.538491,52.0895071 C238.781667,52.6561682 240.535687,52.1761305 242.218261,51.4975809 C251.674255,47.7258559 257.36857,36.7210813 256.082527,32.4909744 C254.857213,28.4702073 250.534677,27.8385787 245.997801,29.5890922 C237.559925,32.8482957 229.361397,45.8020957 226.66785,57.0883962 C226.324905,58.5068535 226.08913,59.8928271 225.928375,61.2427076 C223.199104,68.2916827 219.440999,76.3476541 216.77603,77.3726971 C215.093456,78.0259815 213.957451,77.4232273 213.460895,75.7773837 C211.76046,70.2118335 219.708924,54.4788678 217.383329,46.8560131 C216.3795,43.5534979 213.200114,42.0159335 208.766836,43.7303539 C203.276144,45.8490167 199.175093,51.34599 196.367231,56.4567676 L196.713749,54.4860864 C198.335593,43.9541309 201.736464,33.429394 206.880639,24.7634499 C215.050588,23.3305553 224.060039,21.2335484 229.943689,18.9488576 C238.1315,15.7726681 245.101143,9.70542438 243.582897,4.72097251 C242.496904,1.1621966 239.499708,0 236.120271,0 C233.433868,0 230.511691,0.736298465 228.125366,1.59170404 M226.078413,6.87572832 C228.750526,5.95535523 233.662498,4.29146507 234.605597,7.38103118 C235.073574,8.92581424 234.291231,11.7627289 228.382575,14.051029 C222.784712,16.2093942 216.94393,17.5412281 211.188885,18.3785872 C215.282791,13.2353258 220.280499,9.11349816 226.078413,6.87572832" id="Fill-160"></path>
            </g>
        </g>
    </g>
</svg>