<?xml version="1.0" encoding="UTF-8"?>
<svg width="167px" height="47px" viewBox="0 0 167 47" version="1.1" xmlns="http://www.w3.org/2000/svg" xmlns:xlink="http://www.w3.org/1999/xlink">
    <!-- Generator: Sketch 55.2 (78181) - https://sketchapp.com -->
    <title>Group 2</title>
    <desc>Created with Sketch.</desc>
    <g id="Home,-Beer,-Footer-Rvs" stroke="none" stroke-width="1" fill="none" fill-rule="evenodd">
        <g id="Home-Large-Screens" transform="translate(-870.000000, -5441.000000)" fill="#FFFFFE">
            <g id="Group-2" transform="translate(870.000000, 5441.000000)">
                <path d="M144.497507,9.09445347 L144.497507,36.6437689 C144.39446,40.0215827 146.144044,40.7955442 148.41662,42 L152,37.5418891 C151.263158,36.8862845 150.798892,36.32699 150.683657,35.2362497 L150.674792,6.90252959 C150.760111,4.33928986 148.324654,2.47342771 146.905263,2 L142,5.49268972 C143.174515,6.12044558 144.497507,7.22278951 144.497507,9.09445347" id="Fill-136"></path>
                <path d="M49.5216531,27.5630593 C50.0040003,27.3164994 50.2495588,27.5963162 50.5795281,27.9116835 L50.5784318,35.0527455 C50.1936504,35.4655899 48.4034848,37.3405918 47.9956823,37.2477018 C44.5085318,34.301598 45.8985685,29.4311804 49.5216531,27.5630593 M46.1046623,42 C47.7249101,40.655962 48.9603765,39.426603 50.6354365,37.8245372 C50.9500584,40.1754569 52.511109,40.8899072 54.4580374,41.9231651 L58,37.5171974 C57.2753831,36.869261 56.8171533,36.3165082 56.6954703,35.2385255 L56.6910853,19.9724555 C56.7743998,17.5481412 54.5775279,15.7580018 53.1557002,15.1960747 L53.1546039,15.1960747 C53.150219,15.1926343 53.1436415,15.1926343 53.1403528,15.1914875 C53.0800594,15.1674049 53.0186698,15.1444691 52.9627613,15.1226801 C52.9539914,15.1272673 52.9474139,15.1330012 52.9397402,15.1375884 C51.975046,14.8600652 51.1660183,15.0619002 50.7450608,15.2235976 C50.7023073,15.2373591 50.6584576,15.2453867 50.6157041,15.2660289 C49.2607472,15.9724516 45.6157377,18.2052519 45.6157377,18.2052519 C45.6157377,18.2052519 42.6799978,19.9930977 42.3982632,20.1593823 C42.1187211,20.3245201 41.6374702,20.6846122 41.6374702,21.5424112 C41.6374702,22.4139717 42.3138525,23.1238347 43.1502862,23.1238347 C43.892443,23.1238347 44.4065812,22.4128249 44.4471422,22.3451642 C44.9853977,21.5561726 46.7887182,19.079106 48.2346633,18.915115 C48.4122548,18.8967664 48.57998,18.915115 48.7444165,18.964427 C49.7003408,19.6215377 50.5795281,20.6215387 50.5795281,22.1353017 L50.5795281,25.7247547 C48.0581681,26.0561771 43.3706311,27.5722336 41.46536,30.1089333 C38.1656672,34.4908183 40.7506093,40.8440356 46.1046623,42" id="Fill-137"></path>
                <path d="M88.2698736,42 L92,37.5718317 C91.233425,36.9219522 90.7508521,36.3654065 90.6307861,35.2834263 C90.6307861,35.2834263 90.6238593,23.1396674 90.6238593,19.9432743 C90.6238593,16.7457289 87.1604178,15.189014 86.7505772,15 C86.7124794,14.9839102 80.0303463,19.6264004 80.0280374,19.6298572 C79.9125893,17.2458135 77.5228147,15.5231719 76.1074217,15.0714826 L71,18.5386588 C72.2237493,19.165493 73.5987356,20.2613004 73.5987356,22.1164529 L73.5987356,36.6811281 C73.4948323,40.035382 75.320066,40.8039452 77.6809786,42 L81.413414,37.5718317 C80.6503024,36.9219522 80.166575,36.3654065 80.0418911,35.2834263 L80.0372732,22.1176051 L80.0407367,22.1187574 L81.6616273,21.0494521 C82.8692139,21.6797431 84.1876306,22.9714362 84.1876306,24.7874115 L84.1841671,36.6811281 C84.0802639,40.035382 85.9020341,40.8039452 88.2698736,42" id="Fill-138"></path>
                <path d="M65.4143205,42 L69,37.560077 C68.2651297,36.9084724 67.8007094,36.3504493 67.6798936,35.2655969 L67.6765684,19.884724 C67.7641321,17.3314506 65.3256484,15.4702182 63.9057859,15 L59,18.47638 C60.172689,19.104878 61.4983374,20.2035944 61.4983374,22.0636714 L61.4927954,36.667009 C61.3930392,40.0301669 63.1443139,40.8007702 65.4143205,42" id="Fill-139"></path>
                <path d="M62.7114772,12 L67,8.38453915 C67,8.38453915 66.5093451,7.09896644 65.4604735,5.88022087 C64.5644469,4.83817075 63.2885228,4 63.2885228,4 L59,7.79102364 C59,7.79102364 60.2039319,8.89423758 61.0844524,9.91703242 C62.1676589,11.1776865 62.7114772,12 62.7114772,12" id="Fill-140"></path>
                <path d="M131.565835,18.8300847 C131.565835,18.8300847 132.286734,18.0979455 132.620751,18.3200551 C134.009683,19.9688374 135.048979,22.1958099 134.985299,23.7846578 C134.919217,25.6626008 133.50265,27.0199376 131.943106,27.8155367 C131.643932,27.6933177 131.396424,27.5440694 131.396424,27.5440694 L131.565835,18.8300847 Z M131.810941,30.9368238 C134.670507,29.0600559 140.381228,26.8166309 140.917097,23.1148033 C141.329211,20.2391296 140.237049,16.3010901 136.19641,13 L124,19.7220489 C124.532264,20.4718159 124.724503,21.1804514 124.79419,22.651781 C124.719698,27.1715362 124.664429,32.1989707 124.664429,35.8514406 C124.664429,39.3910929 130.017104,40.4029258 135.403421,42 C135.368577,41.9506423 141,35.5435426 141,35.5435426 L139.450067,34.1979576 C139.450067,34.1979576 137.247721,36.7222515 137.030249,36.7340033 C135.473108,36.8162662 133.030462,35.3002796 131.704007,34.0945415 C131.630716,34.0252057 131.426461,33.7137821 131.410842,33.5093002 C131.367588,32.9499129 131.380804,31.7030433 131.503357,31.2694007 C131.533395,31.1695101 131.737649,30.9826559 131.810941,30.9368238 L131.810941,30.9368238 Z" id="Fill-141"></path>
                <path d="M35.987642,23.2328626 L40,20.4866496 L35.9529599,16.5042362 L31.36177,19.6074454 C31.36177,17.4955071 29.0129559,15.5060334 27.294399,15 L22,18.47638 C23.2664939,19.1037227 24.6968308,20.2035944 24.6968308,22.0636714 L24.693243,36.667009 C24.584413,40.0301669 26.4739884,40.8007702 28.9244568,42 L32.7921068,37.560077 C31.9956149,36.9084724 31.4969105,36.3504493 31.3701415,35.2655969 L31.3641618,22.0347882 C31.4131951,22.0417202 33.4486745,20.7731707 33.4486745,20.7731707 L35.987642,23.2328626 Z" id="Fill-142"></path>
                <path d="M19.5023863,16.9710551 L12.0062538,16.9596994 L9.3842778,20.5753461 L12.0085578,20.5753461 L12.0062538,41.7661698 L8.20001097,39.1623137 C7.62630973,38.5968011 7.52838883,37.8564111 7.51686873,37.5066564 L7.51686873,37.3181522 L7.51686873,37.3067965 L7.51917275,35.7079176 L7.5249328,35.7079176 L7.5249328,31.1860881 L7.53184486,27.0128778 L7.54106095,26.9560994 L7.53184486,26.9560994 L7.56294915,7.48566044 C8.3013879,7.01099326 9.18037193,6.46251419 9.83356191,6.0128295 C11.3023753,7.72299403 15.5832465,12.7478799 15.5832465,12.7478799 L21,8.64166808 C21,8.64166808 16.5693675,3.26929861 13.6328926,0 C10.0121235,1.92819348 0.0426243897,7.6684868 0.0426243897,7.6684868 L0.0426243897,7.75024765 L0,7.75478992 L0,26.9560994 L0,35.7079176 L0,37.5021141 C0,38.7319336 0.769543036,40.7021431 1.45038126,41.5356496 C2.81551374,43.2117471 9.77711339,47 9.77711339,47 L19.5300346,40.5431636 L19.5023863,16.9710551 Z" id="Fill-143"></path>
                <path d="M162.02847,8 L155.417556,12.3549058 L155.417556,16.412236 L153,16.412236 L153,18.8695245 L155.417556,18.8695245 L155.412811,35.7168869 C155.301305,39.0485902 157.179122,39.8119863 159.608541,41 L163.44484,36.6016023 C162.659549,35.956092 162.162515,35.4032879 162.036773,34.3285818 L162.02847,18.8695245 L167,18.8695245 L167,16.412236 L162.02847,16.412236 L162.02847,8 Z" id="Fill-144"></path>
                <path d="M114.24361,40.4162054 C113.819998,40.6536537 112.109984,39.0937659 111.047063,38.0542193 C110.656806,37.6099978 110.407753,37.1214678 110.326589,36.3852643 L110.31547,25.8455123 C110.711286,25.4785467 111.270543,25.080906 111.270543,25.080906 C111.459556,25.042278 111.671918,25.0763615 111.930978,25.2263289 C117.445717,28.43813 119.07679,34.4527303 114.24361,40.4162054 L114.24361,40.4162054 Z M110.175378,19.8911262 L110.175378,19.8899901 L110.178714,7.47678213 L111.597425,6.50767483 C113.267412,8.91624163 115.435505,11.2759554 115.361012,13.5936329 C115.278735,16.3418985 112.762636,19.1912785 110.886957,20.3546617 C110.884734,20.3546617 110.884734,20.3523895 110.884734,20.3523895 C110.818023,20.3842007 110.746865,20.4023786 110.667924,20.4023786 C110.396635,20.4023786 110.175378,20.1785637 110.175378,19.9013513 L110.175378,19.8911262 Z M121.62958,10.2739007 C121.62958,4.53764896 115.99365,0 115.99365,0 L102,8.15504363 C102.890586,9.47407479 103.025119,10.6817665 103.040685,14.3741449 L103.040685,18.2051294 L103.035125,35.8819648 C103.034014,36.0353405 103.034014,36.1648577 103.040685,36.2818777 L103.040685,37.4975223 C103.040685,38.7268003 103.783395,40.6990984 104.441606,41.5341439 C105.760251,43.2121879 110.945885,47 110.945885,47 C110.945885,47 123.286225,40.2048877 122.994923,30.9932558 C122.994923,23.1631415 117.264486,19.7513839 117.264486,19.7513839 L116.902026,19.5241606 L117.264486,19.2026397 C117.264486,19.2026397 121.62958,16.014697 121.62958,10.2739007 L121.62958,10.2739007 Z" id="Fill-145"></path>
            </g>
        </g>
    </g>
</svg>