<?xml version="1.0" encoding="utf-8"?>
<!-- Generator: Adobe Illustrator 15.0.0, SVG Export Plug-In . SVG Version: 6.00 Build 0)  -->
<!DOCTYPE svg PUBLIC "-//W3C//DTD SVG 1.1//EN" "http://www.w3.org/Graphics/SVG/1.1/DTD/svg11.dtd">
<svg version="1.1" id="Layer_1" xmlns="http://www.w3.org/2000/svg" xmlns:xlink="http://www.w3.org/1999/xlink" x="0px" y="0px"
	 width="612px" height="188px" viewBox="0 229 612 188" enable-background="new 0 229 612 188" xml:space="preserve">
<g>
	<g>
		<defs>
			<rect id="SVGID_1_" y="-119" width="612" height="792"/>
		</defs>
		<clipPath id="SVGID_2_">
			<use xlink:href="#SVGID_1_"  overflow="visible"/>
		</clipPath>
	</g>
	<g>
		<defs>
			<rect id="SVGID_3_" y="-119" width="612" height="792"/>
		</defs>
		<clipPath id="SVGID_4_">
			<use xlink:href="#SVGID_3_"  overflow="visible"/>
		</clipPath>
	</g>
	<g>
		<defs>
			<rect id="SVGID_5_" y="-119" width="612" height="792"/>
		</defs>
		<clipPath id="SVGID_6_">
			<use xlink:href="#SVGID_5_"  overflow="visible"/>
		</clipPath>
	</g>
	<g>
		<defs>
			<rect id="SVGID_7_" y="-119" width="612" height="792"/>
		</defs>
		<clipPath id="SVGID_8_">
			<use xlink:href="#SVGID_7_"  overflow="visible"/>
		</clipPath>
	</g>
	<g>
		<defs>
			<rect id="SVGID_9_" y="-119" width="612" height="792"/>
		</defs>
		<clipPath id="SVGID_10_">
			<use xlink:href="#SVGID_9_"  overflow="visible"/>
		</clipPath>
		<path clip-path="url(#SVGID_10_)" fill="#ffffff" d="M301.136,337.989c0.072,0.221,0.133,0.417,0.171,0.551l-0.077,40.364
			l0.024,0.357c1.495,11.105,9.161,15.055,13.652,15.596c1.442,0.154,2.724,0.018,3.879-0.306c-4.72-1.174-11.89-5.375-13.223-15.29
			l-0.024-0.357l0.077-40.364c-0.161-0.565-0.618-1.992-1.443-3.487C303.185,335.957,302.142,336.945,301.136,337.989"/>
	</g>
	<g>
		<defs>
			<rect id="SVGID_11_" y="-119" width="612" height="792"/>
		</defs>
		<clipPath id="SVGID_12_">
			<use xlink:href="#SVGID_11_"  overflow="visible"/>
		</clipPath>
		<path clip-path="url(#SVGID_12_)" fill="#ffffff" d="M270.392,376.293l0.146-101.676c-2.71,0.152-7.924-4.5-10.648-7.889
			l-3.218,2.748c2.773,3.137,6.322,6.416,8.399,6.299l-0.147,100.518c-0.253,8.697-12.252,15.959-14.74,17.389
			c0,0,1.549,0.688,5.467,0C258.423,392.941,270.138,384.99,270.392,376.293"/>
	</g>
	<g>
		<defs>
			<rect id="SVGID_13_" y="-119" width="612" height="792"/>
		</defs>
		<clipPath id="SVGID_14_">
			<use xlink:href="#SVGID_13_"  overflow="visible"/>
		</clipPath>
		<path clip-path="url(#SVGID_14_)" fill="#ffffff" d="M32.245,386.578c1.651-3.061,3.526-5.792,5.543-8.24l-0.988,0.631
			c-0.618,0.402-15.201,10.143-14.169,30.062l0.062,1.207l0.73-0.962c0.111-0.146,11.266-14.75,26.535-16.573
			c0.58-0.103,14.915-2.454,32.648,3.565c19.078,6.477,46.095,8.183,50.847,7.872c5.416-0.354,26.59-5.812,33.037-19.182
			l1.111-2.301l-1.819,1.795c-0.183,0.18-18.448,17.659-51.461,12.804l0.064-0.437l-0.067,0.437
			c-0.552-0.079-13.762-2.011-34.917-7.605c-19.123-5.061-39.832-0.014-48.433,5.189l-0.95,0.574l0.295-1.068
			c0.088-0.317,0.187-0.664,0.293-1.021l-2.961,1.781L32.245,386.578z"/>
	</g>
	<g>
		<defs>
			<rect id="SVGID_15_" y="-119" width="612" height="792"/>
		</defs>
		<clipPath id="SVGID_16_">
			<use xlink:href="#SVGID_15_"  overflow="visible"/>
		</clipPath>
		<path clip-path="url(#SVGID_16_)" fill="#ffffff" d="M50.183,333.292l0.027,0.026c13.607,15.104,46.015,17.703,47.388,17.806
			c0.264,0.021,26.49,2.135,45.283,7.372c9.616,2.682,12.788,6.129,13.757,8.547c0.765,1.909,0.302,3.482,0.015,4.167l0.793,0.604
			c2.42-2.715,3.365-5.44,2.81-8.105c-1.172-5.632-8.527-8.889-8.84-9.023c-12.101-6.076-23.717-6.901-36.017-7.778
			c-14.221-1.013-28.919-2.058-47.125-10.703c-11.522-5.472-18.947-12.7-22.068-21.483c-4.025-11.322,0.644-21.23,0.69-21.33
			l1.084-2.274l-1.793,1.771c-5.061,4.997-7.586,10.674-7.508,16.872C38.838,322.594,50.071,333.186,50.183,333.292"/>
	</g>
	<g>
		<defs>
			<rect id="SVGID_17_" y="-119" width="612" height="792"/>
		</defs>
		<clipPath id="SVGID_18_">
			<use xlink:href="#SVGID_17_"  overflow="visible"/>
		</clipPath>
		<path clip-path="url(#SVGID_18_)" fill="#ffffff" d="M136.572,302.002c13.275,0,23.759-4.795,31.169-14.254l-0.712-0.648
			c-3.257,2.657-31.888,23.621-84.633-11.285c-1.509,1.903-2.684,3.824-3.596,5.674C84.574,285.27,111.554,302.002,136.572,302.002"
			/>
	</g>
	<g>
		<defs>
			<rect id="SVGID_19_" y="-119" width="612" height="792"/>
		</defs>
		<clipPath id="SVGID_20_">
			<use xlink:href="#SVGID_19_"  overflow="visible"/>
		</clipPath>
		<path clip-path="url(#SVGID_20_)" fill="#ffffff" d="M249.185,337.268c0,0-15.844,18.562-31.033-3.429
			c-1.328,2.614-2.302,5.009-3.01,7.097C221.39,347.232,237.878,360.339,249.185,337.268"/>
	</g>
	<g>
		<defs>
			<rect id="SVGID_21_" y="-119" width="612" height="792"/>
		</defs>
		<clipPath id="SVGID_22_">
			<use xlink:href="#SVGID_21_"  overflow="visible"/>
		</clipPath>
		<path clip-path="url(#SVGID_22_)" fill="#ffffff" d="M190.861,372.27c-6.335-13.686,0.027-36.654,9.835-45.278
			c10.808-9.503,14.118-18.694,14.118-18.694c-2.711,4.866-16.14,14.686-16.14,14.686s-16.009,12.697-16.355,35.668
			c-0.346,22.971,15.404,40.578,36.348,42.23c20.944,1.651,28.646-13.021,28.646-13.021
			C214.139,407.762,197.599,386.824,190.861,372.27"/>
	</g>
	<g>
		<defs>
			<rect id="SVGID_23_" y="-119" width="612" height="792"/>
		</defs>
		<clipPath id="SVGID_24_">
			<use xlink:href="#SVGID_23_"  overflow="visible"/>
		</clipPath>
		<path clip-path="url(#SVGID_24_)" fill="#ffffff" d="M288.472,390.271c-3.578-0.229-9.234,3.734-13.159,6.852
			c-3.924,3.117-14.506,1.887-14.506,1.887c1.193,4.617,16.353,5.963,20.855-0.154c4.502-6.119,15.81-5.51,15.81-5.51
			C294.548,390.113,288.472,390.271,288.472,390.271"/>
	</g>
	<g>
		<defs>
			<rect id="SVGID_25_" y="-119" width="612" height="792"/>
		</defs>
		<clipPath id="SVGID_26_">
			<use xlink:href="#SVGID_25_"  overflow="visible"/>
		</clipPath>
		<path clip-path="url(#SVGID_26_)" fill="#ffffff" d="M396.855,364.995c2.074-2.322,2.309-4.644,2.309-4.644h-32.43
			c0.256,1.416,0.606,3.021,1.114,4.644H396.855z"/>
	</g>
	<g>
		<defs>
			<rect id="SVGID_27_" y="-119" width="612" height="792"/>
		</defs>
		<clipPath id="SVGID_28_">
			<use xlink:href="#SVGID_27_"  overflow="visible"/>
		</clipPath>
		<path clip-path="url(#SVGID_28_)" fill="#ffffff" d="M373.267,336.438c2.841,2.287,4.15,6.465,4.15,6.465h4.271
			c0,0-1.543-6.092-7.388-10.853c-1.083-0.882-2.005-2.028-2.782-3.239c-0.928,1.174-1.705,2.33-2.355,3.459
			C370.304,333.693,371.667,335.148,373.267,336.438"/>
	</g>
	<g>
		<defs>
			<rect id="SVGID_29_" y="-119" width="612" height="792"/>
		</defs>
		<clipPath id="SVGID_30_">
			<use xlink:href="#SVGID_29_"  overflow="visible"/>
		</clipPath>
		<path clip-path="url(#SVGID_30_)" fill="#ffffff" d="M346.774,373.011c-7.157-22.625-2.632-39.655,11.658-52.093
			c8.019-6.979,13.751-15.205,13.751-15.205c-5.986,6.811-8.838,6.042-19.64,15.469c-16.198,14.139-16.044,31.976-16.044,31.976
			c0.462,31.743,23.779,40.055,23.779,40.055c15.583,5.656,25.973-4.848,25.973-4.848
			C358.664,400.483,346.774,373.011,346.774,373.011"/>
	</g>
	<g>
		<defs>
			<rect id="SVGID_31_" y="-119" width="612" height="792"/>
		</defs>
		<clipPath id="SVGID_32_">
			<use xlink:href="#SVGID_31_"  overflow="visible"/>
		</clipPath>
		<path clip-path="url(#SVGID_32_)" fill="#ffffff" d="M540.109,391.549c-9.696-1.961-15.583,5.656-15.583,5.656
			c6.232-2.885,14.312,0.462,25.626,3.658c11.312,3.194,16.623-4.647,16.623-4.647C558.694,401.921,549.807,393.511,540.109,391.549
			"/>
	</g>
	<g>
		<defs>
			<rect id="SVGID_33_" y="-119" width="612" height="792"/>
		</defs>
		<clipPath id="SVGID_34_">
			<use xlink:href="#SVGID_33_"  overflow="visible"/>
		</clipPath>
		<path clip-path="url(#SVGID_34_)" fill="#ffffff" d="M509.07,292.283c-12.582,3.693-12.006,14.197-12.006,14.197
			c0.577,11.082,9.812,13.84,9.812,13.84c-0.694,3.972-4.869,7.17-4.869,7.17c7.25,1.154,10.756-8.657,10.756-8.657
			C490.947,311.1,509.07,292.283,509.07,292.283"/>
	</g>
	<g>
		<defs>
			<rect id="SVGID_35_" y="-119" width="612" height="792"/>
		</defs>
		<clipPath id="SVGID_36_">
			<use xlink:href="#SVGID_35_"  overflow="visible"/>
		</clipPath>
		<path clip-path="url(#SVGID_36_)" fill="#ffffff" d="M540.108,359.062l21.815,11.89c5.426,1.964,2.538,7.964,2.538,7.964
			c14.084-8.425-16.621-20.199-16.621-20.199c-13.273-5.193-19.507-24.658-12.697-33.938c12.199-16.622,15.469-24.127,15.469-24.127
			c-5.425,7.389-7.041,6.119-14.775,15.354c-7.367,8.798-8.657,16.853-8.657,16.853
			C523.023,348.212,540.108,359.062,540.108,359.062"/>
	</g>
	<g>
		<defs>
			<rect id="SVGID_37_" y="-119" width="612" height="792"/>
		</defs>
		<clipPath id="SVGID_38_">
			<use xlink:href="#SVGID_37_"  overflow="visible"/>
		</clipPath>
		<path clip-path="url(#SVGID_38_)" fill="#ffffff" d="M572.07,339.537c0.194-0.018,0.39-0.041,0.582-0.069
			c9.466-1.385,13.271-4.019,15.813-12.929c0,0-15.299,18.74-34.914-0.51c-0.455,2.301-0.243,3.934,0.16,5.039
			c0.785,2.158,2.447,2.882,2.465,2.889c4.634,1.659,8.544,3.536,11.83,5.406C569.382,339.581,570.749,339.66,572.07,339.537"/>
	</g>
	<g>
		<defs>
			<rect id="SVGID_39_" y="-119" width="612" height="792"/>
		</defs>
		<clipPath id="SVGID_40_">
			<use xlink:href="#SVGID_39_"  overflow="visible"/>
		</clipPath>
		<path clip-path="url(#SVGID_40_)" fill="#ffffff" d="M531.244,312.229c1.808-5.685,1.138-13.75-2.825-18.004
			c-3.021-3.244-6.706-6.459-8.661-9.445c-0.015,0.033-3.539,4.398-7.464,8.064c-2.465,2.303-7.828,8.254-5.672,15.612
			c1.161,3.962,4.658,6.866,10.415,8.66c-0.884,2.791-2.024,5.237-2.737,5.708l2.418,4.712
			C517.177,327.329,528.025,322.346,531.244,312.229"/>
	</g>
	<g>
		<defs>
			<rect id="SVGID_41_" y="-119" width="612" height="792"/>
		</defs>
		<clipPath id="SVGID_42_">
			<use xlink:href="#SVGID_41_"  overflow="visible"/>
		</clipPath>
		<path clip-path="url(#SVGID_42_)" fill="#ffffff" d="M330.362,380.271l-0.002-41.176c0.085-4.637-7.927-15.924-11.373-20.562
			l-0.158-0.193c-0.993-1.104-5.126-5.657-5.942-9.295c-0.884,4.351-7.289,9.731-10.503,12.422
			c-1.678,1.406-3.734,3.796-5.574,6.126v-92.663c-6.024,20.355-25.135,30.899-33.038,30.899c2.429,3.391,8.38,6.636,11.338,6.469
			l-0.146,103.994c-0.254,8.697-11.095,17.118-13.583,18.546c0,0,2.75,0.871,5.09,0.871c2.895,0,6.688-0.334,12.404-5.079
			c4.539-3.768,10.342-4.691,10.43-4.699c4.315-0.507,9.999,2.682,10.04,2.713l-3.669-12.203l0.147-29.563
			c0.279-2.991,2.657-6.132,5.313-8.888c1.006-1.045,2.049-2.032,3.038-2.938c0.884-0.809,1.724-1.552,2.444-2.203
			c1.842,2.053,2.731,4.842,2.974,5.691l-0.077,40.363l0.023,0.357c1.495,11.105,10.32,15.055,14.812,15.596
			c8.373,0.893,11.607-7.469,12.96-10.737C335.717,385.372,330.362,384.729,330.362,380.271"/>
	</g>
	<g>
		<defs>
			<rect id="SVGID_43_" y="-119" width="612" height="792"/>
		</defs>
		<clipPath id="SVGID_44_">
			<use xlink:href="#SVGID_43_"  overflow="visible"/>
		</clipPath>
		<path clip-path="url(#SVGID_44_)" fill="#ffffff" d="M411.426,273.51l1.491,98.596c0.204,2.303-0.318,12.72-0.318,12.72
			c4.653-2.144,5.69-14.197,5.69-14.197l-1.797-100.548c-2.538,0.098-8.515-5.102-8.515-5.102
			C405.845,269.566,411.426,273.51,411.426,273.51"/>
	</g>
	<g>
		<defs>
			<rect id="SVGID_45_" y="-119" width="612" height="792"/>
		</defs>
		<clipPath id="SVGID_46_">
			<use xlink:href="#SVGID_45_"  overflow="visible"/>
		</clipPath>
		<path clip-path="url(#SVGID_46_)" fill="#ffffff" d="M425.63,395.46c0,0-7.976,5.85-14.273,4.303c0,0,2.229,6.904,14.812,0.645
			c12.581-6.261,10.22-7.902,18.561-7.185C444.727,393.223,436.236,385.925,425.63,395.46"/>
	</g>
	<g>
		<defs>
			<rect id="SVGID_47_" y="-119" width="612" height="792"/>
		</defs>
		<clipPath id="SVGID_48_">
			<use xlink:href="#SVGID_47_"  overflow="visible"/>
		</clipPath>
		<path clip-path="url(#SVGID_48_)" fill="#ffffff" d="M414.705,261.934c1.048,2.549,4.738,6.289,7.995,7.033l1.204,103.404
			c-0.467,12.154-12.362,21.921-12.752,22.105c0.701,0.084,4.651-0.018,5.312-0.043c4.457-0.172,7.939-2.684,11.058-4.936
			c2.472-1.782,4.807-3.467,7.524-4.126c6.146-1.489,9.83,1.006,9.959,1.096l4.135,3.028l0.082-5.123
			c0.064-4.021-2.618-6.9-4.272-8.287l0.102-140.958C440.463,250.202,415.518,261.859,414.705,261.934"/>
	</g>
	<g>
		<defs>
			<rect id="SVGID_49_" y="-119" width="612" height="792"/>
		</defs>
		<clipPath id="SVGID_50_">
			<use xlink:href="#SVGID_49_"  overflow="visible"/>
		</clipPath>
		<path clip-path="url(#SVGID_50_)" fill="#ffffff" d="M465.312,362.271c0.01-0.088,0.014-0.172,0.014-0.261l-0.625-96.487
			c-2.538,0.098-8.74-4.539-8.74-4.539c-2.134,4.588,2.461,6.978,2.461,6.978l1.065,95.533c0.204,2.303-1.031,21.18-1.031,21.18
			C464.706,384.133,465.114,364.009,465.312,362.271"/>
	</g>
	<g>
		<defs>
			<rect id="SVGID_51_" y="-119" width="612" height="792"/>
		</defs>
		<clipPath id="SVGID_52_">
			<use xlink:href="#SVGID_51_"  overflow="visible"/>
		</clipPath>
		<path clip-path="url(#SVGID_52_)" fill="#ffffff" d="M472.496,393.652c0,0-7.978,5.85-14.274,4.304c0,0,2.23,6.904,14.812,0.644
			c12.581-6.262,10.22-7.902,18.559-7.185C491.592,391.415,483.103,384.117,472.496,393.652"/>
	</g>
	<g>
		<defs>
			<rect id="SVGID_53_" y="-119" width="612" height="792"/>
		</defs>
		<clipPath id="SVGID_54_">
			<use xlink:href="#SVGID_53_"  overflow="visible"/>
		</clipPath>
		<path clip-path="url(#SVGID_54_)" fill="#ffffff" d="M462.938,257.743c1.082,2.628,4.479,5.555,7.612,5.735l-0.162,107.479
			c-0.466,12.159-12.362,21.924-12.752,22.108c0.703,0.082,4.653-0.019,5.31-0.043c4.458-0.172,7.939-2.684,11.058-4.936
			c2.473-1.783,4.807-3.467,7.528-4.127c6.274-1.523,12.177,2.312,12.229,2.348l4.053,2.727l0.077-4.885
			c0.067-4.369-4.184-7.971-6.447-9.576l1.344-138.913C488.106,251.027,463.217,257.665,462.938,257.743"/>
	</g>
	<g>
		<defs>
			<rect id="SVGID_55_" y="-119" width="612" height="792"/>
		</defs>
		<clipPath id="SVGID_56_">
			<use xlink:href="#SVGID_55_"  overflow="visible"/>
		</clipPath>
		<path clip-path="url(#SVGID_56_)" fill="#ffffff" d="M553.713,331.068c-0.403-1.104-0.615-2.738-0.16-5.039
			c0.254-1.284,0.709-2.771,1.471-4.506c3.798,3.086,11.03,8.08,18.065,8.093c1.099-0.015,9.863-0.138,16.332-16.937
			c-0.217,0.26-5.447,3.703-14.647-0.189c-0.074-0.026-10.059-4.59-16.066-15.189c-1.134,3.445-5.378,13.456-11.767,19.201
			c-6.354,5.714-10.794,14.712-9.988,20.821c0.051,2.149,1.213,16.222,22.408,23.545c8.143,2.813,13.156,6.483,14.118,10.332
			c0.608,2.437-0.575,4.407-1.037,4.905l-0.279,0.358c-0.021,0.029-2.057,3.058-5.57,3.746c-2.499,0.488-5.277-0.297-8.254-2.334
			c-8.189-5.606-16.964-7.347-24.077-4.765c-7.241,2.63-12.705,9.348-15.688,19.972c0.204-0.358,10.266-6.739,20.153-6.33
			l0.104,0.003l0.083-0.003c0.052,0.006,5.772-0.082,13.326,4.472c3.582,2.153,8.299,2.578,13.644,1.229
			c7.334-1.854,14.832-6.889,17.774-11.878c3.776-5.865,8.158-19.8-2.199-30.661c-0.689-0.842-4.882-5.678-13.446-10.553
			c-3.287-1.869-7.196-3.746-11.831-5.405C556.16,333.95,554.498,333.229,553.713,331.068"/>
	</g>
	<g>
		<defs>
			<rect id="SVGID_57_" y="-119" width="612" height="792"/>
		</defs>
		<clipPath id="SVGID_58_">
			<use xlink:href="#SVGID_57_"  overflow="visible"/>
		</clipPath>
		<path clip-path="url(#SVGID_58_)" fill="#ffffff" d="M391.815,319.339c-4.102-5.608-11.887-13.489-11.887-13.489
			s-5.135,7.084-16.544,14.93c-12.975,8.919-16.701,29.756-16.144,34.16c0.792,12.203,7.684,34.652,28.126,34.65
			c0.381,0,0.772-0.009,1.167-0.023c1.21,0.02,10.58-0.043,17.297-6.453c4.305-4.106,6.54-9.83,6.644-17.016
			c0,0-4.84,9.604-20.681,9.604c-7.025,0-10.305-5.454-11.945-10.706c-0.508-1.623-0.858-3.228-1.114-4.644
			c-0.25-1.385-0.41-2.592-0.538-3.466l37.959-0.608l0.088-2.517c0.023-0.659,0.479-16.335-7.41-27.483
			C395.074,323.798,393.381,321.48,391.815,319.339 M366.195,346.126c-0.377-2.631-0.518-7.827,2.966-13.856
			c0.651-1.129,1.429-2.285,2.355-3.459c1.156-1.467,2.541-2.959,4.204-4.457c1.907,3.896,7.432,11.35,8.343,11.93
			c-0.048-0.031-0.112-0.07-0.186-0.135c0.849,0.756,4.294,5.332,4.748,9.608L366.195,346.126z"/>
	</g>
	<g>
		<defs>
			<rect id="SVGID_59_" y="-119" width="612" height="792"/>
		</defs>
		<clipPath id="SVGID_60_">
			<use xlink:href="#SVGID_59_"  overflow="visible"/>
		</clipPath>
		<path clip-path="url(#SVGID_60_)" fill="#ffffff" d="M210.608,323.393c-0.816,0.793-21.32,18.154-18.23,36.937
			c0.043,0.297,4.52,31.704,31.18,31.704c17.319,0,24.438-6.741,28.065-22.93c-0.094,0.123-8.084,11.692-22.256,8.705l-0.202-0.067
			c-0.581-0.171-16.551-5.091-15.926-28.478c0.044-0.615,0.343-3.729,1.902-8.328c0.708-2.088,1.683-4.481,3.01-7.097
			c0.761-1.497,1.624-3.056,2.638-4.676c2.295,4.792,6.819,11.834,14.568,11.834c6.691,0,16.823-6.325,19.618-22.099
			c-0.083,0.078-3.237,3.998-15.376,3.039c-6.872-0.543-12.105-4.939-16.837-14.869
			C219.497,311.938,217.246,316.936,210.608,323.393"/>
	</g>
	<g>
		<defs>
			<rect id="SVGID_61_" y="-119" width="612" height="792"/>
		</defs>
		<clipPath id="SVGID_62_">
			<use xlink:href="#SVGID_61_"  overflow="visible"/>
		</clipPath>
		<path clip-path="url(#SVGID_62_)" fill="#ffffff" d="M135.961,269.092c-0.299-0.07-32.699-8.514-45.568-26.402
			c-0.031,0.115-5.133,13.699-12.072,20.778l-0.126,0.14c-2.481,2.916-9.757,11.045-13.603,13.588l-0.157,0.111
			c-0.677,0.521-16.545,12.938-15.961,27.896c-0.021,0.916-0.154,22.523,30.731,30.265c0.988,0.239,24.311,5.894,31.075,6.738
			c14.814,2.306,38.022,6.144,41.243,7.271l0.188,0.06c0.592,0.157,14.475,4.053,12.841,15.442
			c-0.027,0.164-0.674,4.043-4.409,6.592c-3.556,2.437-8.765,2.919-15.558,1.427c-0.101-0.021-10.215-1.966-14.602-3.946
			c-1.216-0.578-30.054-14.076-54.043-11.169c-1.071,0.11-23.466,2.63-38.151,20.457c-2.017,2.448-3.893,5.181-5.544,8.24
			l-4.6,8.528l2.961-1.782l5.342-3.216c0.157-0.098,15.959-9.547,25.164-9.547c0.11,0,11.235,0.1,16.657,2.071
			c5.757,2.091,38.144,10.572,47.68,10.167c2.18,0.115,23.495,1.006,37.342-8.474c1.926-1.075,17.832-10.834,14.552-38.159
			c-0.086-0.665-2.332-16.336-20.326-23.33c-0.999-0.338-24.727-8.285-44.769-9.521c-9.792-0.645-35.462-5.278-36.621-18.75
			c-0.005-0.088-0.284-6.07,3.172-13.078c0.913-1.85,2.088-3.771,3.597-5.674c0.87-1.099,1.845-2.191,2.953-3.26
			c5.824,4.354,24.669,17.201,45.422,18.115c2.09,0.271,23.773,2.764,37.978-8.369c6.785-5.314,10.728-12.837,11.72-22.357
			l0.639-6.133C181.108,253.811,166.488,277.602,135.961,269.092"/>
	</g>
	<g>
		<defs>
			<rect id="SVGID_63_" y="-119" width="612" height="792"/>
		</defs>
		<clipPath id="SVGID_64_">
			<use xlink:href="#SVGID_63_"  overflow="visible"/>
		</clipPath>
	</g>
</g>
<g>
	<g>
		<defs>
			<rect id="SVGID_65_" y="-119" width="612" height="792"/>
		</defs>
		<clipPath id="SVGID_66_">
			<use xlink:href="#SVGID_65_"  overflow="visible"/>
		</clipPath>
		<path clip-path="url(#SVGID_66_)" fill="#D9272E" d="M336.294,252.977l-0.018,0.004
			C336.282,252.979,336.288,252.977,336.294,252.977"/>
	</g>
</g>
<g>
	<g>
		<defs>
			<rect id="SVGID_67_" y="-119" width="612" height="792"/>
		</defs>
		<clipPath id="SVGID_68_">
			<use xlink:href="#SVGID_67_"  overflow="visible"/>
		</clipPath>
	</g>
	<g>
		<defs>
			<rect id="SVGID_69_" y="-119" width="612" height="792"/>
		</defs>
		<clipPath id="SVGID_70_">
			<use xlink:href="#SVGID_69_"  overflow="visible"/>
		</clipPath>
	</g>
	<g>
		<defs>
			<rect id="SVGID_71_" y="-119" width="612" height="792"/>
		</defs>
		<clipPath id="SVGID_72_">
			<use xlink:href="#SVGID_71_"  overflow="visible"/>
		</clipPath>
	</g>
	<g>
		<defs>
			<rect id="SVGID_73_" y="-119" width="612" height="792"/>
		</defs>
		<clipPath id="SVGID_74_">
			<use xlink:href="#SVGID_73_"  overflow="visible"/>
		</clipPath>
	</g>
	<g>
		<defs>
			<rect id="SVGID_75_" y="-119" width="612" height="792"/>
		</defs>
		<clipPath id="SVGID_76_">
			<use xlink:href="#SVGID_75_"  overflow="visible"/>
		</clipPath>
	</g>
	<g>
		<defs>
			<rect id="SVGID_77_" y="-119" width="612" height="792"/>
		</defs>
		<clipPath id="SVGID_78_">
			<use xlink:href="#SVGID_77_"  overflow="visible"/>
		</clipPath>
	</g>
	<g>
		<defs>
			<rect id="SVGID_79_" y="-119" width="612" height="792"/>
		</defs>
		<clipPath id="SVGID_80_">
			<use xlink:href="#SVGID_79_"  overflow="visible"/>
		</clipPath>
	</g>
	<g>
		<defs>
			<rect id="SVGID_81_" y="-119" width="612" height="792"/>
		</defs>
		<clipPath id="SVGID_82_">
			<use xlink:href="#SVGID_81_"  overflow="visible"/>
		</clipPath>
	</g>
	<g>
		<defs>
			<rect id="SVGID_83_" y="-119" width="612" height="792"/>
		</defs>
		<clipPath id="SVGID_84_">
			<use xlink:href="#SVGID_83_"  overflow="visible"/>
		</clipPath>
	</g>
</g>
</svg>
