<?xml version="1.0" encoding="UTF-8"?>
<svg id="Layer_1" xmlns="http://www.w3.org/2000/svg" version="1.1" viewBox="0 0 800 800">
  <!-- Generator: Adobe Illustrator 30.0.0, SVG Export Plug-In . SVG Version: 2.1.1 Build 123)  -->
  <defs>
    <style>
      .st0 {
        fill: #fff;
        fill-rule: evenodd;
      }
    </style>
  </defs>
  <g id="Page-1">
    <g id="Dribbble-Light-Preview">
      <g id="icons">
        <path id="twitter-_x5B__x23_154_x5D_" class="st0" d="M251.6,720c301.9,0,467-246.2,467-459.8s0-14-.5-20.9c32.1-22.9,59.8-51.2,81.9-83.7-29.9,13.1-61.7,21.7-94.2,25.4,34.2-20.2,59.9-51.9,72.2-89.4-32.2,18.8-67.5,32.1-104.2,39.2-62.2-65.1-166.1-68.2-232.2-7-42.6,39.5-60.7,98.3-47.5,154.4-132-6.5-254.9-67.9-338.3-168.8-43.6,73.8-21.3,168.3,50.8,215.7-26.1-.7-51.7-7.7-74.5-20.2v2.1c0,76.9,55.1,143.1,131.7,158.4-24.2,6.5-49.5,7.4-74.1,2.8,21.5,65.9,83.1,111,153.3,112.2-58.1,45-129.9,69.4-203.8,69.3-13,0-26.1-.8-39.1-2.3,75.1,47.4,162.4,72.6,251.6,72.5"/>
      </g>
    </g>
  </g>
</svg>