<?xml version="1.0" encoding="UTF-8"?>
<svg id="Layer_1" xmlns="http://www.w3.org/2000/svg" version="1.1" viewBox="0 0 36 33">
  <!-- Generator: Adobe Illustrator 30.0.0, SVG Export Plug-In . SVG Version: 2.1.1 Build 123)  -->
  <defs>
    <style>
      .st0 {
        fill: #fff;
      }
    </style>
  </defs>
  <path class="st0" d="M31,23.8c-2.2-.7-5.1-1.2-8.3-1.4l4.2-6.1c1.3-1.9,2-4.3,1.7-6.6-.2-2.3-1.3-4.5-3.1-6.2-2-1.9-4.7-3-7.5-3s-5.5,1.1-7.5,3c-1.7,1.6-2.8,3.8-3.1,6.2-.2,2.3.4,4.7,1.7,6.6l4.2,6.1c-3.2.2-6.1.7-8.3,1.4-1.3.4-2.4.9-3.1,1.4-.9.6-1.4,1.4-1.4,2.2,0,1.6,1.9,2.9,5.5,3.9,3.2.8,7.5,1.3,12,1.3s8.8-.5,12-1.3c3.7-.9,5.5-2.2,5.5-3.9s-1.5-2.7-4.5-3.6M9.2,9.8c.2-1.9,1.1-3.7,2.5-5.1,3.5-3.3,9.1-3.3,12.6,0,1.4,1.4,2.3,3.2,2.5,5.1s-.3,3.9-1.4,5.4l-7.4,10.7-7.4-10.7c-1.1-1.6-1.6-3.5-1.4-5.4M29.5,29.5c-3.1.8-7.2,1.2-11.5,1.2s-8.5-.4-11.5-1.2c-3.5-.9-4.2-1.9-4.2-2.2s.9-1.2,3.3-1.9c2.3-.7,5.5-1.2,9-1.4l2.7,4c.3.4.8.5,1.2.2,0,0,.2-.1.2-.2l2.7-4c3.5.2,6.7.7,9,1.4,2.4.7,3.3,1.5,3.3,1.9s-.8,1.3-4.2,2.2"/>
  <path class="st0" d="M22.5,11c0-2.5-2-4.5-4.5-4.5s-4.5,2-4.5,4.5,2,4.5,4.5,4.5,4.5-2,4.5-4.5M15.2,11c0-1.5,1.3-2.8,2.8-2.8s2.8,1.3,2.8,2.8-1.3,2.8-2.8,2.8-2.8-1.3-2.8-2.8"/>
</svg>